G04*
G04 #@! TF.GenerationSoftware,Altium Limited,Altium Designer,18.1.9 (240)*
G04*
G04 Layer_Color=16711935*
%FSLAX25Y25*%
%MOIN*%
G70*
G01*
G75*
%ADD121C,0.00591*%
%ADD122C,0.00394*%
D121*
X227936Y135400D02*
G03*
X227936Y135400I-2236J0D01*
G01*
X228236Y627500D02*
G03*
X228236Y627500I-2236J0D01*
G01*
Y729000D02*
G03*
X228236Y729000I-2236J0D01*
G01*
X227936Y237500D02*
G03*
X227936Y237500I-2236J0D01*
G01*
X221543Y139715D02*
X251857D01*
Y79085D02*
Y139715D01*
X221543Y79085D02*
X251857D01*
X221543D02*
Y139715D01*
X221843Y631815D02*
X252157D01*
Y571185D02*
Y631815D01*
X221843Y571185D02*
X252157D01*
X221843D02*
Y631815D01*
Y733315D02*
X252157D01*
Y672685D02*
Y733315D01*
X221843Y672685D02*
X252157D01*
X221843D02*
Y733315D01*
X294162Y484141D02*
X322001Y456302D01*
Y511980D02*
X349840Y484141D01*
X294162D02*
X322001Y511980D01*
Y456302D02*
X349840Y484141D01*
X221543Y181185D02*
Y241815D01*
Y181185D02*
X251857D01*
Y241815D01*
X221543D02*
X251857D01*
D122*
X203017Y517945D02*
Y536055D01*
X222702D01*
Y517945D02*
Y536055D01*
X203017Y517945D02*
X222702D01*
X202717Y404713D02*
Y422823D01*
X222402D01*
Y404713D02*
Y422823D01*
X202717Y404713D02*
X222402D01*
X203057Y291545D02*
Y309655D01*
X222743D01*
Y291545D02*
Y309655D01*
X203057Y291545D02*
X222743D01*
X139471Y241561D02*
X157581D01*
X139471D02*
Y261246D01*
X157581D01*
Y241561D02*
Y261246D01*
X139077Y274238D02*
X157187D01*
X139077D02*
Y293923D01*
X157187D01*
Y274238D02*
Y293923D01*
X139402Y306521D02*
X157512D01*
X139402D02*
Y326206D01*
X157512D01*
Y306521D02*
Y326206D01*
X138976Y372269D02*
X157087D01*
X138976D02*
Y391954D01*
X157087D01*
Y372269D02*
Y391954D01*
X139008Y339198D02*
X157118D01*
X139008D02*
Y358883D01*
X157118D01*
Y339198D02*
Y358883D01*
X139063Y404553D02*
X157174D01*
X139063D02*
Y424238D01*
X157174D01*
Y404553D02*
Y424238D01*
X139008Y437230D02*
X157118D01*
X139008D02*
Y456915D01*
X157118D01*
Y437230D02*
Y456915D01*
X139008Y569120D02*
X157118D01*
X139008D02*
Y588805D01*
X157118D01*
Y569120D02*
Y588805D01*
X138221Y536049D02*
X156331D01*
X138221D02*
Y555734D01*
X156331D01*
Y536049D02*
Y555734D01*
X138276Y503371D02*
X156386D01*
X138276D02*
Y523057D01*
X156386D01*
Y503371D02*
Y523057D01*
X138583Y470301D02*
X156693D01*
X138583D02*
Y489986D01*
X156693D01*
Y470301D02*
Y489986D01*
X286737Y283710D02*
X313115D01*
X286737Y298276D02*
X313115D01*
X286737Y283710D02*
Y298276D01*
X313115Y283710D02*
Y298276D01*
X286737Y327574D02*
X313115D01*
X286737Y342141D02*
X313115D01*
X286737Y327574D02*
Y342141D01*
X313115Y327574D02*
Y342141D01*
X286737Y371438D02*
X313115D01*
X286737Y386005D02*
X313115D01*
X286737Y371438D02*
Y386005D01*
X313115Y371438D02*
Y386005D01*
M02*
