G04*
G04 #@! TF.GenerationSoftware,Altium Limited,Altium Designer,18.1.9 (240)*
G04*
G04 Layer_Color=32896*
%FSLAX25Y25*%
%MOIN*%
G70*
G01*
G75*
%ADD10C,0.01000*%
%ADD14C,0.00984*%
%ADD15C,0.00800*%
%ADD16C,0.00600*%
D10*
X375062Y357018D02*
G03*
X375062Y357018I-500J0D01*
G01*
X108393Y411498D02*
G03*
X108300Y405900I-93J-2798D01*
G01*
X374062Y360518D02*
Y381148D01*
X384413D02*
X386062D01*
Y360518D02*
Y381148D01*
X374062D02*
X375810D01*
X384062Y360518D02*
X386062D01*
X384062Y364018D02*
X385377D01*
X374062Y360518D02*
X376062D01*
X374747Y364018D02*
X376062D01*
X378862Y371818D02*
X380062Y369318D01*
X381262Y371518D01*
X379862D02*
X381262D01*
X379862D02*
X380062Y370428D01*
X73977Y402796D02*
X108623D01*
X73977Y414804D02*
X108623D01*
X73977Y402796D02*
Y414804D01*
X108623Y402796D02*
Y405798D01*
Y411500D02*
Y414804D01*
D14*
X109992Y397608D02*
G03*
X109992Y397608I-492J0D01*
G01*
D15*
X359139Y418767D02*
G03*
X356537Y418767I-1302J-1302D01*
G01*
X361904Y413399D02*
G03*
X361904Y416002I-1302J1302D01*
G01*
X351368Y405466D02*
G03*
X353971Y405466I1302J1302D01*
G01*
X348596Y410826D02*
G03*
X348596Y408223I1302J-1302D01*
G01*
X354344Y456063D02*
G03*
X356947Y456063I1302J1302D01*
G01*
X359704Y458834D02*
G03*
X359704Y461437I-1302J1302D01*
G01*
X351771Y469370D02*
G03*
X349168Y469370I-1302J-1302D01*
G01*
X346404Y466606D02*
G03*
X346404Y464003I1302J-1302D01*
G01*
X292554Y498552D02*
G03*
X295157Y498552I1302J1302D01*
G01*
X297914Y501324D02*
G03*
X297914Y503927I-1302J1302D01*
G01*
X289981Y511860D02*
G03*
X287378Y511860I-1302J-1302D01*
G01*
X284614Y509096D02*
G03*
X284614Y506493I1302J-1302D01*
G01*
X378062Y372073D02*
X380062Y368573D01*
X378062Y372073D02*
X382062D01*
X380062Y368573D02*
X382062Y372073D01*
X378062Y368573D02*
X382062D01*
X348681Y408153D02*
X351297Y405537D01*
X348667Y410897D02*
X356503Y418733D01*
X353941Y405423D02*
X361875Y413357D01*
X359210Y418696D02*
X361833Y416073D01*
X346474Y466677D02*
X349097Y469300D01*
X351813Y469341D02*
X359747Y461407D01*
X346438Y463969D02*
X354273Y456133D01*
X357017Y456147D02*
X359633Y458764D01*
X284685Y509166D02*
X287308Y511789D01*
X290024Y511831D02*
X297958Y503897D01*
X284648Y506459D02*
X292484Y498623D01*
X295227Y498637D02*
X297844Y501253D01*
D16*
X385962Y390917D02*
Y386918D01*
X383963D01*
X383296Y387585D01*
Y390250D01*
X383963Y390917D01*
X385962D01*
X381963Y386918D02*
X380631D01*
X381297D01*
Y390917D01*
X381963Y390250D01*
X109900Y429899D02*
Y426566D01*
X109233Y425900D01*
X107901D01*
X107234Y426566D01*
Y429899D01*
X105901Y425900D02*
X104568D01*
X105235D01*
Y429899D01*
X105901Y429232D01*
X102569D02*
X101903Y429899D01*
X100570D01*
X99903Y429232D01*
Y428566D01*
X100570Y427899D01*
X101236D01*
X100570D01*
X99903Y427233D01*
Y426566D01*
X100570Y425900D01*
X101903D01*
X102569Y426566D01*
X287909Y514229D02*
X285081Y517056D01*
X283667Y515642D01*
Y514700D01*
X284610Y513757D01*
X285552D01*
X286966Y515171D01*
X286024Y514229D02*
Y512344D01*
X285081Y511401D02*
X284139Y510459D01*
X284610Y510930D01*
X281782Y513757D01*
X282725D01*
X280369Y511401D02*
X279426D01*
X278484Y510459D01*
Y509516D01*
X278955Y509045D01*
X279897D01*
Y508102D01*
X280369Y507631D01*
X281311D01*
X282254Y508574D01*
Y509516D01*
X281782Y509987D01*
X280840D01*
Y510930D01*
X280369Y511401D01*
X280840Y509987D02*
X279897Y509045D01*
X356769Y454061D02*
X359597Y451234D01*
X361011Y452648D01*
Y453590D01*
X360068Y454533D01*
X359126D01*
X357712Y453119D01*
X358654Y454061D02*
Y455946D01*
X359597Y456889D02*
X360539Y457831D01*
X360068Y457360D01*
X362896Y454533D01*
X361953D01*
X366666Y458303D02*
X364781Y456418D01*
X363367Y457831D01*
X364781Y458303D01*
X365252Y458774D01*
Y459716D01*
X364309Y460659D01*
X363367D01*
X362424Y459716D01*
Y458774D01*
X364507Y419772D02*
X365449D01*
X366392Y418830D01*
Y417887D01*
X364507Y416002D01*
X363564D01*
X362622Y416945D01*
Y417887D01*
X361208Y418358D02*
X360265Y419301D01*
X360737Y418830D01*
X363564Y421657D01*
Y420715D01*
X357438Y422128D02*
X360265Y424956D01*
Y422128D01*
X358381Y424013D01*
M02*
