G04*
G04 #@! TF.GenerationSoftware,Altium Limited,Altium Designer,18.1.9 (240)*
G04*
G04 Layer_Color=2752767*
%FSLAX25Y25*%
%MOIN*%
G70*
G01*
G75*
%ADD10C,0.00200*%
%ADD11C,0.00267*%
D10*
X418563Y455630D02*
Y457230D01*
X420163D01*
Y455630D01*
X418563D01*
X403062Y567018D02*
Y568618D01*
X404662D01*
Y567018D01*
X403062D01*
X403162Y250218D02*
Y251818D01*
X404762D01*
Y250218D01*
X403162D01*
X100300Y51100D02*
Y52700D01*
X101900D01*
Y51100D01*
X100300D01*
X100600Y766600D02*
Y768200D01*
X102200D01*
Y766600D01*
X100600D01*
X418563Y494606D02*
Y496207D01*
X420163D01*
Y494606D01*
X418563D01*
X367353Y371718D02*
X366553Y373318D01*
X368153D01*
X367353Y371718D01*
X391762D02*
X390962Y373318D01*
X392562D01*
X391762Y371718D01*
X377983Y390222D02*
X378383Y390622D01*
X378783D01*
X378383Y391022D01*
X378783Y391422D01*
X378383D01*
X377983Y391822D01*
X377583Y391422D01*
X377183D01*
X377583Y391022D01*
X377183Y390622D01*
X377583D01*
X377983Y390222D01*
X229200Y474200D02*
X229600Y475000D01*
X229200Y475800D01*
X230000Y475400D01*
X230800Y475800D01*
X230400Y475000D01*
X230800Y474200D01*
X230000Y474600D01*
X229200Y474200D01*
Y464200D02*
X229600Y465000D01*
X229200Y465800D01*
X230000Y465400D01*
X230800Y465800D01*
X230400Y465000D01*
X230800Y464200D01*
X230000Y464600D01*
X229200Y464200D01*
Y454200D02*
X229600Y455000D01*
X229200Y455800D01*
X230000Y455400D01*
X230800Y455800D01*
X230400Y455000D01*
X230800Y454200D01*
X230000Y454600D01*
X229200Y454200D01*
X224200Y474200D02*
X224600Y475000D01*
X224200Y475800D01*
X225000Y475400D01*
X225800Y475800D01*
X225400Y475000D01*
X225800Y474200D01*
X225000Y474600D01*
X224200Y474200D01*
X226700Y469200D02*
X227100Y470000D01*
X226700Y470800D01*
X227500Y470400D01*
X228300Y470800D01*
X227900Y470000D01*
X228300Y469200D01*
X227500Y469600D01*
X226700Y469200D01*
X224200Y464200D02*
X224600Y465000D01*
X224200Y465800D01*
X225000Y465400D01*
X225800Y465800D01*
X225400Y465000D01*
X225800Y464200D01*
X225000Y464600D01*
X224200Y464200D01*
X226700Y459200D02*
X227100Y460000D01*
X226700Y460800D01*
X227500Y460400D01*
X228300Y460800D01*
X227900Y460000D01*
X228300Y459200D01*
X227500Y459600D01*
X226700Y459200D01*
X224200Y454200D02*
X224600Y455000D01*
X224200Y455800D01*
X225000Y455400D01*
X225800Y455800D01*
X225400Y455000D01*
X225800Y454200D01*
X225000Y454600D01*
X224200Y454200D01*
X219200Y474200D02*
X219600Y475000D01*
X219200Y475800D01*
X220000Y475400D01*
X220800Y475800D01*
X220400Y475000D01*
X220800Y474200D01*
X220000Y474600D01*
X219200Y474200D01*
X221700Y469200D02*
X222100Y470000D01*
X221700Y470800D01*
X222500Y470400D01*
X223300Y470800D01*
X222900Y470000D01*
X223300Y469200D01*
X222500Y469600D01*
X221700Y469200D01*
X219200Y464200D02*
X219600Y465000D01*
X219200Y465800D01*
X220000Y465400D01*
X220800Y465800D01*
X220400Y465000D01*
X220800Y464200D01*
X220000Y464600D01*
X219200Y464200D01*
X221700Y459200D02*
X222100Y460000D01*
X221700Y460800D01*
X222500Y460400D01*
X223300Y460800D01*
X222900Y460000D01*
X223300Y459200D01*
X222500Y459600D01*
X221700Y459200D01*
X219200Y454200D02*
X219600Y455000D01*
X219200Y455800D01*
X220000Y455400D01*
X220800Y455800D01*
X220400Y455000D01*
X220800Y454200D01*
X220000Y454600D01*
X219200Y454200D01*
X214200Y474200D02*
X214600Y475000D01*
X214200Y475800D01*
X215000Y475400D01*
X215800Y475800D01*
X215400Y475000D01*
X215800Y474200D01*
X215000Y474600D01*
X214200Y474200D01*
X216700Y469200D02*
X217100Y470000D01*
X216700Y470800D01*
X217500Y470400D01*
X218300Y470800D01*
X217900Y470000D01*
X218300Y469200D01*
X217500Y469600D01*
X216700Y469200D01*
X214200Y464200D02*
X214600Y465000D01*
X214200Y465800D01*
X215000Y465400D01*
X215800Y465800D01*
X215400Y465000D01*
X215800Y464200D01*
X215000Y464600D01*
X214200Y464200D01*
X216700Y459200D02*
X217100Y460000D01*
X216700Y460800D01*
X217500Y460400D01*
X218300Y460800D01*
X217900Y460000D01*
X218300Y459200D01*
X217500Y459600D01*
X216700Y459200D01*
X214200Y454200D02*
X214600Y455000D01*
X214200Y455800D01*
X215000Y455400D01*
X215800Y455800D01*
X215400Y455000D01*
X215800Y454200D01*
X215000Y454600D01*
X214200Y454200D01*
X209200Y474200D02*
X209600Y475000D01*
X209200Y475800D01*
X210000Y475400D01*
X210800Y475800D01*
X210400Y475000D01*
X210800Y474200D01*
X210000Y474600D01*
X209200Y474200D01*
X211700Y469200D02*
X212100Y470000D01*
X211700Y470800D01*
X212500Y470400D01*
X213300Y470800D01*
X212900Y470000D01*
X213300Y469200D01*
X212500Y469600D01*
X211700Y469200D01*
X209200Y464200D02*
X209600Y465000D01*
X209200Y465800D01*
X210000Y465400D01*
X210800Y465800D01*
X210400Y465000D01*
X210800Y464200D01*
X210000Y464600D01*
X209200Y464200D01*
X211700Y459200D02*
X212100Y460000D01*
X211700Y460800D01*
X212500Y460400D01*
X213300Y460800D01*
X212900Y460000D01*
X213300Y459200D01*
X212500Y459600D01*
X211700Y459200D01*
X209200Y454200D02*
X209600Y455000D01*
X209200Y455800D01*
X210000Y455400D01*
X210800Y455800D01*
X210400Y455000D01*
X210800Y454200D01*
X210000Y454600D01*
X209200Y454200D01*
X204200Y474200D02*
X204600Y475000D01*
X204200Y475800D01*
X205000Y475400D01*
X205800Y475800D01*
X205400Y475000D01*
X205800Y474200D01*
X205000Y474600D01*
X204200Y474200D01*
X206700Y469200D02*
X207100Y470000D01*
X206700Y470800D01*
X207500Y470400D01*
X208300Y470800D01*
X207900Y470000D01*
X208300Y469200D01*
X207500Y469600D01*
X206700Y469200D01*
X204200Y464200D02*
X204600Y465000D01*
X204200Y465800D01*
X205000Y465400D01*
X205800Y465800D01*
X205400Y465000D01*
X205800Y464200D01*
X205000Y464600D01*
X204200Y464200D01*
X206700Y459200D02*
X207100Y460000D01*
X206700Y460800D01*
X207500Y460400D01*
X208300Y460800D01*
X207900Y460000D01*
X208300Y459200D01*
X207500Y459600D01*
X206700Y459200D01*
X204200Y454200D02*
X204600Y455000D01*
X204200Y455800D01*
X205000Y455400D01*
X205800Y455800D01*
X205400Y455000D01*
X205800Y454200D01*
X205000Y454600D01*
X204200Y454200D01*
X199200Y474200D02*
X199600Y475000D01*
X199200Y475800D01*
X200000Y475400D01*
X200800Y475800D01*
X200400Y475000D01*
X200800Y474200D01*
X200000Y474600D01*
X199200Y474200D01*
X201700Y469200D02*
X202100Y470000D01*
X201700Y470800D01*
X202500Y470400D01*
X203300Y470800D01*
X202900Y470000D01*
X203300Y469200D01*
X202500Y469600D01*
X201700Y469200D01*
X199200Y464200D02*
X199600Y465000D01*
X199200Y465800D01*
X200000Y465400D01*
X200800Y465800D01*
X200400Y465000D01*
X200800Y464200D01*
X200000Y464600D01*
X199200Y464200D01*
X201700Y459200D02*
X202100Y460000D01*
X201700Y460800D01*
X202500Y460400D01*
X203300Y460800D01*
X202900Y460000D01*
X203300Y459200D01*
X202500Y459600D01*
X201700Y459200D01*
X199200Y454200D02*
X199600Y455000D01*
X199200Y455800D01*
X200000Y455400D01*
X200800Y455800D01*
X200400Y455000D01*
X200800Y454200D01*
X200000Y454600D01*
X199200Y454200D01*
X194200Y474200D02*
X194600Y475000D01*
X194200Y475800D01*
X195000Y475400D01*
X195800Y475800D01*
X195400Y475000D01*
X195800Y474200D01*
X195000Y474600D01*
X194200Y474200D01*
X196700Y469200D02*
X197100Y470000D01*
X196700Y470800D01*
X197500Y470400D01*
X198300Y470800D01*
X197900Y470000D01*
X198300Y469200D01*
X197500Y469600D01*
X196700Y469200D01*
X194200Y464200D02*
X194600Y465000D01*
X194200Y465800D01*
X195000Y465400D01*
X195800Y465800D01*
X195400Y465000D01*
X195800Y464200D01*
X195000Y464600D01*
X194200Y464200D01*
X196700Y459200D02*
X197100Y460000D01*
X196700Y460800D01*
X197500Y460400D01*
X198300Y460800D01*
X197900Y460000D01*
X198300Y459200D01*
X197500Y459600D01*
X196700Y459200D01*
X194200Y454200D02*
X194600Y455000D01*
X194200Y455800D01*
X195000Y455400D01*
X195800Y455800D01*
X195400Y455000D01*
X195800Y454200D01*
X195000Y454600D01*
X194200Y454200D01*
X189200Y474200D02*
X189600Y475000D01*
X189200Y475800D01*
X190000Y475400D01*
X190800Y475800D01*
X190400Y475000D01*
X190800Y474200D01*
X190000Y474600D01*
X189200Y474200D01*
X191700Y469200D02*
X192100Y470000D01*
X191700Y470800D01*
X192500Y470400D01*
X193300Y470800D01*
X192900Y470000D01*
X193300Y469200D01*
X192500Y469600D01*
X191700Y469200D01*
X189200Y464200D02*
X189600Y465000D01*
X189200Y465800D01*
X190000Y465400D01*
X190800Y465800D01*
X190400Y465000D01*
X190800Y464200D01*
X190000Y464600D01*
X189200Y464200D01*
X191700Y459200D02*
X192100Y460000D01*
X191700Y460800D01*
X192500Y460400D01*
X193300Y460800D01*
X192900Y460000D01*
X193300Y459200D01*
X192500Y459600D01*
X191700Y459200D01*
X189200Y454200D02*
X189600Y455000D01*
X189200Y455800D01*
X190000Y455400D01*
X190800Y455800D01*
X190400Y455000D01*
X190800Y454200D01*
X190000Y454600D01*
X189200Y454200D01*
X184200Y474200D02*
X184600Y475000D01*
X184200Y475800D01*
X185000Y475400D01*
X185800Y475800D01*
X185400Y475000D01*
X185800Y474200D01*
X185000Y474600D01*
X184200Y474200D01*
X186700Y469200D02*
X187100Y470000D01*
X186700Y470800D01*
X187500Y470400D01*
X188300Y470800D01*
X187900Y470000D01*
X188300Y469200D01*
X187500Y469600D01*
X186700Y469200D01*
X184200Y464200D02*
X184600Y465000D01*
X184200Y465800D01*
X185000Y465400D01*
X185800Y465800D01*
X185400Y465000D01*
X185800Y464200D01*
X185000Y464600D01*
X184200Y464200D01*
X186700Y459200D02*
X187100Y460000D01*
X186700Y460800D01*
X187500Y460400D01*
X188300Y460800D01*
X187900Y460000D01*
X188300Y459200D01*
X187500Y459600D01*
X186700Y459200D01*
X184200Y454200D02*
X184600Y455000D01*
X184200Y455800D01*
X185000Y455400D01*
X185800Y455800D01*
X185400Y455000D01*
X185800Y454200D01*
X185000Y454600D01*
X184200Y454200D01*
X231700Y369200D02*
X232100Y370000D01*
X231700Y370800D01*
X232500Y370400D01*
X233300Y370800D01*
X232900Y370000D01*
X233300Y369200D01*
X232500Y369600D01*
X231700Y369200D01*
X229200Y364200D02*
X229600Y365000D01*
X229200Y365800D01*
X230000Y365400D01*
X230800Y365800D01*
X230400Y365000D01*
X230800Y364200D01*
X230000Y364600D01*
X229200Y364200D01*
X231700Y359200D02*
X232100Y360000D01*
X231700Y360800D01*
X232500Y360400D01*
X233300Y360800D01*
X232900Y360000D01*
X233300Y359200D01*
X232500Y359600D01*
X231700Y359200D01*
X229200Y354200D02*
X229600Y355000D01*
X229200Y355800D01*
X230000Y355400D01*
X230800Y355800D01*
X230400Y355000D01*
X230800Y354200D01*
X230000Y354600D01*
X229200Y354200D01*
X231700Y349200D02*
X232100Y350000D01*
X231700Y350800D01*
X232500Y350400D01*
X233300Y350800D01*
X232900Y350000D01*
X233300Y349200D01*
X232500Y349600D01*
X231700Y349200D01*
X229200Y344200D02*
X229600Y345000D01*
X229200Y345800D01*
X230000Y345400D01*
X230800Y345800D01*
X230400Y345000D01*
X230800Y344200D01*
X230000Y344600D01*
X229200Y344200D01*
X226700Y369200D02*
X227100Y370000D01*
X226700Y370800D01*
X227500Y370400D01*
X228300Y370800D01*
X227900Y370000D01*
X228300Y369200D01*
X227500Y369600D01*
X226700Y369200D01*
X224200Y364200D02*
X224600Y365000D01*
X224200Y365800D01*
X225000Y365400D01*
X225800Y365800D01*
X225400Y365000D01*
X225800Y364200D01*
X225000Y364600D01*
X224200Y364200D01*
X226700Y359200D02*
X227100Y360000D01*
X226700Y360800D01*
X227500Y360400D01*
X228300Y360800D01*
X227900Y360000D01*
X228300Y359200D01*
X227500Y359600D01*
X226700Y359200D01*
X224200Y354200D02*
X224600Y355000D01*
X224200Y355800D01*
X225000Y355400D01*
X225800Y355800D01*
X225400Y355000D01*
X225800Y354200D01*
X225000Y354600D01*
X224200Y354200D01*
X226700Y349200D02*
X227100Y350000D01*
X226700Y350800D01*
X227500Y350400D01*
X228300Y350800D01*
X227900Y350000D01*
X228300Y349200D01*
X227500Y349600D01*
X226700Y349200D01*
X224200Y344200D02*
X224600Y345000D01*
X224200Y345800D01*
X225000Y345400D01*
X225800Y345800D01*
X225400Y345000D01*
X225800Y344200D01*
X225000Y344600D01*
X224200Y344200D01*
X221700Y369200D02*
X222100Y370000D01*
X221700Y370800D01*
X222500Y370400D01*
X223300Y370800D01*
X222900Y370000D01*
X223300Y369200D01*
X222500Y369600D01*
X221700Y369200D01*
X219200Y364200D02*
X219600Y365000D01*
X219200Y365800D01*
X220000Y365400D01*
X220800Y365800D01*
X220400Y365000D01*
X220800Y364200D01*
X220000Y364600D01*
X219200Y364200D01*
X221700Y359200D02*
X222100Y360000D01*
X221700Y360800D01*
X222500Y360400D01*
X223300Y360800D01*
X222900Y360000D01*
X223300Y359200D01*
X222500Y359600D01*
X221700Y359200D01*
X219200Y354200D02*
X219600Y355000D01*
X219200Y355800D01*
X220000Y355400D01*
X220800Y355800D01*
X220400Y355000D01*
X220800Y354200D01*
X220000Y354600D01*
X219200Y354200D01*
X221700Y349200D02*
X222100Y350000D01*
X221700Y350800D01*
X222500Y350400D01*
X223300Y350800D01*
X222900Y350000D01*
X223300Y349200D01*
X222500Y349600D01*
X221700Y349200D01*
X219200Y344200D02*
X219600Y345000D01*
X219200Y345800D01*
X220000Y345400D01*
X220800Y345800D01*
X220400Y345000D01*
X220800Y344200D01*
X220000Y344600D01*
X219200Y344200D01*
X216700Y369200D02*
X217100Y370000D01*
X216700Y370800D01*
X217500Y370400D01*
X218300Y370800D01*
X217900Y370000D01*
X218300Y369200D01*
X217500Y369600D01*
X216700Y369200D01*
X214200Y364200D02*
X214600Y365000D01*
X214200Y365800D01*
X215000Y365400D01*
X215800Y365800D01*
X215400Y365000D01*
X215800Y364200D01*
X215000Y364600D01*
X214200Y364200D01*
X216700Y359200D02*
X217100Y360000D01*
X216700Y360800D01*
X217500Y360400D01*
X218300Y360800D01*
X217900Y360000D01*
X218300Y359200D01*
X217500Y359600D01*
X216700Y359200D01*
X214200Y354200D02*
X214600Y355000D01*
X214200Y355800D01*
X215000Y355400D01*
X215800Y355800D01*
X215400Y355000D01*
X215800Y354200D01*
X215000Y354600D01*
X214200Y354200D01*
X216700Y349200D02*
X217100Y350000D01*
X216700Y350800D01*
X217500Y350400D01*
X218300Y350800D01*
X217900Y350000D01*
X218300Y349200D01*
X217500Y349600D01*
X216700Y349200D01*
X214200Y344200D02*
X214600Y345000D01*
X214200Y345800D01*
X215000Y345400D01*
X215800Y345800D01*
X215400Y345000D01*
X215800Y344200D01*
X215000Y344600D01*
X214200Y344200D01*
X211700Y369200D02*
X212100Y370000D01*
X211700Y370800D01*
X212500Y370400D01*
X213300Y370800D01*
X212900Y370000D01*
X213300Y369200D01*
X212500Y369600D01*
X211700Y369200D01*
X209200Y364200D02*
X209600Y365000D01*
X209200Y365800D01*
X210000Y365400D01*
X210800Y365800D01*
X210400Y365000D01*
X210800Y364200D01*
X210000Y364600D01*
X209200Y364200D01*
X211700Y359200D02*
X212100Y360000D01*
X211700Y360800D01*
X212500Y360400D01*
X213300Y360800D01*
X212900Y360000D01*
X213300Y359200D01*
X212500Y359600D01*
X211700Y359200D01*
X209200Y354200D02*
X209600Y355000D01*
X209200Y355800D01*
X210000Y355400D01*
X210800Y355800D01*
X210400Y355000D01*
X210800Y354200D01*
X210000Y354600D01*
X209200Y354200D01*
X211700Y349200D02*
X212100Y350000D01*
X211700Y350800D01*
X212500Y350400D01*
X213300Y350800D01*
X212900Y350000D01*
X213300Y349200D01*
X212500Y349600D01*
X211700Y349200D01*
X209200Y344200D02*
X209600Y345000D01*
X209200Y345800D01*
X210000Y345400D01*
X210800Y345800D01*
X210400Y345000D01*
X210800Y344200D01*
X210000Y344600D01*
X209200Y344200D01*
X206700Y369200D02*
X207100Y370000D01*
X206700Y370800D01*
X207500Y370400D01*
X208300Y370800D01*
X207900Y370000D01*
X208300Y369200D01*
X207500Y369600D01*
X206700Y369200D01*
X204200Y364200D02*
X204600Y365000D01*
X204200Y365800D01*
X205000Y365400D01*
X205800Y365800D01*
X205400Y365000D01*
X205800Y364200D01*
X205000Y364600D01*
X204200Y364200D01*
X206700Y359200D02*
X207100Y360000D01*
X206700Y360800D01*
X207500Y360400D01*
X208300Y360800D01*
X207900Y360000D01*
X208300Y359200D01*
X207500Y359600D01*
X206700Y359200D01*
X204200Y354200D02*
X204600Y355000D01*
X204200Y355800D01*
X205000Y355400D01*
X205800Y355800D01*
X205400Y355000D01*
X205800Y354200D01*
X205000Y354600D01*
X204200Y354200D01*
X206700Y349200D02*
X207100Y350000D01*
X206700Y350800D01*
X207500Y350400D01*
X208300Y350800D01*
X207900Y350000D01*
X208300Y349200D01*
X207500Y349600D01*
X206700Y349200D01*
X204200Y344200D02*
X204600Y345000D01*
X204200Y345800D01*
X205000Y345400D01*
X205800Y345800D01*
X205400Y345000D01*
X205800Y344200D01*
X205000Y344600D01*
X204200Y344200D01*
X201700Y369200D02*
X202100Y370000D01*
X201700Y370800D01*
X202500Y370400D01*
X203300Y370800D01*
X202900Y370000D01*
X203300Y369200D01*
X202500Y369600D01*
X201700Y369200D01*
X199200Y364200D02*
X199600Y365000D01*
X199200Y365800D01*
X200000Y365400D01*
X200800Y365800D01*
X200400Y365000D01*
X200800Y364200D01*
X200000Y364600D01*
X199200Y364200D01*
X201700Y359200D02*
X202100Y360000D01*
X201700Y360800D01*
X202500Y360400D01*
X203300Y360800D01*
X202900Y360000D01*
X203300Y359200D01*
X202500Y359600D01*
X201700Y359200D01*
X199200Y354200D02*
X199600Y355000D01*
X199200Y355800D01*
X200000Y355400D01*
X200800Y355800D01*
X200400Y355000D01*
X200800Y354200D01*
X200000Y354600D01*
X199200Y354200D01*
X201700Y349200D02*
X202100Y350000D01*
X201700Y350800D01*
X202500Y350400D01*
X203300Y350800D01*
X202900Y350000D01*
X203300Y349200D01*
X202500Y349600D01*
X201700Y349200D01*
X199200Y344200D02*
X199600Y345000D01*
X199200Y345800D01*
X200000Y345400D01*
X200800Y345800D01*
X200400Y345000D01*
X200800Y344200D01*
X200000Y344600D01*
X199200Y344200D01*
X196700Y369200D02*
X197100Y370000D01*
X196700Y370800D01*
X197500Y370400D01*
X198300Y370800D01*
X197900Y370000D01*
X198300Y369200D01*
X197500Y369600D01*
X196700Y369200D01*
X194200Y364200D02*
X194600Y365000D01*
X194200Y365800D01*
X195000Y365400D01*
X195800Y365800D01*
X195400Y365000D01*
X195800Y364200D01*
X195000Y364600D01*
X194200Y364200D01*
X196700Y359200D02*
X197100Y360000D01*
X196700Y360800D01*
X197500Y360400D01*
X198300Y360800D01*
X197900Y360000D01*
X198300Y359200D01*
X197500Y359600D01*
X196700Y359200D01*
X194200Y354200D02*
X194600Y355000D01*
X194200Y355800D01*
X195000Y355400D01*
X195800Y355800D01*
X195400Y355000D01*
X195800Y354200D01*
X195000Y354600D01*
X194200Y354200D01*
X196700Y349200D02*
X197100Y350000D01*
X196700Y350800D01*
X197500Y350400D01*
X198300Y350800D01*
X197900Y350000D01*
X198300Y349200D01*
X197500Y349600D01*
X196700Y349200D01*
X194200Y344200D02*
X194600Y345000D01*
X194200Y345800D01*
X195000Y345400D01*
X195800Y345800D01*
X195400Y345000D01*
X195800Y344200D01*
X195000Y344600D01*
X194200Y344200D01*
X191700Y369200D02*
X192100Y370000D01*
X191700Y370800D01*
X192500Y370400D01*
X193300Y370800D01*
X192900Y370000D01*
X193300Y369200D01*
X192500Y369600D01*
X191700Y369200D01*
X189200Y364200D02*
X189600Y365000D01*
X189200Y365800D01*
X190000Y365400D01*
X190800Y365800D01*
X190400Y365000D01*
X190800Y364200D01*
X190000Y364600D01*
X189200Y364200D01*
X191700Y359200D02*
X192100Y360000D01*
X191700Y360800D01*
X192500Y360400D01*
X193300Y360800D01*
X192900Y360000D01*
X193300Y359200D01*
X192500Y359600D01*
X191700Y359200D01*
X189200Y354200D02*
X189600Y355000D01*
X189200Y355800D01*
X190000Y355400D01*
X190800Y355800D01*
X190400Y355000D01*
X190800Y354200D01*
X190000Y354600D01*
X189200Y354200D01*
X191700Y349200D02*
X192100Y350000D01*
X191700Y350800D01*
X192500Y350400D01*
X193300Y350800D01*
X192900Y350000D01*
X193300Y349200D01*
X192500Y349600D01*
X191700Y349200D01*
X189200Y344200D02*
X189600Y345000D01*
X189200Y345800D01*
X190000Y345400D01*
X190800Y345800D01*
X190400Y345000D01*
X190800Y344200D01*
X190000Y344600D01*
X189200Y344200D01*
X186700Y369200D02*
X187100Y370000D01*
X186700Y370800D01*
X187500Y370400D01*
X188300Y370800D01*
X187900Y370000D01*
X188300Y369200D01*
X187500Y369600D01*
X186700Y369200D01*
X184200Y364200D02*
X184600Y365000D01*
X184200Y365800D01*
X185000Y365400D01*
X185800Y365800D01*
X185400Y365000D01*
X185800Y364200D01*
X185000Y364600D01*
X184200Y364200D01*
X186700Y359200D02*
X187100Y360000D01*
X186700Y360800D01*
X187500Y360400D01*
X188300Y360800D01*
X187900Y360000D01*
X188300Y359200D01*
X187500Y359600D01*
X186700Y359200D01*
X184200Y354200D02*
X184600Y355000D01*
X184200Y355800D01*
X185000Y355400D01*
X185800Y355800D01*
X185400Y355000D01*
X185800Y354200D01*
X185000Y354600D01*
X184200Y354200D01*
X186700Y349200D02*
X187100Y350000D01*
X186700Y350800D01*
X187500Y350400D01*
X188300Y350800D01*
X187900Y350000D01*
X188300Y349200D01*
X187500Y349600D01*
X186700Y349200D01*
X184200Y344200D02*
X184600Y345000D01*
X184200Y345800D01*
X185000Y345400D01*
X185800Y345800D01*
X185400Y345000D01*
X185800Y344200D01*
X185000Y344600D01*
X184200Y344200D01*
X279500Y235800D02*
X279900Y236600D01*
X279500Y237400D01*
X280300Y237000D01*
X281100Y237400D01*
X280700Y236600D01*
X281100Y235800D01*
X280300Y236200D01*
X279500Y235800D01*
X285400Y241600D02*
X285800Y242400D01*
X285400Y243200D01*
X286200Y242800D01*
X287000Y243200D01*
X286600Y242400D01*
X287000Y241600D01*
X286200Y242000D01*
X285400Y241600D01*
X256800Y325165D02*
X257200Y325965D01*
X256800Y326765D01*
X257600Y326365D01*
X258400Y326765D01*
X258000Y325965D01*
X258400Y325165D01*
X257600Y325565D01*
X256800Y325165D01*
X270500Y250700D02*
X270900Y251500D01*
X270500Y252300D01*
X271300Y251900D01*
X272100Y252300D01*
X271700Y251500D01*
X272100Y250700D01*
X271300Y251100D01*
X270500Y250700D01*
X264600Y275400D02*
X265000Y276200D01*
X264600Y277000D01*
X265400Y276600D01*
X266200Y277000D01*
X265800Y276200D01*
X266200Y275400D01*
X265400Y275800D01*
X264600Y275400D01*
X340862Y462018D02*
X341262Y462818D01*
X340862Y463618D01*
X341662Y463218D01*
X342462Y463618D01*
X342062Y462818D01*
X342462Y462018D01*
X341662Y462418D01*
X340862Y462018D01*
X341739Y464318D02*
X342139Y465118D01*
X341739Y465918D01*
X342539Y465518D01*
X343339Y465918D01*
X342939Y465118D01*
X343339Y464318D01*
X342539Y464718D01*
X341739Y464318D01*
X213300Y551300D02*
X213700Y552100D01*
X213300Y552900D01*
X214100Y552500D01*
X214900Y552900D01*
X214500Y552100D01*
X214900Y551300D01*
X214100Y551700D01*
X213300Y551300D01*
X213700Y501400D02*
X214100Y502200D01*
X213700Y503000D01*
X214500Y502600D01*
X215300Y503000D01*
X214900Y502200D01*
X215300Y501400D01*
X214500Y501800D01*
X213700Y501400D01*
X213077Y438000D02*
X213477Y438800D01*
X213077Y439600D01*
X213877Y439200D01*
X214677Y439600D01*
X214277Y438800D01*
X214677Y438000D01*
X213877Y438400D01*
X213077Y438000D01*
X213700Y388058D02*
X214100Y388858D01*
X213700Y389658D01*
X214500Y389258D01*
X215300Y389658D01*
X214900Y388858D01*
X215300Y388058D01*
X214500Y388458D01*
X213700Y388058D01*
X213200Y325150D02*
X213600Y325950D01*
X213200Y326750D01*
X214000Y326350D01*
X214800Y326750D01*
X214400Y325950D01*
X214800Y325150D01*
X214000Y325550D01*
X213200Y325150D01*
X211759Y276200D02*
X212159Y277000D01*
X211759Y277800D01*
X212559Y277400D01*
X213359Y277800D01*
X212959Y277000D01*
X213359Y276200D01*
X212559Y276600D01*
X211759Y276200D01*
X239959Y555559D02*
X240359Y556359D01*
X239959Y557159D01*
X240759Y556759D01*
X241559Y557159D01*
X241159Y556359D01*
X241559Y555559D01*
X240759Y555959D01*
X239959Y555559D01*
X239000Y506763D02*
X239400Y507563D01*
X239000Y508363D01*
X239800Y507963D01*
X240600Y508363D01*
X240200Y507563D01*
X240600Y506763D01*
X239800Y507163D01*
X239000Y506763D01*
X240200Y499900D02*
X240600Y500700D01*
X240200Y501500D01*
X241000Y501100D01*
X241800Y501500D01*
X241400Y500700D01*
X241800Y499900D01*
X241000Y500300D01*
X240200Y499900D01*
X238732Y447200D02*
X239132Y448000D01*
X238732Y448800D01*
X239532Y448400D01*
X240332Y448800D01*
X239932Y448000D01*
X240332Y447200D01*
X239532Y447600D01*
X238732Y447200D01*
X238105Y432405D02*
X238505Y433205D01*
X238105Y434005D01*
X238905Y433605D01*
X239705Y434005D01*
X239305Y433205D01*
X239705Y432405D01*
X238905Y432805D01*
X238105Y432405D01*
X236900Y393431D02*
X237300Y394231D01*
X236900Y395031D01*
X237700Y394631D01*
X238500Y395031D01*
X238100Y394231D01*
X238500Y393431D01*
X237700Y393831D01*
X236900Y393431D01*
X238900Y386000D02*
X239300Y386800D01*
X238900Y387600D01*
X239700Y387200D01*
X240500Y387600D01*
X240100Y386800D01*
X240500Y386000D01*
X239700Y386400D01*
X238900Y386000D01*
X238640Y333900D02*
X239040Y334700D01*
X238640Y335500D01*
X239440Y335100D01*
X240240Y335500D01*
X239840Y334700D01*
X240240Y333900D01*
X239440Y334300D01*
X238640Y333900D01*
X239400Y321857D02*
X239800Y322657D01*
X239400Y323457D01*
X240200Y323057D01*
X241000Y323457D01*
X240600Y322657D01*
X241000Y321857D01*
X240200Y322257D01*
X239400Y321857D01*
X238100Y280963D02*
X238500Y281763D01*
X238100Y282563D01*
X238900Y282163D01*
X239700Y282563D01*
X239300Y281763D01*
X239700Y280963D01*
X238900Y281363D01*
X238100Y280963D01*
X238300Y273300D02*
X238700Y274100D01*
X238300Y274900D01*
X239100Y274500D01*
X239900Y274900D01*
X239500Y274100D01*
X239900Y273300D01*
X239100Y273700D01*
X238300Y273300D01*
X306960Y507327D02*
X307360Y508127D01*
X306960Y508927D01*
X307759Y508527D01*
X308559Y508927D01*
X308159Y508127D01*
X308559Y507327D01*
X307759Y507727D01*
X306960Y507327D01*
X309743Y510111D02*
X310143Y510911D01*
X309743Y511711D01*
X310543Y511311D01*
X311343Y511711D01*
X310943Y510911D01*
X311343Y510111D01*
X310543Y510511D01*
X309743Y510111D01*
X307748Y509322D02*
X308148Y510122D01*
X307748Y510922D01*
X308548Y510522D01*
X309348Y510922D01*
X308948Y510122D01*
X309348Y509322D01*
X308548Y509722D01*
X307748Y509322D01*
X310532Y512106D02*
X310932Y512906D01*
X310532Y513705D01*
X311332Y513306D01*
X312132Y513705D01*
X311732Y512906D01*
X312132Y512106D01*
X311332Y512505D01*
X310532Y512106D01*
X140718Y483182D02*
X141118Y483982D01*
X140718Y484782D01*
X141518Y484382D01*
X142318Y484782D01*
X141918Y483982D01*
X142318Y483182D01*
X141518Y483582D01*
X140718Y483182D01*
X140700Y485741D02*
X141100Y486541D01*
X140700Y487341D01*
X141500Y486941D01*
X142300Y487341D01*
X141900Y486541D01*
X142300Y485741D01*
X141500Y486141D01*
X140700Y485741D01*
X182500Y278300D02*
X182900Y279100D01*
X182500Y279900D01*
X183300Y279500D01*
X184100Y279900D01*
X183700Y279100D01*
X184100Y278300D01*
X183300Y278700D01*
X182500Y278300D01*
X182599Y322000D02*
X182999Y322800D01*
X182599Y323600D01*
X183399Y323200D01*
X184199Y323600D01*
X183799Y322800D01*
X184199Y322000D01*
X183399Y322400D01*
X182599Y322000D01*
X182200Y390068D02*
X182600Y390868D01*
X182200Y391668D01*
X183000Y391268D01*
X183800Y391668D01*
X183400Y390868D01*
X183800Y390068D01*
X183000Y390468D01*
X182200Y390068D01*
X182118Y435368D02*
X182518Y436168D01*
X182118Y436968D01*
X182918Y436568D01*
X183718Y436968D01*
X183318Y436168D01*
X183718Y435368D01*
X182918Y435768D01*
X182118Y435368D01*
X183059Y503900D02*
X183459Y504700D01*
X183059Y505500D01*
X183859Y505100D01*
X184659Y505500D01*
X184259Y504700D01*
X184659Y503900D01*
X183859Y504300D01*
X183059Y503900D01*
X182158Y548400D02*
X182558Y549200D01*
X182158Y550000D01*
X182958Y549600D01*
X183758Y550000D01*
X183358Y549200D01*
X183758Y548400D01*
X182958Y548800D01*
X182158Y548400D01*
X182900Y412900D02*
X183300Y413700D01*
X182900Y414500D01*
X183700Y414100D01*
X184500Y414500D01*
X184100Y413700D01*
X184500Y412900D01*
X183700Y413300D01*
X182900Y412900D01*
X183400Y525700D02*
X183800Y526500D01*
X183400Y527300D01*
X184200Y526900D01*
X185000Y527300D01*
X184600Y526500D01*
X185000Y525700D01*
X184200Y526100D01*
X183400Y525700D01*
X184000Y299500D02*
X184400Y300300D01*
X184000Y301100D01*
X184800Y300700D01*
X185600Y301100D01*
X185200Y300300D01*
X185600Y299500D01*
X184800Y299900D01*
X184000Y299500D01*
X207800Y562300D02*
X208200Y563100D01*
X207800Y563900D01*
X208600Y563500D01*
X209400Y563900D01*
X209000Y563100D01*
X209400Y562300D01*
X208600Y562700D01*
X207800Y562300D01*
X209500Y564700D02*
X209900Y565500D01*
X209500Y566300D01*
X210300Y565900D01*
X211100Y566300D01*
X210700Y565500D01*
X211100Y564700D01*
X210300Y565100D01*
X209500Y564700D01*
X216100Y568400D02*
X216500Y569200D01*
X216100Y570000D01*
X216900Y569600D01*
X217700Y570000D01*
X217300Y569200D01*
X217700Y568400D01*
X216900Y568800D01*
X216100Y568400D01*
X168700Y496100D02*
X169100Y496900D01*
X168700Y497700D01*
X169500Y497300D01*
X170300Y497700D01*
X169900Y496900D01*
X170300Y496100D01*
X169500Y496500D01*
X168700Y496100D01*
X231159Y426641D02*
X231559Y427441D01*
X231159Y428241D01*
X231959Y427841D01*
X232759Y428241D01*
X232359Y427441D01*
X232759Y426641D01*
X231959Y427041D01*
X231159Y426641D01*
X211759Y429259D02*
X212159Y430059D01*
X211759Y430859D01*
X212559Y430459D01*
X213359Y430859D01*
X212959Y430059D01*
X213359Y429259D01*
X212559Y429659D01*
X211759Y429259D01*
Y395259D02*
X212159Y396059D01*
X211759Y396859D01*
X212559Y396459D01*
X213359Y396859D01*
X212959Y396059D01*
X213359Y395259D01*
X212559Y395659D01*
X211759Y395259D01*
X231159Y398859D02*
X231559Y399659D01*
X231159Y400459D01*
X231959Y400059D01*
X232759Y400459D01*
X232359Y399659D01*
X232759Y398859D01*
X231959Y399259D01*
X231159Y398859D01*
X212100Y317100D02*
X212500Y317900D01*
X212100Y318700D01*
X212900Y318300D01*
X213700Y318700D01*
X213300Y317900D01*
X213700Y317100D01*
X212900Y317500D01*
X212100Y317100D01*
X230800Y313500D02*
X231200Y314300D01*
X230800Y315100D01*
X231600Y314700D01*
X232400Y315100D01*
X232000Y314300D01*
X232400Y313500D01*
X231600Y313900D01*
X230800Y313500D01*
Y286000D02*
X231200Y286800D01*
X230800Y287600D01*
X231600Y287200D01*
X232400Y287600D01*
X232000Y286800D01*
X232400Y286000D01*
X231600Y286400D01*
X230800Y286000D01*
X212100Y282348D02*
X212500Y283148D01*
X212100Y283948D01*
X212900Y283548D01*
X213700Y283948D01*
X213300Y283148D01*
X213700Y282348D01*
X212900Y282748D01*
X212100Y282348D01*
X230959Y512600D02*
X231359Y513400D01*
X230959Y514200D01*
X231759Y513800D01*
X232559Y514200D01*
X232159Y513400D01*
X232559Y512600D01*
X231759Y513000D01*
X230959Y512600D01*
Y540259D02*
X231359Y541059D01*
X230959Y541859D01*
X231759Y541459D01*
X232559Y541859D01*
X232159Y541059D01*
X232559Y540259D01*
X231759Y540659D01*
X230959Y540259D01*
X212059Y542659D02*
X212459Y543459D01*
X212059Y544259D01*
X212859Y543859D01*
X213659Y544259D01*
X213259Y543459D01*
X213659Y542659D01*
X212859Y543059D01*
X212059Y542659D01*
Y509700D02*
X212459Y510500D01*
X212059Y511300D01*
X212859Y510900D01*
X213659Y511300D01*
X213259Y510500D01*
X213659Y509700D01*
X212859Y510100D01*
X212059Y509700D01*
X167695Y554700D02*
X168095Y555500D01*
X167695Y556300D01*
X168495Y555900D01*
X169295Y556300D01*
X168895Y555500D01*
X169295Y554700D01*
X168495Y555100D01*
X167695Y554700D01*
X168658Y522200D02*
X169058Y523000D01*
X168658Y523800D01*
X169458Y523400D01*
X170258Y523800D01*
X169858Y523000D01*
X170258Y522200D01*
X169458Y522600D01*
X168658Y522200D01*
X169306Y456069D02*
X169706Y456869D01*
X169306Y457669D01*
X170106Y457269D01*
X170906Y457669D01*
X170506Y456869D01*
X170906Y456069D01*
X170106Y456469D01*
X169306Y456069D01*
X169361Y422998D02*
X169761Y423798D01*
X169361Y424598D01*
X170161Y424198D01*
X170961Y424598D01*
X170561Y423798D01*
X170961Y422998D01*
X170161Y423398D01*
X169361Y422998D01*
X169668Y390912D02*
X170068Y391712D01*
X169668Y392512D01*
X170468Y392112D01*
X171268Y392512D01*
X170868Y391712D01*
X171268Y390912D01*
X170468Y391312D01*
X169668Y390912D01*
X169306Y357841D02*
X169705Y358641D01*
X169306Y359441D01*
X170106Y359041D01*
X170905Y359441D01*
X170505Y358641D01*
X170905Y357841D01*
X170106Y358241D01*
X169306Y357841D01*
X170093Y325164D02*
X170493Y325964D01*
X170093Y326764D01*
X170893Y326364D01*
X171693Y326764D01*
X171293Y325964D01*
X171693Y325164D01*
X170893Y325564D01*
X170093Y325164D01*
X169375Y292880D02*
X169774Y293680D01*
X169375Y294480D01*
X170175Y294080D01*
X170975Y294480D01*
X170574Y293680D01*
X170975Y292880D01*
X170175Y293280D01*
X169375Y292880D01*
X169295Y588300D02*
Y587900D01*
X170095D01*
Y588300D01*
X170495D01*
Y589100D01*
X170095D01*
Y589500D01*
X169295D01*
Y589100D01*
X168895D01*
Y588300D01*
X169295D01*
X169895Y260100D02*
X170295Y260900D01*
X169895Y261700D01*
X170695Y261300D01*
X171495Y261700D01*
X171095Y260900D01*
X171495Y260100D01*
X170695Y260500D01*
X169895Y260100D01*
X365162Y491518D02*
X365562Y492318D01*
X365162Y493118D01*
X365962Y492718D01*
X366762Y493118D01*
X366362Y492318D01*
X366762Y491518D01*
X365962Y491918D01*
X365162Y491518D01*
X361962Y493407D02*
X362362Y494207D01*
X361962Y495007D01*
X362762Y494607D01*
X363562Y495007D01*
X363162Y494207D01*
X363562Y493407D01*
X362762Y493807D01*
X361962Y493407D01*
X351062Y407718D02*
X351462Y408518D01*
X351062Y409318D01*
X351862Y408918D01*
X352662Y409318D01*
X352262Y408518D01*
X352662Y407718D01*
X351862Y408118D01*
X351062Y407718D01*
X147900Y116467D02*
X148300Y117267D01*
X147900Y118067D01*
X148700Y117667D01*
X149500Y118067D01*
X149100Y117267D01*
X149500Y116467D01*
X148700Y116867D01*
X147900Y116467D01*
X287162Y433218D02*
X287562D01*
X287962Y433618D01*
X288362Y433218D01*
X288762D01*
Y433618D01*
X288362Y434018D01*
X288762Y434418D01*
Y434818D01*
X288362D01*
X287962Y434418D01*
X287562Y434818D01*
X287162D01*
Y434418D01*
X287562Y434018D01*
X287162Y433618D01*
Y433218D01*
X264287Y411818D02*
X264687D01*
X265087Y412218D01*
X265487Y411818D01*
X265887D01*
Y412218D01*
X265487Y412618D01*
X265887Y413018D01*
Y413418D01*
X265487D01*
X265087Y413018D01*
X264687Y413418D01*
X264287D01*
Y413018D01*
X264687Y412618D01*
X264287Y412218D01*
Y411818D01*
X77100Y204600D02*
Y204200D01*
X77900D01*
Y204600D01*
X78300D01*
Y205400D01*
X77900D01*
Y205800D01*
X77100D01*
Y205400D01*
X76700D01*
Y204600D01*
X77100D01*
X74600Y199600D02*
Y199200D01*
X75400D01*
Y199600D01*
X75800D01*
Y200400D01*
X75400D01*
Y200800D01*
X74600D01*
Y200400D01*
X74200D01*
Y199600D01*
X74600D01*
X77100Y194600D02*
Y194200D01*
X77900D01*
Y194600D01*
X78300D01*
Y195400D01*
X77900D01*
Y195800D01*
X77100D01*
Y195400D01*
X76700D01*
Y194600D01*
X77100D01*
X74600Y189600D02*
Y189200D01*
X75400D01*
Y189600D01*
X75800D01*
Y190400D01*
X75400D01*
Y190800D01*
X74600D01*
Y190400D01*
X74200D01*
Y189600D01*
X74600D01*
X77100Y184600D02*
Y184200D01*
X77900D01*
Y184600D01*
X78300D01*
Y185400D01*
X77900D01*
Y185800D01*
X77100D01*
Y185400D01*
X76700D01*
Y184600D01*
X77100D01*
X74600Y179600D02*
Y179200D01*
X75400D01*
Y179600D01*
X75800D01*
Y180400D01*
X75400D01*
Y180800D01*
X74600D01*
Y180400D01*
X74200D01*
Y179600D01*
X74600D01*
X77100Y174600D02*
Y174200D01*
X77900D01*
Y174600D01*
X78300D01*
Y175400D01*
X77900D01*
Y175800D01*
X77100D01*
Y175400D01*
X76700D01*
Y174600D01*
X77100D01*
X74600Y169600D02*
Y169200D01*
X75400D01*
Y169600D01*
X75800D01*
Y170400D01*
X75400D01*
Y170800D01*
X74600D01*
Y170400D01*
X74200D01*
Y169600D01*
X74600D01*
X77100Y164600D02*
Y164200D01*
X77900D01*
Y164600D01*
X78300D01*
Y165400D01*
X77900D01*
Y165800D01*
X77100D01*
Y165400D01*
X76700D01*
Y164600D01*
X77100D01*
X74600Y159600D02*
Y159200D01*
X75400D01*
Y159600D01*
X75800D01*
Y160400D01*
X75400D01*
Y160800D01*
X74600D01*
Y160400D01*
X74200D01*
Y159600D01*
X74600D01*
X77100Y154600D02*
Y154200D01*
X77900D01*
Y154600D01*
X78300D01*
Y155400D01*
X77900D01*
Y155800D01*
X77100D01*
Y155400D01*
X76700D01*
Y154600D01*
X77100D01*
X74600Y149600D02*
Y149200D01*
X75400D01*
Y149600D01*
X75800D01*
Y150400D01*
X75400D01*
Y150800D01*
X74600D01*
Y150400D01*
X74200D01*
Y149600D01*
X74600D01*
X77100Y144600D02*
Y144200D01*
X77900D01*
Y144600D01*
X78300D01*
Y145400D01*
X77900D01*
Y145800D01*
X77100D01*
Y145400D01*
X76700D01*
Y144600D01*
X77100D01*
X74600Y139600D02*
Y139200D01*
X75400D01*
Y139600D01*
X75800D01*
Y140400D01*
X75400D01*
Y140800D01*
X74600D01*
Y140400D01*
X74200D01*
Y139600D01*
X74600D01*
X77100Y134600D02*
Y134200D01*
X77900D01*
Y134600D01*
X78300D01*
Y135400D01*
X77900D01*
Y135800D01*
X77100D01*
Y135400D01*
X76700D01*
Y134600D01*
X77100D01*
X74600Y129600D02*
Y129200D01*
X75400D01*
Y129600D01*
X75800D01*
Y130400D01*
X75400D01*
Y130800D01*
X74600D01*
Y130400D01*
X74200D01*
Y129600D01*
X74600D01*
X77100Y124600D02*
Y124200D01*
X77900D01*
Y124600D01*
X78300D01*
Y125400D01*
X77900D01*
Y125800D01*
X77100D01*
Y125400D01*
X76700D01*
Y124600D01*
X77100D01*
X74600Y119600D02*
Y119200D01*
X75400D01*
Y119600D01*
X75800D01*
Y120400D01*
X75400D01*
Y120800D01*
X74600D01*
Y120400D01*
X74200D01*
Y119600D01*
X74600D01*
X77100Y114600D02*
Y114200D01*
X77900D01*
Y114600D01*
X78300D01*
Y115400D01*
X77900D01*
Y115800D01*
X77100D01*
Y115400D01*
X76700D01*
Y114600D01*
X77100D01*
X74600Y109600D02*
Y109200D01*
X75400D01*
Y109600D01*
X75800D01*
Y110400D01*
X75400D01*
Y110800D01*
X74600D01*
Y110400D01*
X74200D01*
Y109600D01*
X74600D01*
X72100Y204600D02*
Y204200D01*
X72900D01*
Y204600D01*
X73300D01*
Y205400D01*
X72900D01*
Y205800D01*
X72100D01*
Y205400D01*
X71700D01*
Y204600D01*
X72100D01*
X69600Y199600D02*
Y199200D01*
X70400D01*
Y199600D01*
X70800D01*
Y200400D01*
X70400D01*
Y200800D01*
X69600D01*
Y200400D01*
X69200D01*
Y199600D01*
X69600D01*
X72100Y194600D02*
Y194200D01*
X72900D01*
Y194600D01*
X73300D01*
Y195400D01*
X72900D01*
Y195800D01*
X72100D01*
Y195400D01*
X71700D01*
Y194600D01*
X72100D01*
X69600Y189600D02*
Y189200D01*
X70400D01*
Y189600D01*
X70800D01*
Y190400D01*
X70400D01*
Y190800D01*
X69600D01*
Y190400D01*
X69200D01*
Y189600D01*
X69600D01*
X72100Y184600D02*
Y184200D01*
X72900D01*
Y184600D01*
X73300D01*
Y185400D01*
X72900D01*
Y185800D01*
X72100D01*
Y185400D01*
X71700D01*
Y184600D01*
X72100D01*
X69600Y179600D02*
Y179200D01*
X70400D01*
Y179600D01*
X70800D01*
Y180400D01*
X70400D01*
Y180800D01*
X69600D01*
Y180400D01*
X69200D01*
Y179600D01*
X69600D01*
X72100Y174600D02*
Y174200D01*
X72900D01*
Y174600D01*
X73300D01*
Y175400D01*
X72900D01*
Y175800D01*
X72100D01*
Y175400D01*
X71700D01*
Y174600D01*
X72100D01*
X69600Y169600D02*
Y169200D01*
X70400D01*
Y169600D01*
X70800D01*
Y170400D01*
X70400D01*
Y170800D01*
X69600D01*
Y170400D01*
X69200D01*
Y169600D01*
X69600D01*
X72100Y164600D02*
Y164200D01*
X72900D01*
Y164600D01*
X73300D01*
Y165400D01*
X72900D01*
Y165800D01*
X72100D01*
Y165400D01*
X71700D01*
Y164600D01*
X72100D01*
X69600Y159600D02*
Y159200D01*
X70400D01*
Y159600D01*
X70800D01*
Y160400D01*
X70400D01*
Y160800D01*
X69600D01*
Y160400D01*
X69200D01*
Y159600D01*
X69600D01*
X72100Y154600D02*
Y154200D01*
X72900D01*
Y154600D01*
X73300D01*
Y155400D01*
X72900D01*
Y155800D01*
X72100D01*
Y155400D01*
X71700D01*
Y154600D01*
X72100D01*
X69600Y149600D02*
Y149200D01*
X70400D01*
Y149600D01*
X70800D01*
Y150400D01*
X70400D01*
Y150800D01*
X69600D01*
Y150400D01*
X69200D01*
Y149600D01*
X69600D01*
X72100Y144600D02*
Y144200D01*
X72900D01*
Y144600D01*
X73300D01*
Y145400D01*
X72900D01*
Y145800D01*
X72100D01*
Y145400D01*
X71700D01*
Y144600D01*
X72100D01*
X69600Y139600D02*
Y139200D01*
X70400D01*
Y139600D01*
X70800D01*
Y140400D01*
X70400D01*
Y140800D01*
X69600D01*
Y140400D01*
X69200D01*
Y139600D01*
X69600D01*
X72100Y134600D02*
Y134200D01*
X72900D01*
Y134600D01*
X73300D01*
Y135400D01*
X72900D01*
Y135800D01*
X72100D01*
Y135400D01*
X71700D01*
Y134600D01*
X72100D01*
X69600Y129600D02*
Y129200D01*
X70400D01*
Y129600D01*
X70800D01*
Y130400D01*
X70400D01*
Y130800D01*
X69600D01*
Y130400D01*
X69200D01*
Y129600D01*
X69600D01*
X72100Y124600D02*
Y124200D01*
X72900D01*
Y124600D01*
X73300D01*
Y125400D01*
X72900D01*
Y125800D01*
X72100D01*
Y125400D01*
X71700D01*
Y124600D01*
X72100D01*
X69600Y119600D02*
Y119200D01*
X70400D01*
Y119600D01*
X70800D01*
Y120400D01*
X70400D01*
Y120800D01*
X69600D01*
Y120400D01*
X69200D01*
Y119600D01*
X69600D01*
X72100Y114600D02*
Y114200D01*
X72900D01*
Y114600D01*
X73300D01*
Y115400D01*
X72900D01*
Y115800D01*
X72100D01*
Y115400D01*
X71700D01*
Y114600D01*
X72100D01*
X69600Y109600D02*
Y109200D01*
X70400D01*
Y109600D01*
X70800D01*
Y110400D01*
X70400D01*
Y110800D01*
X69600D01*
Y110400D01*
X69200D01*
Y109600D01*
X69600D01*
X67100Y204600D02*
Y204200D01*
X67900D01*
Y204600D01*
X68300D01*
Y205400D01*
X67900D01*
Y205800D01*
X67100D01*
Y205400D01*
X66700D01*
Y204600D01*
X67100D01*
Y194600D02*
Y194200D01*
X67900D01*
Y194600D01*
X68300D01*
Y195400D01*
X67900D01*
Y195800D01*
X67100D01*
Y195400D01*
X66700D01*
Y194600D01*
X67100D01*
Y184600D02*
Y184200D01*
X67900D01*
Y184600D01*
X68300D01*
Y185400D01*
X67900D01*
Y185800D01*
X67100D01*
Y185400D01*
X66700D01*
Y184600D01*
X67100D01*
Y174600D02*
Y174200D01*
X67900D01*
Y174600D01*
X68300D01*
Y175400D01*
X67900D01*
Y175800D01*
X67100D01*
Y175400D01*
X66700D01*
Y174600D01*
X67100D01*
Y164600D02*
Y164200D01*
X67900D01*
Y164600D01*
X68300D01*
Y165400D01*
X67900D01*
Y165800D01*
X67100D01*
Y165400D01*
X66700D01*
Y164600D01*
X67100D01*
Y154600D02*
Y154200D01*
X67900D01*
Y154600D01*
X68300D01*
Y155400D01*
X67900D01*
Y155800D01*
X67100D01*
Y155400D01*
X66700D01*
Y154600D01*
X67100D01*
Y144600D02*
Y144200D01*
X67900D01*
Y144600D01*
X68300D01*
Y145400D01*
X67900D01*
Y145800D01*
X67100D01*
Y145400D01*
X66700D01*
Y144600D01*
X67100D01*
Y134600D02*
Y134200D01*
X67900D01*
Y134600D01*
X68300D01*
Y135400D01*
X67900D01*
Y135800D01*
X67100D01*
Y135400D01*
X66700D01*
Y134600D01*
X67100D01*
Y124600D02*
Y124200D01*
X67900D01*
Y124600D01*
X68300D01*
Y125400D01*
X67900D01*
Y125800D01*
X67100D01*
Y125400D01*
X66700D01*
Y124600D01*
X67100D01*
Y114600D02*
Y114200D01*
X67900D01*
Y114600D01*
X68300D01*
Y115400D01*
X67900D01*
Y115800D01*
X67100D01*
Y115400D01*
X66700D01*
Y114600D01*
X67100D01*
X77100Y709600D02*
Y709200D01*
X77900D01*
Y709600D01*
X78300D01*
Y710400D01*
X77900D01*
Y710800D01*
X77100D01*
Y710400D01*
X76700D01*
Y709600D01*
X77100D01*
X74600Y704600D02*
Y704200D01*
X75400D01*
Y704600D01*
X75800D01*
Y705400D01*
X75400D01*
Y705800D01*
X74600D01*
Y705400D01*
X74200D01*
Y704600D01*
X74600D01*
X77100Y699600D02*
Y699200D01*
X77900D01*
Y699600D01*
X78300D01*
Y700400D01*
X77900D01*
Y700800D01*
X77100D01*
Y700400D01*
X76700D01*
Y699600D01*
X77100D01*
X74600Y694600D02*
Y694200D01*
X75400D01*
Y694600D01*
X75800D01*
Y695400D01*
X75400D01*
Y695800D01*
X74600D01*
Y695400D01*
X74200D01*
Y694600D01*
X74600D01*
X77100Y689600D02*
Y689200D01*
X77900D01*
Y689600D01*
X78300D01*
Y690400D01*
X77900D01*
Y690800D01*
X77100D01*
Y690400D01*
X76700D01*
Y689600D01*
X77100D01*
X74600Y684600D02*
Y684200D01*
X75400D01*
Y684600D01*
X75800D01*
Y685400D01*
X75400D01*
Y685800D01*
X74600D01*
Y685400D01*
X74200D01*
Y684600D01*
X74600D01*
X77100Y679600D02*
Y679200D01*
X77900D01*
Y679600D01*
X78300D01*
Y680400D01*
X77900D01*
Y680800D01*
X77100D01*
Y680400D01*
X76700D01*
Y679600D01*
X77100D01*
X74600Y674600D02*
Y674200D01*
X75400D01*
Y674600D01*
X75800D01*
Y675400D01*
X75400D01*
Y675800D01*
X74600D01*
Y675400D01*
X74200D01*
Y674600D01*
X74600D01*
X77100Y669600D02*
Y669200D01*
X77900D01*
Y669600D01*
X78300D01*
Y670400D01*
X77900D01*
Y670800D01*
X77100D01*
Y670400D01*
X76700D01*
Y669600D01*
X77100D01*
X74600Y664600D02*
Y664200D01*
X75400D01*
Y664600D01*
X75800D01*
Y665400D01*
X75400D01*
Y665800D01*
X74600D01*
Y665400D01*
X74200D01*
Y664600D01*
X74600D01*
X77100Y659600D02*
Y659200D01*
X77900D01*
Y659600D01*
X78300D01*
Y660400D01*
X77900D01*
Y660800D01*
X77100D01*
Y660400D01*
X76700D01*
Y659600D01*
X77100D01*
X74600Y654600D02*
Y654200D01*
X75400D01*
Y654600D01*
X75800D01*
Y655400D01*
X75400D01*
Y655800D01*
X74600D01*
Y655400D01*
X74200D01*
Y654600D01*
X74600D01*
X77100Y649600D02*
Y649200D01*
X77900D01*
Y649600D01*
X78300D01*
Y650400D01*
X77900D01*
Y650800D01*
X77100D01*
Y650400D01*
X76700D01*
Y649600D01*
X77100D01*
X74600Y644600D02*
Y644200D01*
X75400D01*
Y644600D01*
X75800D01*
Y645400D01*
X75400D01*
Y645800D01*
X74600D01*
Y645400D01*
X74200D01*
Y644600D01*
X74600D01*
X77100Y639600D02*
Y639200D01*
X77900D01*
Y639600D01*
X78300D01*
Y640400D01*
X77900D01*
Y640800D01*
X77100D01*
Y640400D01*
X76700D01*
Y639600D01*
X77100D01*
X74600Y634600D02*
Y634200D01*
X75400D01*
Y634600D01*
X75800D01*
Y635400D01*
X75400D01*
Y635800D01*
X74600D01*
Y635400D01*
X74200D01*
Y634600D01*
X74600D01*
X77100Y629600D02*
Y629200D01*
X77900D01*
Y629600D01*
X78300D01*
Y630400D01*
X77900D01*
Y630800D01*
X77100D01*
Y630400D01*
X76700D01*
Y629600D01*
X77100D01*
X74600Y624600D02*
Y624200D01*
X75400D01*
Y624600D01*
X75800D01*
Y625400D01*
X75400D01*
Y625800D01*
X74600D01*
Y625400D01*
X74200D01*
Y624600D01*
X74600D01*
X77100Y619600D02*
Y619200D01*
X77900D01*
Y619600D01*
X78300D01*
Y620400D01*
X77900D01*
Y620800D01*
X77100D01*
Y620400D01*
X76700D01*
Y619600D01*
X77100D01*
X74600Y614600D02*
Y614200D01*
X75400D01*
Y614600D01*
X75800D01*
Y615400D01*
X75400D01*
Y615800D01*
X74600D01*
Y615400D01*
X74200D01*
Y614600D01*
X74600D01*
X72100Y709600D02*
Y709200D01*
X72900D01*
Y709600D01*
X73300D01*
Y710400D01*
X72900D01*
Y710800D01*
X72100D01*
Y710400D01*
X71700D01*
Y709600D01*
X72100D01*
X69600Y704600D02*
Y704200D01*
X70400D01*
Y704600D01*
X70800D01*
Y705400D01*
X70400D01*
Y705800D01*
X69600D01*
Y705400D01*
X69200D01*
Y704600D01*
X69600D01*
X72100Y699600D02*
Y699200D01*
X72900D01*
Y699600D01*
X73300D01*
Y700400D01*
X72900D01*
Y700800D01*
X72100D01*
Y700400D01*
X71700D01*
Y699600D01*
X72100D01*
X69600Y694600D02*
Y694200D01*
X70400D01*
Y694600D01*
X70800D01*
Y695400D01*
X70400D01*
Y695800D01*
X69600D01*
Y695400D01*
X69200D01*
Y694600D01*
X69600D01*
X72100Y689600D02*
Y689200D01*
X72900D01*
Y689600D01*
X73300D01*
Y690400D01*
X72900D01*
Y690800D01*
X72100D01*
Y690400D01*
X71700D01*
Y689600D01*
X72100D01*
X69600Y684600D02*
Y684200D01*
X70400D01*
Y684600D01*
X70800D01*
Y685400D01*
X70400D01*
Y685800D01*
X69600D01*
Y685400D01*
X69200D01*
Y684600D01*
X69600D01*
X72100Y679600D02*
Y679200D01*
X72900D01*
Y679600D01*
X73300D01*
Y680400D01*
X72900D01*
Y680800D01*
X72100D01*
Y680400D01*
X71700D01*
Y679600D01*
X72100D01*
X69600Y674600D02*
Y674200D01*
X70400D01*
Y674600D01*
X70800D01*
Y675400D01*
X70400D01*
Y675800D01*
X69600D01*
Y675400D01*
X69200D01*
Y674600D01*
X69600D01*
X72100Y669600D02*
Y669200D01*
X72900D01*
Y669600D01*
X73300D01*
Y670400D01*
X72900D01*
Y670800D01*
X72100D01*
Y670400D01*
X71700D01*
Y669600D01*
X72100D01*
X69600Y664600D02*
Y664200D01*
X70400D01*
Y664600D01*
X70800D01*
Y665400D01*
X70400D01*
Y665800D01*
X69600D01*
Y665400D01*
X69200D01*
Y664600D01*
X69600D01*
X72100Y659600D02*
Y659200D01*
X72900D01*
Y659600D01*
X73300D01*
Y660400D01*
X72900D01*
Y660800D01*
X72100D01*
Y660400D01*
X71700D01*
Y659600D01*
X72100D01*
X69600Y654600D02*
Y654200D01*
X70400D01*
Y654600D01*
X70800D01*
Y655400D01*
X70400D01*
Y655800D01*
X69600D01*
Y655400D01*
X69200D01*
Y654600D01*
X69600D01*
X72100Y649600D02*
Y649200D01*
X72900D01*
Y649600D01*
X73300D01*
Y650400D01*
X72900D01*
Y650800D01*
X72100D01*
Y650400D01*
X71700D01*
Y649600D01*
X72100D01*
X69600Y644600D02*
Y644200D01*
X70400D01*
Y644600D01*
X70800D01*
Y645400D01*
X70400D01*
Y645800D01*
X69600D01*
Y645400D01*
X69200D01*
Y644600D01*
X69600D01*
X72100Y639600D02*
Y639200D01*
X72900D01*
Y639600D01*
X73300D01*
Y640400D01*
X72900D01*
Y640800D01*
X72100D01*
Y640400D01*
X71700D01*
Y639600D01*
X72100D01*
X69600Y634600D02*
Y634200D01*
X70400D01*
Y634600D01*
X70800D01*
Y635400D01*
X70400D01*
Y635800D01*
X69600D01*
Y635400D01*
X69200D01*
Y634600D01*
X69600D01*
X72100Y629600D02*
Y629200D01*
X72900D01*
Y629600D01*
X73300D01*
Y630400D01*
X72900D01*
Y630800D01*
X72100D01*
Y630400D01*
X71700D01*
Y629600D01*
X72100D01*
X69600Y624600D02*
Y624200D01*
X70400D01*
Y624600D01*
X70800D01*
Y625400D01*
X70400D01*
Y625800D01*
X69600D01*
Y625400D01*
X69200D01*
Y624600D01*
X69600D01*
X72100Y619600D02*
Y619200D01*
X72900D01*
Y619600D01*
X73300D01*
Y620400D01*
X72900D01*
Y620800D01*
X72100D01*
Y620400D01*
X71700D01*
Y619600D01*
X72100D01*
X69600Y614600D02*
Y614200D01*
X70400D01*
Y614600D01*
X70800D01*
Y615400D01*
X70400D01*
Y615800D01*
X69600D01*
Y615400D01*
X69200D01*
Y614600D01*
X69600D01*
X67100Y709600D02*
Y709200D01*
X67900D01*
Y709600D01*
X68300D01*
Y710400D01*
X67900D01*
Y710800D01*
X67100D01*
Y710400D01*
X66700D01*
Y709600D01*
X67100D01*
Y699600D02*
Y699200D01*
X67900D01*
Y699600D01*
X68300D01*
Y700400D01*
X67900D01*
Y700800D01*
X67100D01*
Y700400D01*
X66700D01*
Y699600D01*
X67100D01*
Y689600D02*
Y689200D01*
X67900D01*
Y689600D01*
X68300D01*
Y690400D01*
X67900D01*
Y690800D01*
X67100D01*
Y690400D01*
X66700D01*
Y689600D01*
X67100D01*
Y679600D02*
Y679200D01*
X67900D01*
Y679600D01*
X68300D01*
Y680400D01*
X67900D01*
Y680800D01*
X67100D01*
Y680400D01*
X66700D01*
Y679600D01*
X67100D01*
Y669600D02*
Y669200D01*
X67900D01*
Y669600D01*
X68300D01*
Y670400D01*
X67900D01*
Y670800D01*
X67100D01*
Y670400D01*
X66700D01*
Y669600D01*
X67100D01*
Y659600D02*
Y659200D01*
X67900D01*
Y659600D01*
X68300D01*
Y660400D01*
X67900D01*
Y660800D01*
X67100D01*
Y660400D01*
X66700D01*
Y659600D01*
X67100D01*
Y649600D02*
Y649200D01*
X67900D01*
Y649600D01*
X68300D01*
Y650400D01*
X67900D01*
Y650800D01*
X67100D01*
Y650400D01*
X66700D01*
Y649600D01*
X67100D01*
Y639600D02*
Y639200D01*
X67900D01*
Y639600D01*
X68300D01*
Y640400D01*
X67900D01*
Y640800D01*
X67100D01*
Y640400D01*
X66700D01*
Y639600D01*
X67100D01*
Y629600D02*
Y629200D01*
X67900D01*
Y629600D01*
X68300D01*
Y630400D01*
X67900D01*
Y630800D01*
X67100D01*
Y630400D01*
X66700D01*
Y629600D01*
X67100D01*
Y619600D02*
Y619200D01*
X67900D01*
Y619600D01*
X68300D01*
Y620400D01*
X67900D01*
Y620800D01*
X67100D01*
Y620400D01*
X66700D01*
Y619600D01*
X67100D01*
X74600Y364600D02*
Y364200D01*
X75400D01*
Y364600D01*
X75800D01*
Y365400D01*
X75400D01*
Y365800D01*
X74600D01*
Y365400D01*
X74200D01*
Y364600D01*
X74600D01*
X77100Y359600D02*
Y359200D01*
X77900D01*
Y359600D01*
X78300D01*
Y360400D01*
X77900D01*
Y360800D01*
X77100D01*
Y360400D01*
X76700D01*
Y359600D01*
X77100D01*
X74600Y354600D02*
Y354200D01*
X75400D01*
Y354600D01*
X75800D01*
Y355400D01*
X75400D01*
Y355800D01*
X74600D01*
Y355400D01*
X74200D01*
Y354600D01*
X74600D01*
X77100Y349600D02*
Y349200D01*
X77900D01*
Y349600D01*
X78300D01*
Y350400D01*
X77900D01*
Y350800D01*
X77100D01*
Y350400D01*
X76700D01*
Y349600D01*
X77100D01*
X74600Y344600D02*
Y344200D01*
X75400D01*
Y344600D01*
X75800D01*
Y345400D01*
X75400D01*
Y345800D01*
X74600D01*
Y345400D01*
X74200D01*
Y344600D01*
X74600D01*
X77100Y339600D02*
Y339200D01*
X77900D01*
Y339600D01*
X78300D01*
Y340400D01*
X77900D01*
Y340800D01*
X77100D01*
Y340400D01*
X76700D01*
Y339600D01*
X77100D01*
X74600Y334600D02*
Y334200D01*
X75400D01*
Y334600D01*
X75800D01*
Y335400D01*
X75400D01*
Y335800D01*
X74600D01*
Y335400D01*
X74200D01*
Y334600D01*
X74600D01*
X77100Y329600D02*
Y329200D01*
X77900D01*
Y329600D01*
X78300D01*
Y330400D01*
X77900D01*
Y330800D01*
X77100D01*
Y330400D01*
X76700D01*
Y329600D01*
X77100D01*
X74600Y324600D02*
Y324200D01*
X75400D01*
Y324600D01*
X75800D01*
Y325400D01*
X75400D01*
Y325800D01*
X74600D01*
Y325400D01*
X74200D01*
Y324600D01*
X74600D01*
X77100Y319600D02*
Y319200D01*
X77900D01*
Y319600D01*
X78300D01*
Y320400D01*
X77900D01*
Y320800D01*
X77100D01*
Y320400D01*
X76700D01*
Y319600D01*
X77100D01*
X74600Y314600D02*
Y314200D01*
X75400D01*
Y314600D01*
X75800D01*
Y315400D01*
X75400D01*
Y315800D01*
X74600D01*
Y315400D01*
X74200D01*
Y314600D01*
X74600D01*
X77100Y309600D02*
Y309200D01*
X77900D01*
Y309600D01*
X78300D01*
Y310400D01*
X77900D01*
Y310800D01*
X77100D01*
Y310400D01*
X76700D01*
Y309600D01*
X77100D01*
X74600Y304600D02*
Y304200D01*
X75400D01*
Y304600D01*
X75800D01*
Y305400D01*
X75400D01*
Y305800D01*
X74600D01*
Y305400D01*
X74200D01*
Y304600D01*
X74600D01*
X77100Y299600D02*
Y299200D01*
X77900D01*
Y299600D01*
X78300D01*
Y300400D01*
X77900D01*
Y300800D01*
X77100D01*
Y300400D01*
X76700D01*
Y299600D01*
X77100D01*
X74600Y294600D02*
Y294200D01*
X75400D01*
Y294600D01*
X75800D01*
Y295400D01*
X75400D01*
Y295800D01*
X74600D01*
Y295400D01*
X74200D01*
Y294600D01*
X74600D01*
X77100Y289600D02*
Y289200D01*
X77900D01*
Y289600D01*
X78300D01*
Y290400D01*
X77900D01*
Y290800D01*
X77100D01*
Y290400D01*
X76700D01*
Y289600D01*
X77100D01*
X74600Y284600D02*
Y284200D01*
X75400D01*
Y284600D01*
X75800D01*
Y285400D01*
X75400D01*
Y285800D01*
X74600D01*
Y285400D01*
X74200D01*
Y284600D01*
X74600D01*
X69600Y364600D02*
Y364200D01*
X70400D01*
Y364600D01*
X70800D01*
Y365400D01*
X70400D01*
Y365800D01*
X69600D01*
Y365400D01*
X69200D01*
Y364600D01*
X69600D01*
X72100Y359600D02*
Y359200D01*
X72900D01*
Y359600D01*
X73300D01*
Y360400D01*
X72900D01*
Y360800D01*
X72100D01*
Y360400D01*
X71700D01*
Y359600D01*
X72100D01*
X69600Y354600D02*
Y354200D01*
X70400D01*
Y354600D01*
X70800D01*
Y355400D01*
X70400D01*
Y355800D01*
X69600D01*
Y355400D01*
X69200D01*
Y354600D01*
X69600D01*
X72100Y349600D02*
Y349200D01*
X72900D01*
Y349600D01*
X73300D01*
Y350400D01*
X72900D01*
Y350800D01*
X72100D01*
Y350400D01*
X71700D01*
Y349600D01*
X72100D01*
X69600Y344600D02*
Y344200D01*
X70400D01*
Y344600D01*
X70800D01*
Y345400D01*
X70400D01*
Y345800D01*
X69600D01*
Y345400D01*
X69200D01*
Y344600D01*
X69600D01*
X72100Y339600D02*
Y339200D01*
X72900D01*
Y339600D01*
X73300D01*
Y340400D01*
X72900D01*
Y340800D01*
X72100D01*
Y340400D01*
X71700D01*
Y339600D01*
X72100D01*
X69600Y334600D02*
Y334200D01*
X70400D01*
Y334600D01*
X70800D01*
Y335400D01*
X70400D01*
Y335800D01*
X69600D01*
Y335400D01*
X69200D01*
Y334600D01*
X69600D01*
X72100Y329600D02*
Y329200D01*
X72900D01*
Y329600D01*
X73300D01*
Y330400D01*
X72900D01*
Y330800D01*
X72100D01*
Y330400D01*
X71700D01*
Y329600D01*
X72100D01*
X69600Y324600D02*
Y324200D01*
X70400D01*
Y324600D01*
X70800D01*
Y325400D01*
X70400D01*
Y325800D01*
X69600D01*
Y325400D01*
X69200D01*
Y324600D01*
X69600D01*
X72100Y319600D02*
Y319200D01*
X72900D01*
Y319600D01*
X73300D01*
Y320400D01*
X72900D01*
Y320800D01*
X72100D01*
Y320400D01*
X71700D01*
Y319600D01*
X72100D01*
X69600Y314600D02*
Y314200D01*
X70400D01*
Y314600D01*
X70800D01*
Y315400D01*
X70400D01*
Y315800D01*
X69600D01*
Y315400D01*
X69200D01*
Y314600D01*
X69600D01*
X72100Y309600D02*
Y309200D01*
X72900D01*
Y309600D01*
X73300D01*
Y310400D01*
X72900D01*
Y310800D01*
X72100D01*
Y310400D01*
X71700D01*
Y309600D01*
X72100D01*
X69600Y304600D02*
Y304200D01*
X70400D01*
Y304600D01*
X70800D01*
Y305400D01*
X70400D01*
Y305800D01*
X69600D01*
Y305400D01*
X69200D01*
Y304600D01*
X69600D01*
X72100Y299600D02*
Y299200D01*
X72900D01*
Y299600D01*
X73300D01*
Y300400D01*
X72900D01*
Y300800D01*
X72100D01*
Y300400D01*
X71700D01*
Y299600D01*
X72100D01*
X69600Y294600D02*
Y294200D01*
X70400D01*
Y294600D01*
X70800D01*
Y295400D01*
X70400D01*
Y295800D01*
X69600D01*
Y295400D01*
X69200D01*
Y294600D01*
X69600D01*
X72100Y289600D02*
Y289200D01*
X72900D01*
Y289600D01*
X73300D01*
Y290400D01*
X72900D01*
Y290800D01*
X72100D01*
Y290400D01*
X71700D01*
Y289600D01*
X72100D01*
X69600Y284600D02*
Y284200D01*
X70400D01*
Y284600D01*
X70800D01*
Y285400D01*
X70400D01*
Y285800D01*
X69600D01*
Y285400D01*
X69200D01*
Y284600D01*
X69600D01*
X67100Y359600D02*
Y359200D01*
X67900D01*
Y359600D01*
X68300D01*
Y360400D01*
X67900D01*
Y360800D01*
X67100D01*
Y360400D01*
X66700D01*
Y359600D01*
X67100D01*
Y349600D02*
Y349200D01*
X67900D01*
Y349600D01*
X68300D01*
Y350400D01*
X67900D01*
Y350800D01*
X67100D01*
Y350400D01*
X66700D01*
Y349600D01*
X67100D01*
Y339600D02*
Y339200D01*
X67900D01*
Y339600D01*
X68300D01*
Y340400D01*
X67900D01*
Y340800D01*
X67100D01*
Y340400D01*
X66700D01*
Y339600D01*
X67100D01*
Y329600D02*
Y329200D01*
X67900D01*
Y329600D01*
X68300D01*
Y330400D01*
X67900D01*
Y330800D01*
X67100D01*
Y330400D01*
X66700D01*
Y329600D01*
X67100D01*
Y319600D02*
Y319200D01*
X67900D01*
Y319600D01*
X68300D01*
Y320400D01*
X67900D01*
Y320800D01*
X67100D01*
Y320400D01*
X66700D01*
Y319600D01*
X67100D01*
Y309600D02*
Y309200D01*
X67900D01*
Y309600D01*
X68300D01*
Y310400D01*
X67900D01*
Y310800D01*
X67100D01*
Y310400D01*
X66700D01*
Y309600D01*
X67100D01*
Y299600D02*
Y299200D01*
X67900D01*
Y299600D01*
X68300D01*
Y300400D01*
X67900D01*
Y300800D01*
X67100D01*
Y300400D01*
X66700D01*
Y299600D01*
X67100D01*
Y289600D02*
Y289200D01*
X67900D01*
Y289600D01*
X68300D01*
Y290400D01*
X67900D01*
Y290800D01*
X67100D01*
Y290400D01*
X66700D01*
Y289600D01*
X67100D01*
X74600Y534600D02*
Y534200D01*
X75400D01*
Y534600D01*
X75800D01*
Y535400D01*
X75400D01*
Y535800D01*
X74600D01*
Y535400D01*
X74200D01*
Y534600D01*
X74600D01*
Y524600D02*
Y524200D01*
X75400D01*
Y524600D01*
X75800D01*
Y525400D01*
X75400D01*
Y525800D01*
X74600D01*
Y525400D01*
X74200D01*
Y524600D01*
X74600D01*
X77100Y519600D02*
Y519200D01*
X77900D01*
Y519600D01*
X78300D01*
Y520400D01*
X77900D01*
Y520800D01*
X77100D01*
Y520400D01*
X76700D01*
Y519600D01*
X77100D01*
X74600Y514600D02*
Y514200D01*
X75400D01*
Y514600D01*
X75800D01*
Y515400D01*
X75400D01*
Y515800D01*
X74600D01*
Y515400D01*
X74200D01*
Y514600D01*
X74600D01*
X77100Y509600D02*
Y509200D01*
X77900D01*
Y509600D01*
X78300D01*
Y510400D01*
X77900D01*
Y510800D01*
X77100D01*
Y510400D01*
X76700D01*
Y509600D01*
X77100D01*
X74600Y504600D02*
Y504200D01*
X75400D01*
Y504600D01*
X75800D01*
Y505400D01*
X75400D01*
Y505800D01*
X74600D01*
Y505400D01*
X74200D01*
Y504600D01*
X74600D01*
X77100Y499600D02*
Y499200D01*
X77900D01*
Y499600D01*
X78300D01*
Y500400D01*
X77900D01*
Y500800D01*
X77100D01*
Y500400D01*
X76700D01*
Y499600D01*
X77100D01*
X74600Y494600D02*
Y494200D01*
X75400D01*
Y494600D01*
X75800D01*
Y495400D01*
X75400D01*
Y495800D01*
X74600D01*
Y495400D01*
X74200D01*
Y494600D01*
X74600D01*
X77100Y489600D02*
Y489200D01*
X77900D01*
Y489600D01*
X78300D01*
Y490400D01*
X77900D01*
Y490800D01*
X77100D01*
Y490400D01*
X76700D01*
Y489600D01*
X77100D01*
X74600Y484600D02*
Y484200D01*
X75400D01*
Y484600D01*
X75800D01*
Y485400D01*
X75400D01*
Y485800D01*
X74600D01*
Y485400D01*
X74200D01*
Y484600D01*
X74600D01*
X77100Y479600D02*
Y479200D01*
X77900D01*
Y479600D01*
X78300D01*
Y480400D01*
X77900D01*
Y480800D01*
X77100D01*
Y480400D01*
X76700D01*
Y479600D01*
X77100D01*
X74600Y474600D02*
Y474200D01*
X75400D01*
Y474600D01*
X75800D01*
Y475400D01*
X75400D01*
Y475800D01*
X74600D01*
Y475400D01*
X74200D01*
Y474600D01*
X74600D01*
X77100Y469600D02*
Y469200D01*
X77900D01*
Y469600D01*
X78300D01*
Y470400D01*
X77900D01*
Y470800D01*
X77100D01*
Y470400D01*
X76700D01*
Y469600D01*
X77100D01*
X74600Y464600D02*
Y464200D01*
X75400D01*
Y464600D01*
X75800D01*
Y465400D01*
X75400D01*
Y465800D01*
X74600D01*
Y465400D01*
X74200D01*
Y464600D01*
X74600D01*
X77100Y459600D02*
Y459200D01*
X77900D01*
Y459600D01*
X78300D01*
Y460400D01*
X77900D01*
Y460800D01*
X77100D01*
Y460400D01*
X76700D01*
Y459600D01*
X77100D01*
X74600Y454600D02*
Y454200D01*
X75400D01*
Y454600D01*
X75800D01*
Y455400D01*
X75400D01*
Y455800D01*
X74600D01*
Y455400D01*
X74200D01*
Y454600D01*
X74600D01*
X69600Y534600D02*
Y534200D01*
X70400D01*
Y534600D01*
X70800D01*
Y535400D01*
X70400D01*
Y535800D01*
X69600D01*
Y535400D01*
X69200D01*
Y534600D01*
X69600D01*
X72100Y529600D02*
Y529200D01*
X72900D01*
Y529600D01*
X73300D01*
Y530400D01*
X72900D01*
Y530800D01*
X72100D01*
Y530400D01*
X71700D01*
Y529600D01*
X72100D01*
X69600Y524600D02*
Y524200D01*
X70400D01*
Y524600D01*
X70800D01*
Y525400D01*
X70400D01*
Y525800D01*
X69600D01*
Y525400D01*
X69200D01*
Y524600D01*
X69600D01*
X72100Y519600D02*
Y519200D01*
X72900D01*
Y519600D01*
X73300D01*
Y520400D01*
X72900D01*
Y520800D01*
X72100D01*
Y520400D01*
X71700D01*
Y519600D01*
X72100D01*
X69600Y514600D02*
Y514200D01*
X70400D01*
Y514600D01*
X70800D01*
Y515400D01*
X70400D01*
Y515800D01*
X69600D01*
Y515400D01*
X69200D01*
Y514600D01*
X69600D01*
X72100Y509600D02*
Y509200D01*
X72900D01*
Y509600D01*
X73300D01*
Y510400D01*
X72900D01*
Y510800D01*
X72100D01*
Y510400D01*
X71700D01*
Y509600D01*
X72100D01*
X69600Y504600D02*
Y504200D01*
X70400D01*
Y504600D01*
X70800D01*
Y505400D01*
X70400D01*
Y505800D01*
X69600D01*
Y505400D01*
X69200D01*
Y504600D01*
X69600D01*
X72100Y499600D02*
Y499200D01*
X72900D01*
Y499600D01*
X73300D01*
Y500400D01*
X72900D01*
Y500800D01*
X72100D01*
Y500400D01*
X71700D01*
Y499600D01*
X72100D01*
X69600Y494600D02*
Y494200D01*
X70400D01*
Y494600D01*
X70800D01*
Y495400D01*
X70400D01*
Y495800D01*
X69600D01*
Y495400D01*
X69200D01*
Y494600D01*
X69600D01*
X72100Y489600D02*
Y489200D01*
X72900D01*
Y489600D01*
X73300D01*
Y490400D01*
X72900D01*
Y490800D01*
X72100D01*
Y490400D01*
X71700D01*
Y489600D01*
X72100D01*
X69600Y484600D02*
Y484200D01*
X70400D01*
Y484600D01*
X70800D01*
Y485400D01*
X70400D01*
Y485800D01*
X69600D01*
Y485400D01*
X69200D01*
Y484600D01*
X69600D01*
X72100Y479600D02*
Y479200D01*
X72900D01*
Y479600D01*
X73300D01*
Y480400D01*
X72900D01*
Y480800D01*
X72100D01*
Y480400D01*
X71700D01*
Y479600D01*
X72100D01*
X69600Y474600D02*
Y474200D01*
X70400D01*
Y474600D01*
X70800D01*
Y475400D01*
X70400D01*
Y475800D01*
X69600D01*
Y475400D01*
X69200D01*
Y474600D01*
X69600D01*
X72100Y469600D02*
Y469200D01*
X72900D01*
Y469600D01*
X73300D01*
Y470400D01*
X72900D01*
Y470800D01*
X72100D01*
Y470400D01*
X71700D01*
Y469600D01*
X72100D01*
X69600Y464600D02*
Y464200D01*
X70400D01*
Y464600D01*
X70800D01*
Y465400D01*
X70400D01*
Y465800D01*
X69600D01*
Y465400D01*
X69200D01*
Y464600D01*
X69600D01*
X72100Y459600D02*
Y459200D01*
X72900D01*
Y459600D01*
X73300D01*
Y460400D01*
X72900D01*
Y460800D01*
X72100D01*
Y460400D01*
X71700D01*
Y459600D01*
X72100D01*
X69600Y454600D02*
Y454200D01*
X70400D01*
Y454600D01*
X70800D01*
Y455400D01*
X70400D01*
Y455800D01*
X69600D01*
Y455400D01*
X69200D01*
Y454600D01*
X69600D01*
X67100Y529600D02*
Y529200D01*
X67900D01*
Y529600D01*
X68300D01*
Y530400D01*
X67900D01*
Y530800D01*
X67100D01*
Y530400D01*
X66700D01*
Y529600D01*
X67100D01*
Y519600D02*
Y519200D01*
X67900D01*
Y519600D01*
X68300D01*
Y520400D01*
X67900D01*
Y520800D01*
X67100D01*
Y520400D01*
X66700D01*
Y519600D01*
X67100D01*
Y509600D02*
Y509200D01*
X67900D01*
Y509600D01*
X68300D01*
Y510400D01*
X67900D01*
Y510800D01*
X67100D01*
Y510400D01*
X66700D01*
Y509600D01*
X67100D01*
Y499600D02*
Y499200D01*
X67900D01*
Y499600D01*
X68300D01*
Y500400D01*
X67900D01*
Y500800D01*
X67100D01*
Y500400D01*
X66700D01*
Y499600D01*
X67100D01*
Y489600D02*
Y489200D01*
X67900D01*
Y489600D01*
X68300D01*
Y490400D01*
X67900D01*
Y490800D01*
X67100D01*
Y490400D01*
X66700D01*
Y489600D01*
X67100D01*
Y479600D02*
Y479200D01*
X67900D01*
Y479600D01*
X68300D01*
Y480400D01*
X67900D01*
Y480800D01*
X67100D01*
Y480400D01*
X66700D01*
Y479600D01*
X67100D01*
Y469600D02*
Y469200D01*
X67900D01*
Y469600D01*
X68300D01*
Y470400D01*
X67900D01*
Y470800D01*
X67100D01*
Y470400D01*
X66700D01*
Y469600D01*
X67100D01*
Y459600D02*
Y459200D01*
X67900D01*
Y459600D01*
X68300D01*
Y460400D01*
X67900D01*
Y460800D01*
X67100D01*
Y460400D01*
X66700D01*
Y459600D01*
X67100D01*
X318212Y448268D02*
X318612Y449068D01*
X318212Y449868D01*
X319012Y449468D01*
X319812Y449868D01*
X319412Y449068D01*
X319812Y448268D01*
X319012Y448668D01*
X318212Y448268D01*
X320462Y450718D02*
X320862Y451518D01*
X320462Y452318D01*
X321262Y451918D01*
X322062Y452318D01*
X321662Y451518D01*
X322062Y450718D01*
X321262Y451118D01*
X320462Y450718D01*
X316362Y439918D02*
X316762Y440718D01*
X316362Y441518D01*
X317162Y441118D01*
X317962Y441518D01*
X317562Y440718D01*
X317962Y439918D01*
X317162Y440318D01*
X316362Y439918D01*
X301012Y503668D02*
X301412Y504468D01*
X301012Y505268D01*
X301812Y504868D01*
X302612Y505268D01*
X302212Y504468D01*
X302612Y503668D01*
X301812Y504068D01*
X301012Y503668D01*
X306907Y491018D02*
X307307Y491818D01*
X306907Y492618D01*
X307707Y492218D01*
X308507Y492618D01*
X308107Y491818D01*
X308507Y491018D01*
X307707Y491418D01*
X306907Y491018D01*
X140700Y488300D02*
X141100Y489100D01*
X140700Y489900D01*
X141500Y489500D01*
X142300Y489900D01*
X141900Y489100D01*
X142300Y488300D01*
X141500Y488700D01*
X140700Y488300D01*
X312062Y491018D02*
X312462Y491818D01*
X312062Y492618D01*
X312862Y492218D01*
X313662Y492618D01*
X313262Y491818D01*
X313662Y491018D01*
X312862Y491418D01*
X312062Y491018D01*
X309462Y491118D02*
X309862Y491918D01*
X309462Y492718D01*
X310262Y492318D01*
X311062Y492718D01*
X310662Y491918D01*
X311062Y491118D01*
X310262Y491518D01*
X309462Y491118D01*
X292562Y493885D02*
X292962Y494685D01*
X292562Y495485D01*
X293362Y495085D01*
X294162Y495485D01*
X293762Y494685D01*
X294162Y493885D01*
X293362Y494285D01*
X292562Y493885D01*
X349962Y472676D02*
X350362Y473476D01*
X349962Y474275D01*
X350762Y473876D01*
X351562Y474275D01*
X351162Y473476D01*
X351562Y472676D01*
X350762Y473075D01*
X349962Y472676D01*
X317468Y496818D02*
X317868Y497618D01*
X317468Y498418D01*
X318268Y498018D01*
X319068Y498418D01*
X318668Y497618D01*
X319068Y496818D01*
X318268Y497218D01*
X317468Y496818D01*
X317852Y499218D02*
X318252Y500018D01*
X317852Y500818D01*
X318652Y500418D01*
X319452Y500818D01*
X319052Y500018D01*
X319452Y499218D01*
X318652Y499618D01*
X317852Y499218D01*
X318619Y504018D02*
X319020Y504818D01*
X318619Y505618D01*
X319420Y505218D01*
X320219Y505618D01*
X319819Y504818D01*
X320219Y504018D01*
X319420Y504418D01*
X318619Y504018D01*
X318377Y511418D02*
X318777Y512218D01*
X318377Y513018D01*
X319177Y512618D01*
X319977Y513018D01*
X319577Y512218D01*
X319977Y511418D01*
X319177Y511818D01*
X318377Y511418D01*
X320412Y517775D02*
X320812Y518575D01*
X320412Y519375D01*
X321212Y518975D01*
X322012Y519375D01*
X321612Y518575D01*
X322012Y517775D01*
X321212Y518175D01*
X320412Y517775D01*
X322262Y516471D02*
X322662Y517271D01*
X322262Y518071D01*
X323062Y517671D01*
X323862Y518071D01*
X323462Y517271D01*
X323862Y516471D01*
X323062Y516871D01*
X322262Y516471D01*
X318236Y501618D02*
X318636Y502418D01*
X318236Y503218D01*
X319036Y502818D01*
X319836Y503218D01*
X319436Y502418D01*
X319836Y501618D01*
X319036Y502018D01*
X318236Y501618D01*
X345789Y498186D02*
X346189Y498986D01*
X345789Y499786D01*
X346589Y499386D01*
X347389Y499786D01*
X346989Y498986D01*
X347389Y498186D01*
X346589Y498586D01*
X345789Y498186D01*
X348762Y495518D02*
X349162Y496318D01*
X348762Y497118D01*
X349562Y496718D01*
X350362Y497118D01*
X349962Y496318D01*
X350362Y495518D01*
X349562Y495918D01*
X348762Y495518D01*
X349362Y493407D02*
X349762Y494207D01*
X349362Y495007D01*
X350162Y494607D01*
X350962Y495007D01*
X350562Y494207D01*
X350962Y493407D01*
X350162Y493807D01*
X349362Y493407D01*
X346578Y496191D02*
X346978Y496991D01*
X346578Y497791D01*
X347378Y497391D01*
X348178Y497791D01*
X347778Y496991D01*
X348178Y496191D01*
X347378Y496591D01*
X346578Y496191D01*
X351362Y491518D02*
X351762Y492318D01*
X351362Y493118D01*
X352162Y492718D01*
X352962Y493118D01*
X352562Y492318D01*
X352962Y491518D01*
X352162Y491918D01*
X351362Y491518D01*
X343794Y498975D02*
X344195Y499775D01*
X343794Y500575D01*
X344595Y500175D01*
X345394Y500575D01*
X344994Y499775D01*
X345394Y498975D01*
X344595Y499375D01*
X343794Y498975D01*
X240100Y100800D02*
X240500Y101600D01*
X240100Y102400D01*
X240900Y102000D01*
X241700Y102400D01*
X241300Y101600D01*
X241700Y100800D01*
X240900Y101200D01*
X240100Y100800D01*
X235800Y104100D02*
X236200Y104900D01*
X235800Y105700D01*
X236600Y105300D01*
X237400Y105700D01*
X237000Y104900D01*
X237400Y104100D01*
X236600Y104500D01*
X235800Y104100D01*
X243500Y98100D02*
X243900Y98900D01*
X243500Y99700D01*
X244300Y99300D01*
X245100Y99700D01*
X244700Y98900D01*
X245100Y98100D01*
X244300Y98500D01*
X243500Y98100D01*
X246800Y95100D02*
X247200Y95900D01*
X246800Y96700D01*
X247600Y96300D01*
X248400Y96700D01*
X248000Y95900D01*
X248400Y95100D01*
X247600Y95500D01*
X246800Y95100D01*
X236482Y131100D02*
X236882Y131900D01*
X236482Y132700D01*
X237282Y132300D01*
X238082Y132700D01*
X237682Y131900D01*
X238082Y131100D01*
X237282Y131500D01*
X236482Y131100D01*
X123599Y260599D02*
X123999Y261399D01*
X123599Y262199D01*
X124399Y261799D01*
X125199Y262199D01*
X124799Y261399D01*
X125199Y260599D01*
X124399Y260999D01*
X123599Y260599D01*
X127004Y257194D02*
X127404Y257994D01*
X127004Y258794D01*
X127804Y258394D01*
X128604Y258794D01*
X128204Y257994D01*
X128604Y257194D01*
X127804Y257594D01*
X127004Y257194D01*
X122600Y455200D02*
X123000Y456000D01*
X122600Y456800D01*
X123400Y456400D01*
X124200Y456800D01*
X123800Y456000D01*
X124200Y455200D01*
X123400Y455600D01*
X122600Y455200D01*
X275462Y440018D02*
X275862Y440818D01*
X275462Y441618D01*
X276262Y441218D01*
X277062Y441618D01*
X276662Y440818D01*
X277062Y440018D01*
X276262Y440418D01*
X275462Y440018D01*
X288262Y453318D02*
X288662Y454118D01*
X288262Y454918D01*
X289062Y454518D01*
X289862Y454918D01*
X289462Y454118D01*
X289862Y453318D01*
X289062Y453718D01*
X288262Y453318D01*
X336562Y429918D02*
X336962Y430718D01*
X336562Y431518D01*
X337362Y431118D01*
X338162Y431518D01*
X337762Y430718D01*
X338162Y429918D01*
X337362Y430318D01*
X336562Y429918D01*
X302412Y505268D02*
X302812Y506068D01*
X302412Y506868D01*
X303212Y506468D01*
X304012Y506868D01*
X303612Y506068D01*
X304012Y505268D01*
X303212Y505668D01*
X302412Y505268D01*
X321280Y470736D02*
X321679Y471535D01*
X321280Y472335D01*
X322079Y471936D01*
X322880Y472335D01*
X322480Y471535D01*
X322880Y470736D01*
X322079Y471136D01*
X321280Y470736D01*
X317468Y471763D02*
X317868Y472563D01*
X317468Y473363D01*
X318268Y472963D01*
X319068Y473363D01*
X318668Y472563D01*
X319068Y471763D01*
X318268Y472163D01*
X317468Y471763D01*
X322362Y448718D02*
X322762Y449518D01*
X322362Y450318D01*
X323162Y449918D01*
X323962Y450318D01*
X323562Y449518D01*
X323962Y448718D01*
X323162Y449118D01*
X322362Y448718D01*
X192500Y43400D02*
X192900D01*
X193300Y43800D01*
X193700Y43400D01*
X194100D01*
Y43800D01*
X193700Y44200D01*
X194100Y44600D01*
Y45000D01*
X193700D01*
X193300Y44600D01*
X192900Y45000D01*
X192500D01*
Y44600D01*
X192900Y44200D01*
X192500Y43800D01*
Y43400D01*
X157100Y229500D02*
X157500D01*
X157900Y229900D01*
X158300Y229500D01*
X158700D01*
Y229900D01*
X158300Y230300D01*
X158700Y230700D01*
Y231100D01*
X158300D01*
X157900Y230700D01*
X157500Y231100D01*
X157100D01*
Y230700D01*
X157500Y230300D01*
X157100Y229900D01*
Y229500D01*
X161400D02*
X161800D01*
X162200Y229900D01*
X162600Y229500D01*
X163000D01*
Y229900D01*
X162600Y230300D01*
X163000Y230700D01*
Y231100D01*
X162600D01*
X162200Y230700D01*
X161800Y231100D01*
X161400D01*
Y230700D01*
X161800Y230300D01*
X161400Y229900D01*
Y229500D01*
X262162Y295518D02*
X262562Y296318D01*
X262162Y297118D01*
X262962Y296718D01*
X263762Y297118D01*
X263362Y296318D01*
X263762Y295518D01*
X262962Y295918D01*
X262162Y295518D01*
X266962Y295618D02*
X267362Y296418D01*
X266962Y297218D01*
X267762Y296818D01*
X268562Y297218D01*
X268162Y296418D01*
X268562Y295618D01*
X267762Y296018D01*
X266962Y295618D01*
X267062Y299718D02*
X267462Y300518D01*
X267062Y301318D01*
X267862Y300918D01*
X268662Y301318D01*
X268262Y300518D01*
X268662Y299718D01*
X267862Y300118D01*
X267062Y299718D01*
X262162D02*
X262562Y300518D01*
X262162Y301318D01*
X262962Y300918D01*
X263762Y301318D01*
X263362Y300518D01*
X263762Y299718D01*
X262962Y300118D01*
X262162Y299718D01*
X260762Y347018D02*
X261162Y347818D01*
X260762Y348618D01*
X261562Y348218D01*
X262362Y348618D01*
X261962Y347818D01*
X262362Y347018D01*
X261562Y347418D01*
X260762Y347018D01*
X266062D02*
X266462Y347818D01*
X266062Y348618D01*
X266862Y348218D01*
X267662Y348618D01*
X267262Y347818D01*
X267662Y347018D01*
X266862Y347418D01*
X266062Y347018D01*
X266262Y350618D02*
X266662Y351418D01*
X266262Y352218D01*
X267062Y351818D01*
X267862Y352218D01*
X267462Y351418D01*
X267862Y350618D01*
X267062Y351018D01*
X266262Y350618D01*
X260762D02*
X261162Y351418D01*
X260762Y352218D01*
X261562Y351818D01*
X262362Y352218D01*
X261962Y351418D01*
X262362Y350618D01*
X261562Y351018D01*
X260762Y350618D01*
X283562Y511318D02*
X283962Y512118D01*
X283562Y512918D01*
X284362Y512518D01*
X285162Y512918D01*
X284762Y512118D01*
X285162Y511318D01*
X284362Y511718D01*
X283562Y511318D01*
X359662Y454518D02*
X360062Y455318D01*
X359662Y456118D01*
X360462Y455718D01*
X361262Y456118D01*
X360862Y455318D01*
X361262Y454518D01*
X360462Y454918D01*
X359662Y454518D01*
X366262Y423118D02*
X366662Y423918D01*
X366262Y424718D01*
X367062Y424318D01*
X367862Y424718D01*
X367462Y423918D01*
X367862Y423118D01*
X367062Y423518D01*
X366262Y423118D01*
X333667Y511118D02*
X334067Y511918D01*
X333667Y512718D01*
X334467Y512318D01*
X335267Y512718D01*
X334867Y511918D01*
X335267Y511118D01*
X334467Y511518D01*
X333667Y511118D01*
X309662Y473118D02*
X310062Y473918D01*
X309662Y474718D01*
X310462Y474318D01*
X311262Y474718D01*
X310862Y473918D01*
X311262Y473118D01*
X310462Y473518D01*
X309662Y473118D01*
X312562Y484278D02*
X312962Y485078D01*
X312562Y485878D01*
X313362Y485478D01*
X314162Y485878D01*
X313762Y485078D01*
X314162Y484278D01*
X313362Y484678D01*
X312562Y484278D01*
X313762Y481618D02*
X314162Y482418D01*
X313762Y483218D01*
X314562Y482818D01*
X315362Y483218D01*
X314962Y482418D01*
X315362Y481618D01*
X314562Y482018D01*
X313762Y481618D01*
X296362Y498437D02*
X296762Y499237D01*
X296362Y500037D01*
X297162Y499637D01*
X297962Y500037D01*
X297562Y499237D01*
X297962Y498437D01*
X297162Y498837D01*
X296362Y498437D01*
X346362Y467924D02*
X346762Y468724D01*
X346362Y469524D01*
X347162Y469124D01*
X347962Y469524D01*
X347562Y468724D01*
X347962Y467924D01*
X347162Y468324D01*
X346362Y467924D01*
X262000Y208200D02*
X262400Y209000D01*
X262000Y209800D01*
X262800Y209400D01*
X263600Y209800D01*
X263200Y209000D01*
X263600Y208200D01*
X262800Y208600D01*
X262000Y208200D01*
Y106100D02*
X262400Y106900D01*
X262000Y107700D01*
X262800Y107300D01*
X263600Y107700D01*
X263200Y106900D01*
X263600Y106100D01*
X262800Y106500D01*
X262000Y106100D01*
X297331Y454587D02*
X297731Y455387D01*
X297331Y456187D01*
X298131Y455787D01*
X298931Y456187D01*
X298531Y455387D01*
X298931Y454587D01*
X298131Y454987D01*
X297331Y454587D01*
X296099Y456755D02*
X296499Y457555D01*
X296099Y458355D01*
X296899Y457955D01*
X297699Y458355D01*
X297299Y457555D01*
X297699Y456755D01*
X296899Y457155D01*
X296099Y456755D01*
X349762Y427018D02*
X350162Y427818D01*
X349762Y428618D01*
X350562Y428218D01*
X351362Y428618D01*
X350962Y427818D01*
X351362Y427018D01*
X350562Y427418D01*
X349762Y427018D01*
X192800Y773700D02*
X193200D01*
X193600Y774100D01*
X194000Y773700D01*
X194400D01*
Y774100D01*
X194000Y774500D01*
X194400Y774900D01*
Y775300D01*
X194000D01*
X193600Y774900D01*
X193200Y775300D01*
X192800D01*
Y774900D01*
X193200Y774500D01*
X192800Y774100D01*
Y773700D01*
X346273Y442958D02*
X346673Y443758D01*
X346273Y444558D01*
X347073Y444159D01*
X347873Y444558D01*
X347473Y443758D01*
X347873Y442958D01*
X347073Y443359D01*
X346273Y442958D01*
X364776Y460825D02*
X365176Y461625D01*
X364776Y462425D01*
X365576Y462025D01*
X366376Y462425D01*
X365976Y461625D01*
X366376Y460825D01*
X365576Y461225D01*
X364776Y460825D01*
X262100Y598200D02*
X262500Y599000D01*
X262100Y599800D01*
X262900Y599400D01*
X263700Y599800D01*
X263300Y599000D01*
X263700Y598200D01*
X262900Y598600D01*
X262100Y598200D01*
Y699700D02*
X262500Y700500D01*
X262100Y701300D01*
X262900Y700900D01*
X263700Y701300D01*
X263300Y700500D01*
X263700Y699700D01*
X262900Y700100D01*
X262100Y699700D01*
X165000Y233200D02*
X165400Y234000D01*
X165000Y234800D01*
X165800Y234400D01*
X166600Y234800D01*
X166200Y234000D01*
X166600Y233200D01*
X165800Y233600D01*
X165000Y233200D01*
X165100Y238200D02*
X165500Y239000D01*
X165100Y239800D01*
X165900Y239400D01*
X166700Y239800D01*
X166300Y239000D01*
X166700Y238200D01*
X165900Y238600D01*
X165100Y238200D01*
X109000Y424600D02*
X109400D01*
X109800Y425000D01*
X110200Y424600D01*
X110600D01*
Y425000D01*
X110200Y425400D01*
X110600Y425800D01*
Y426200D01*
X110200D01*
X109800Y425800D01*
X109400Y426200D01*
X109000D01*
Y425800D01*
X109400Y425400D01*
X109000Y425000D01*
Y424600D01*
X94000Y575600D02*
X94400D01*
X94800Y576000D01*
X95200Y575600D01*
X95600D01*
Y576000D01*
X95200Y576400D01*
X95600Y576800D01*
Y577200D01*
X95200D01*
X94800Y576800D01*
X94400Y577200D01*
X94000D01*
Y576800D01*
X94400Y576400D01*
X94000Y576000D01*
Y575600D01*
X66300Y396800D02*
X66700D01*
X67100Y397200D01*
X67500Y396800D01*
X67900D01*
Y397200D01*
X67500Y397600D01*
X67900Y398000D01*
Y398400D01*
X67500D01*
X67100Y398000D01*
X66700Y398400D01*
X66300D01*
Y398000D01*
X66700Y397600D01*
X66300Y397200D01*
Y396800D01*
X94134Y245200D02*
X94534D01*
X94934Y245600D01*
X95335Y245200D01*
X95735D01*
Y245600D01*
X95335Y246000D01*
X95735Y246400D01*
Y246800D01*
X95335D01*
X94934Y246400D01*
X94534Y246800D01*
X94134D01*
Y246400D01*
X94534Y246000D01*
X94134Y245600D01*
Y245200D01*
X117583Y576300D02*
X117983D01*
X118383Y576700D01*
X118783Y576300D01*
X119183D01*
Y576700D01*
X118783Y577100D01*
X119183Y577500D01*
Y577900D01*
X118783D01*
X118383Y577500D01*
X117983Y577900D01*
X117583D01*
Y577500D01*
X117983Y577100D01*
X117583Y576700D01*
Y576300D01*
X117300Y245600D02*
X117700D01*
X118100Y246000D01*
X118500Y245600D01*
X118900D01*
Y246000D01*
X118500Y246400D01*
X118900Y246800D01*
Y247200D01*
X118500D01*
X118100Y246800D01*
X117700Y247200D01*
X117300D01*
Y246800D01*
X117700Y246400D01*
X117300Y246000D01*
Y245600D01*
X106756Y95300D02*
X107156Y96100D01*
X106756Y96900D01*
X107556Y96500D01*
X108356Y96900D01*
X107956Y96100D01*
X108356Y95300D01*
X107556Y95700D01*
X106756Y95300D01*
X216318Y668600D02*
X216718Y669400D01*
X216318Y670200D01*
X217118Y669800D01*
X217918Y670200D01*
X217518Y669400D01*
X217918Y668600D01*
X217118Y669000D01*
X216318Y668600D01*
X257662Y375706D02*
X258062Y376506D01*
X257662Y377306D01*
X258462Y376906D01*
X259262Y377306D01*
X258862Y376506D01*
X259262Y375706D01*
X258462Y376106D01*
X257662Y375706D01*
X216018Y177100D02*
X216418Y177900D01*
X216018Y178700D01*
X216818Y178300D01*
X217618Y178700D01*
X217218Y177900D01*
X217618Y177100D01*
X216818Y177500D01*
X216018Y177100D01*
Y75000D02*
X216418Y75800D01*
X216018Y76600D01*
X216818Y76200D01*
X217618Y76600D01*
X217218Y75800D01*
X217618Y75000D01*
X216818Y75400D01*
X216018Y75000D01*
X343562Y526518D02*
X343962Y527318D01*
X343562Y528118D01*
X344362Y527718D01*
X345162Y528118D01*
X344762Y527318D01*
X345162Y526518D01*
X344362Y526918D01*
X343562Y526518D01*
X277852Y505649D02*
X278252Y506449D01*
X277852Y507249D01*
X278652Y506849D01*
X279452Y507249D01*
X279052Y506449D01*
X279452Y505649D01*
X278652Y506049D01*
X277852Y505649D01*
X129414Y516300D02*
X129814Y517100D01*
X129414Y517900D01*
X130214Y517500D01*
X131014Y517900D01*
X130614Y517100D01*
X131014Y516300D01*
X130214Y516700D01*
X129414Y516300D01*
X179000Y605000D02*
X179400Y605800D01*
X179000Y606600D01*
X179800Y606200D01*
X180600Y606600D01*
X180200Y605800D01*
X180600Y605000D01*
X179800Y605400D01*
X179000Y605000D01*
X179000Y647067D02*
X179400Y647867D01*
X179000Y648667D01*
X179800Y648267D01*
X180600Y648667D01*
X180200Y647867D01*
X180600Y647067D01*
X179800Y647467D01*
X179000Y647067D01*
Y689133D02*
X179400Y689933D01*
X179000Y690733D01*
X179800Y690333D01*
X180600Y690733D01*
X180200Y689933D01*
X180600Y689133D01*
X179800Y689533D01*
X179000Y689133D01*
Y731200D02*
X179400Y732000D01*
X179000Y732800D01*
X179800Y732400D01*
X180600Y732800D01*
X180200Y732000D01*
X180600Y731200D01*
X179800Y731600D01*
X179000Y731200D01*
X179000Y68900D02*
X179400Y69700D01*
X179000Y70500D01*
X179800Y70100D01*
X180600Y70500D01*
X180200Y69700D01*
X180600Y68900D01*
X179800Y69300D01*
X179000Y68900D01*
X179000Y111267D02*
X179400Y112067D01*
X179000Y112867D01*
X179800Y112467D01*
X180600Y112867D01*
X180200Y112067D01*
X180600Y111267D01*
X179800Y111667D01*
X179000Y111267D01*
Y153633D02*
X179400Y154433D01*
X179000Y155233D01*
X179800Y154833D01*
X180600Y155233D01*
X180200Y154433D01*
X180600Y153633D01*
X179800Y154033D01*
X179000Y153633D01*
Y196000D02*
X179400Y196800D01*
X179000Y197600D01*
X179800Y197200D01*
X180600Y197600D01*
X180200Y196800D01*
X180600Y196000D01*
X179800Y196400D01*
X179000Y196000D01*
X239500Y126100D02*
X239900Y126900D01*
X239500Y127700D01*
X240300Y127300D01*
X241100Y127700D01*
X240700Y126900D01*
X241100Y126100D01*
X240300Y126500D01*
X239500Y126100D01*
X243900Y121100D02*
X244300Y121900D01*
X243900Y122700D01*
X244700Y122300D01*
X245500Y122700D01*
X245100Y121900D01*
X245500Y121100D01*
X244700Y121500D01*
X243900Y121100D01*
X248000Y116100D02*
X248400Y116900D01*
X248000Y117700D01*
X248800Y117300D01*
X249600Y117700D01*
X249200Y116900D01*
X249600Y116100D01*
X248800Y116500D01*
X248000Y116100D01*
X236482Y233200D02*
X236882Y234000D01*
X236482Y234800D01*
X237282Y234400D01*
X238082Y234800D01*
X237682Y234000D01*
X238082Y233200D01*
X237282Y233600D01*
X236482Y233200D01*
X239500Y228200D02*
X239900Y229000D01*
X239500Y229800D01*
X240300Y229400D01*
X241100Y229800D01*
X240700Y229000D01*
X241100Y228200D01*
X240300Y228600D01*
X239500Y228200D01*
X243900Y223200D02*
X244300Y224000D01*
X243900Y224800D01*
X244700Y224400D01*
X245500Y224800D01*
X245100Y224000D01*
X245500Y223200D01*
X244700Y223600D01*
X243900Y223200D01*
X248000Y218200D02*
X248400Y219000D01*
X248000Y219800D01*
X248800Y219400D01*
X249600Y219800D01*
X249200Y219000D01*
X249600Y218200D01*
X248800Y218600D01*
X248000Y218200D01*
X236782Y623200D02*
X237182Y624000D01*
X236782Y624800D01*
X237582Y624400D01*
X238382Y624800D01*
X237982Y624000D01*
X238382Y623200D01*
X237582Y623600D01*
X236782Y623200D01*
X239800Y618200D02*
X240200Y619000D01*
X239800Y619800D01*
X240600Y619400D01*
X241400Y619800D01*
X241000Y619000D01*
X241400Y618200D01*
X240600Y618600D01*
X239800Y618200D01*
X244200Y613200D02*
X244600Y614000D01*
X244200Y614800D01*
X245000Y614400D01*
X245800Y614800D01*
X245400Y614000D01*
X245800Y613200D01*
X245000Y613600D01*
X244200Y613200D01*
X248300Y608200D02*
X248700Y609000D01*
X248300Y609800D01*
X249100Y609400D01*
X249900Y609800D01*
X249500Y609000D01*
X249900Y608200D01*
X249100Y608600D01*
X248300Y608200D01*
X236400Y724700D02*
X236800Y725500D01*
X236400Y726300D01*
X237200Y725900D01*
X238000Y726300D01*
X237600Y725500D01*
X238000Y724700D01*
X237200Y725100D01*
X236400Y724700D01*
X239800Y719700D02*
X240200Y720500D01*
X239800Y721300D01*
X240600Y720900D01*
X241400Y721300D01*
X241000Y720500D01*
X241400Y719700D01*
X240600Y720100D01*
X239800Y719700D01*
X244200Y714700D02*
X244600Y715500D01*
X244200Y716300D01*
X245000Y715900D01*
X245800Y716300D01*
X245400Y715500D01*
X245800Y714700D01*
X245000Y715100D01*
X244200Y714700D01*
X248300Y709700D02*
X248700Y710500D01*
X248300Y711300D01*
X249100Y710900D01*
X249900Y711300D01*
X249500Y710500D01*
X249900Y709700D01*
X249100Y710100D01*
X248300Y709700D01*
X98000Y631866D02*
X98400Y632666D01*
X98000Y633466D01*
X98800Y633066D01*
X99600Y633466D01*
X99200Y632666D01*
X99600Y631866D01*
X98800Y632266D01*
X98000Y631866D01*
X152900Y748200D02*
X153300Y749000D01*
X152900Y749800D01*
X153700Y749400D01*
X154500Y749800D01*
X154100Y749000D01*
X154500Y748200D01*
X153700Y748600D01*
X152900Y748200D01*
X162900D02*
X163300Y749000D01*
X162900Y749800D01*
X163700Y749400D01*
X164500Y749800D01*
X164100Y749000D01*
X164500Y748200D01*
X163700Y748600D01*
X162900Y748200D01*
X172900D02*
X173300Y749000D01*
X172900Y749800D01*
X173700Y749400D01*
X174500Y749800D01*
X174100Y749000D01*
X174500Y748200D01*
X173700Y748600D01*
X172900Y748200D01*
X167900Y736400D02*
X168300Y737200D01*
X167900Y738000D01*
X168700Y737600D01*
X169500Y738000D01*
X169100Y737200D01*
X169500Y736400D01*
X168700Y736800D01*
X167900Y736400D01*
X157900D02*
X158300Y737200D01*
X157900Y738000D01*
X158700Y737600D01*
X159500Y738000D01*
X159100Y737200D01*
X159500Y736400D01*
X158700Y736800D01*
X157900Y736400D01*
X147900D02*
X148300Y737200D01*
X147900Y738000D01*
X148700Y737600D01*
X149500Y738000D01*
X149100Y737200D01*
X149500Y736400D01*
X148700Y736800D01*
X147900Y736400D01*
X152900Y706133D02*
X153300Y706933D01*
X152900Y707733D01*
X153700Y707333D01*
X154500Y707733D01*
X154100Y706933D01*
X154500Y706133D01*
X153700Y706533D01*
X152900Y706133D01*
X162900D02*
X163300Y706933D01*
X162900Y707733D01*
X163700Y707333D01*
X164500Y707733D01*
X164100Y706933D01*
X164500Y706133D01*
X163700Y706533D01*
X162900Y706133D01*
X172900D02*
X173300Y706933D01*
X172900Y707733D01*
X173700Y707333D01*
X174500Y707733D01*
X174100Y706933D01*
X174500Y706133D01*
X173700Y706533D01*
X172900Y706133D01*
X167900Y694333D02*
X168300Y695133D01*
X167900Y695933D01*
X168700Y695533D01*
X169500Y695933D01*
X169100Y695133D01*
X169500Y694333D01*
X168700Y694733D01*
X167900Y694333D01*
X157900D02*
X158300Y695133D01*
X157900Y695933D01*
X158700Y695533D01*
X159500Y695933D01*
X159100Y695133D01*
X159500Y694333D01*
X158700Y694733D01*
X157900Y694333D01*
X147900D02*
X148300Y695133D01*
X147900Y695933D01*
X148700Y695533D01*
X149500Y695933D01*
X149100Y695133D01*
X149500Y694333D01*
X148700Y694733D01*
X147900Y694333D01*
X152900Y664067D02*
X153300Y664867D01*
X152900Y665667D01*
X153700Y665267D01*
X154500Y665667D01*
X154100Y664867D01*
X154500Y664067D01*
X153700Y664467D01*
X152900Y664067D01*
X162900D02*
X163300Y664867D01*
X162900Y665667D01*
X163700Y665267D01*
X164500Y665667D01*
X164100Y664867D01*
X164500Y664067D01*
X163700Y664467D01*
X162900Y664067D01*
X172900D02*
X173300Y664867D01*
X172900Y665667D01*
X173700Y665267D01*
X174500Y665667D01*
X174100Y664867D01*
X174500Y664067D01*
X173700Y664467D01*
X172900Y664067D01*
X167900Y652267D02*
X168300Y653067D01*
X167900Y653867D01*
X168700Y653467D01*
X169500Y653867D01*
X169100Y653067D01*
X169500Y652267D01*
X168700Y652667D01*
X167900Y652267D01*
X157900D02*
X158300Y653067D01*
X157900Y653867D01*
X158700Y653467D01*
X159500Y653867D01*
X159100Y653067D01*
X159500Y652267D01*
X158700Y652667D01*
X157900Y652267D01*
X147900D02*
X148300Y653067D01*
X147900Y653867D01*
X148700Y653467D01*
X149500Y653867D01*
X149100Y653067D01*
X149500Y652267D01*
X148700Y652667D01*
X147900Y652267D01*
X152900Y622000D02*
X153300Y622800D01*
X152900Y623600D01*
X153700Y623200D01*
X154500Y623600D01*
X154100Y622800D01*
X154500Y622000D01*
X153700Y622400D01*
X152900Y622000D01*
X162900D02*
X163300Y622800D01*
X162900Y623600D01*
X163700Y623200D01*
X164500Y623600D01*
X164100Y622800D01*
X164500Y622000D01*
X163700Y622400D01*
X162900Y622000D01*
X172900D02*
X173300Y622800D01*
X172900Y623600D01*
X173700Y623200D01*
X174500Y623600D01*
X174100Y622800D01*
X174500Y622000D01*
X173700Y622400D01*
X172900Y622000D01*
X167900Y610200D02*
X168300Y611000D01*
X167900Y611800D01*
X168700Y611400D01*
X169500Y611800D01*
X169100Y611000D01*
X169500Y610200D01*
X168700Y610600D01*
X167900Y610200D01*
X157900D02*
X158300Y611000D01*
X157900Y611800D01*
X158700Y611400D01*
X159500Y611800D01*
X159100Y611000D01*
X159500Y610200D01*
X158700Y610600D01*
X157900Y610200D01*
X147900D02*
X148300Y611000D01*
X147900Y611800D01*
X148700Y611400D01*
X149500Y611800D01*
X149100Y611000D01*
X149500Y610200D01*
X148700Y610600D01*
X147900Y610200D01*
X97997Y119602D02*
X98397Y120402D01*
X97997Y121202D01*
X98797Y120802D01*
X99597Y121202D01*
X99197Y120402D01*
X99597Y119602D01*
X98797Y120002D01*
X97997Y119602D01*
X152900Y213000D02*
X153300Y213800D01*
X152900Y214600D01*
X153700Y214200D01*
X154500Y214600D01*
X154100Y213800D01*
X154500Y213000D01*
X153700Y213400D01*
X152900Y213000D01*
X162900D02*
X163300Y213800D01*
X162900Y214600D01*
X163700Y214200D01*
X164500Y214600D01*
X164100Y213800D01*
X164500Y213000D01*
X163700Y213400D01*
X162900Y213000D01*
X172900D02*
X173300Y213800D01*
X172900Y214600D01*
X173700Y214200D01*
X174500Y214600D01*
X174100Y213800D01*
X174500Y213000D01*
X173700Y213400D01*
X172900Y213000D01*
X167900Y201200D02*
X168300Y202000D01*
X167900Y202800D01*
X168700Y202400D01*
X169500Y202800D01*
X169100Y202000D01*
X169500Y201200D01*
X168700Y201600D01*
X167900Y201200D01*
X157900Y201200D02*
X158300Y202000D01*
X157900Y202800D01*
X158700Y202400D01*
X159500Y202800D01*
X159100Y202000D01*
X159500Y201200D01*
X158700Y201600D01*
X157900Y201200D01*
X147900D02*
X148300Y202000D01*
X147900Y202800D01*
X148700Y202400D01*
X149500Y202800D01*
X149100Y202000D01*
X149500Y201200D01*
X148700Y201600D01*
X147900Y201200D01*
X152900Y170633D02*
X153300Y171433D01*
X152900Y172233D01*
X153700Y171833D01*
X154500Y172233D01*
X154100Y171433D01*
X154500Y170633D01*
X153700Y171033D01*
X152900Y170633D01*
X162900D02*
X163300Y171433D01*
X162900Y172233D01*
X163700Y171833D01*
X164500Y172233D01*
X164100Y171433D01*
X164500Y170633D01*
X163700Y171033D01*
X162900Y170633D01*
X172900D02*
X173300Y171433D01*
X172900Y172233D01*
X173700Y171833D01*
X174500Y172233D01*
X174100Y171433D01*
X174500Y170633D01*
X173700Y171033D01*
X172900Y170633D01*
X147900Y158833D02*
X148300Y159633D01*
X147900Y160433D01*
X148700Y160033D01*
X149500Y160433D01*
X149100Y159633D01*
X149500Y158833D01*
X148700Y159233D01*
X147900Y158833D01*
X157900D02*
X158300Y159633D01*
X157900Y160433D01*
X158700Y160033D01*
X159500Y160433D01*
X159100Y159633D01*
X159500Y158833D01*
X158700Y159233D01*
X157900Y158833D01*
X167900Y158833D02*
X168300Y159633D01*
X167900Y160433D01*
X168700Y160033D01*
X169500Y160433D01*
X169100Y159633D01*
X169500Y158833D01*
X168700Y159233D01*
X167900Y158833D01*
X152900Y128267D02*
X153300Y129067D01*
X152900Y129867D01*
X153700Y129467D01*
X154500Y129867D01*
X154100Y129067D01*
X154500Y128267D01*
X153700Y128667D01*
X152900Y128267D01*
X162900D02*
X163300Y129067D01*
X162900Y129867D01*
X163700Y129467D01*
X164500Y129867D01*
X164100Y129067D01*
X164500Y128267D01*
X163700Y128667D01*
X162900Y128267D01*
X172900D02*
X173300Y129067D01*
X172900Y129867D01*
X173700Y129467D01*
X174500Y129867D01*
X174100Y129067D01*
X174500Y128267D01*
X173700Y128667D01*
X172900Y128267D01*
X157900Y116467D02*
X158300Y117267D01*
X157900Y118067D01*
X158700Y117667D01*
X159500Y118067D01*
X159100Y117267D01*
X159500Y116467D01*
X158700Y116867D01*
X157900Y116467D01*
X167900Y116467D02*
X168300Y117267D01*
X167900Y118067D01*
X168700Y117667D01*
X169500Y118067D01*
X169100Y117267D01*
X169500Y116467D01*
X168700Y116867D01*
X167900Y116467D01*
X152900Y85900D02*
X153300Y86700D01*
X152900Y87500D01*
X153700Y87100D01*
X154500Y87500D01*
X154100Y86700D01*
X154500Y85900D01*
X153700Y86300D01*
X152900Y85900D01*
X162900D02*
X163300Y86700D01*
X162900Y87500D01*
X163700Y87100D01*
X164500Y87500D01*
X164100Y86700D01*
X164500Y85900D01*
X163700Y86300D01*
X162900Y85900D01*
X172900D02*
X173300Y86700D01*
X172900Y87500D01*
X173700Y87100D01*
X174500Y87500D01*
X174100Y86700D01*
X174500Y85900D01*
X173700Y86300D01*
X172900Y85900D01*
X167900Y74100D02*
X168300Y74900D01*
X167900Y75700D01*
X168700Y75300D01*
X169500Y75700D01*
X169100Y74900D01*
X169500Y74100D01*
X168700Y74500D01*
X167900Y74100D01*
X157900D02*
X158300Y74900D01*
X157900Y75700D01*
X158700Y75300D01*
X159500Y75700D01*
X159100Y74900D01*
X159500Y74100D01*
X158700Y74500D01*
X157900Y74100D01*
X147900D02*
X148300Y74900D01*
X147900Y75700D01*
X148700Y75300D01*
X149500Y75700D01*
X149100Y74900D01*
X149500Y74100D01*
X148700Y74500D01*
X147900Y74100D01*
X98000Y107900D02*
X98400Y108700D01*
X98000Y109500D01*
X98800Y109100D01*
X99600Y109500D01*
X99200Y108700D01*
X99600Y107900D01*
X98800Y108300D01*
X98000Y107900D01*
X97997Y115665D02*
X98397Y116465D01*
X97997Y117265D01*
X98797Y116865D01*
X99597Y117265D01*
X99197Y116465D01*
X99597Y115665D01*
X98797Y116065D01*
X97997Y115665D01*
Y127378D02*
X98397Y128178D01*
X97997Y128978D01*
X98797Y128578D01*
X99597Y128978D01*
X99197Y128178D01*
X99597Y127378D01*
X98797Y127778D01*
X97997Y127378D01*
X98000Y627929D02*
X98400Y628729D01*
X98000Y629529D01*
X98800Y629129D01*
X99600Y629529D01*
X99200Y628729D01*
X99600Y627929D01*
X98800Y628329D01*
X98000Y627929D01*
X97997Y710600D02*
X98397Y711400D01*
X97997Y712200D01*
X98797Y711800D01*
X99597Y712200D01*
X99197Y711400D01*
X99597Y710600D01*
X98797Y711000D01*
X97997Y710600D01*
X98000Y612181D02*
X98400Y612981D01*
X98000Y613781D01*
X98800Y613381D01*
X99600Y613781D01*
X99200Y612981D01*
X99600Y612181D01*
X98800Y612581D01*
X98000Y612181D01*
Y616118D02*
X98400Y616918D01*
X98000Y617718D01*
X98800Y617318D01*
X99600Y617718D01*
X99200Y616918D01*
X99600Y616118D01*
X98800Y616518D01*
X98000Y616118D01*
Y620055D02*
X98400Y620855D01*
X98000Y621655D01*
X98800Y621255D01*
X99600Y621655D01*
X99200Y620855D01*
X99600Y620055D01*
X98800Y620455D01*
X98000Y620055D01*
Y623992D02*
X98400Y624792D01*
X98000Y625592D01*
X98800Y625192D01*
X99600Y625592D01*
X99200Y624792D01*
X99600Y623992D01*
X98800Y624392D01*
X98000Y623992D01*
Y635803D02*
X98400Y636603D01*
X98000Y637403D01*
X98800Y637003D01*
X99600Y637403D01*
X99200Y636603D01*
X99600Y635803D01*
X98800Y636203D01*
X98000Y635803D01*
Y639740D02*
X98400Y640540D01*
X98000Y641340D01*
X98800Y640940D01*
X99600Y641340D01*
X99200Y640540D01*
X99600Y639740D01*
X98800Y640140D01*
X98000Y639740D01*
Y643677D02*
X98400Y644477D01*
X98000Y645277D01*
X98800Y644877D01*
X99600Y645277D01*
X99200Y644477D01*
X99600Y643677D01*
X98800Y644077D01*
X98000Y643677D01*
X97997Y647500D02*
X98397Y648300D01*
X97997Y649100D01*
X98797Y648700D01*
X99597Y649100D01*
X99197Y648300D01*
X99597Y647500D01*
X98797Y647900D01*
X97997Y647500D01*
Y651500D02*
X98397Y652300D01*
X97997Y653100D01*
X98797Y652700D01*
X99597Y653100D01*
X99197Y652300D01*
X99597Y651500D01*
X98797Y651900D01*
X97997Y651500D01*
X98000Y655488D02*
X98400Y656288D01*
X98000Y657088D01*
X98800Y656688D01*
X99600Y657088D01*
X99200Y656288D01*
X99600Y655488D01*
X98800Y655888D01*
X98000Y655488D01*
Y659425D02*
X98400Y660225D01*
X98000Y661025D01*
X98800Y660625D01*
X99600Y661025D01*
X99200Y660225D01*
X99600Y659425D01*
X98800Y659825D01*
X98000Y659425D01*
Y663362D02*
X98400Y664162D01*
X98000Y664962D01*
X98800Y664562D01*
X99600Y664962D01*
X99200Y664162D01*
X99600Y663362D01*
X98800Y663762D01*
X98000Y663362D01*
X97997Y667299D02*
X98397Y668099D01*
X97997Y668899D01*
X98797Y668499D01*
X99597Y668899D01*
X99197Y668099D01*
X99597Y667299D01*
X98797Y667699D01*
X97997Y667299D01*
Y671200D02*
X98397Y672000D01*
X97997Y672800D01*
X98797Y672400D01*
X99597Y672800D01*
X99197Y672000D01*
X99597Y671200D01*
X98797Y671600D01*
X97997Y671200D01*
X98000Y675173D02*
X98400Y675973D01*
X98000Y676773D01*
X98800Y676373D01*
X99600Y676773D01*
X99200Y675973D01*
X99600Y675173D01*
X98800Y675573D01*
X98000Y675173D01*
Y679458D02*
X98400Y680258D01*
X98000Y681058D01*
X98800Y680658D01*
X99600Y681058D01*
X99200Y680258D01*
X99600Y679458D01*
X98800Y679858D01*
X98000Y679458D01*
Y683218D02*
X98400Y684018D01*
X98000Y684818D01*
X98800Y684418D01*
X99600Y684818D01*
X99200Y684018D01*
X99600Y683218D01*
X98800Y683618D01*
X98000Y683218D01*
Y687291D02*
X98400Y688091D01*
X98000Y688891D01*
X98800Y688491D01*
X99600Y688891D01*
X99200Y688091D01*
X99600Y687291D01*
X98800Y687691D01*
X98000Y687291D01*
X97997Y690900D02*
X98397Y691700D01*
X97997Y692500D01*
X98797Y692100D01*
X99597Y692500D01*
X99197Y691700D01*
X99597Y690900D01*
X98797Y691300D01*
X97997Y690900D01*
Y694900D02*
X98397Y695700D01*
X97997Y696500D01*
X98797Y696100D01*
X99597Y696500D01*
X99197Y695700D01*
X99597Y694900D01*
X98797Y695300D01*
X97997Y694900D01*
X98000Y698795D02*
X98400Y699595D01*
X98000Y700395D01*
X98800Y699995D01*
X99600Y700395D01*
X99200Y699595D01*
X99600Y698795D01*
X98800Y699195D01*
X98000Y698795D01*
Y702732D02*
X98400Y703532D01*
X98000Y704332D01*
X98800Y703932D01*
X99600Y704332D01*
X99200Y703532D01*
X99600Y702732D01*
X98800Y703132D01*
X98000Y702732D01*
Y706463D02*
X98400Y707263D01*
X98000Y708063D01*
X98800Y707663D01*
X99600Y708063D01*
X99200Y707263D01*
X99600Y706463D01*
X98800Y706863D01*
X98000Y706463D01*
X97997Y112300D02*
X98397Y113100D01*
X97997Y113900D01*
X98797Y113500D01*
X99597Y113900D01*
X99197Y113100D01*
X99597Y112300D01*
X98797Y112700D01*
X97997Y112300D01*
Y131500D02*
X98397Y132300D01*
X97997Y133100D01*
X98797Y132700D01*
X99597Y133100D01*
X99197Y132300D01*
X99597Y131500D01*
X98797Y131900D01*
X97997Y131500D01*
X97900Y142500D02*
X98300Y143300D01*
X97900Y144100D01*
X98700Y143700D01*
X99500Y144100D01*
X99100Y143300D01*
X99500Y142500D01*
X98700Y142900D01*
X97900Y142500D01*
X97997Y186630D02*
X98397Y187430D01*
X97997Y188230D01*
X98797Y187830D01*
X99597Y188230D01*
X99197Y187430D01*
X99597Y186630D01*
X98797Y187030D01*
X97997Y186630D01*
Y206413D02*
X98397Y207213D01*
X97997Y208013D01*
X98797Y207613D01*
X99597Y208013D01*
X99197Y207213D01*
X99597Y206413D01*
X98797Y206813D01*
X97997Y206413D01*
Y202476D02*
X98397Y203276D01*
X97997Y204076D01*
X98797Y203676D01*
X99597Y204076D01*
X99197Y203276D01*
X99597Y202476D01*
X98797Y202876D01*
X97997Y202476D01*
X97898Y198441D02*
X98298Y199241D01*
X97898Y200041D01*
X98698Y199641D01*
X99498Y200041D01*
X99098Y199241D01*
X99498Y198441D01*
X98698Y198841D01*
X97898Y198441D01*
X97997Y194504D02*
X98397Y195304D01*
X97997Y196104D01*
X98797Y195704D01*
X99597Y196104D01*
X99197Y195304D01*
X99597Y194504D01*
X98797Y194904D01*
X97997Y194504D01*
Y190567D02*
X98397Y191367D01*
X97997Y192167D01*
X98797Y191767D01*
X99597Y192167D01*
X99197Y191367D01*
X99597Y190567D01*
X98797Y190967D01*
X97997Y190567D01*
Y182791D02*
X98397Y183591D01*
X97997Y184391D01*
X98797Y183991D01*
X99597Y184391D01*
X99197Y183591D01*
X99597Y182791D01*
X98797Y183191D01*
X97997Y182791D01*
Y178756D02*
X98397Y179556D01*
X97997Y180356D01*
X98797Y179956D01*
X99597Y180356D01*
X99197Y179556D01*
X99597Y178756D01*
X98797Y179156D01*
X97997Y178756D01*
Y174819D02*
X98397Y175619D01*
X97997Y176419D01*
X98797Y176019D01*
X99597Y176419D01*
X99197Y175619D01*
X99597Y174819D01*
X98797Y175219D01*
X97997Y174819D01*
Y170783D02*
X98397Y171583D01*
X97997Y172383D01*
X98797Y171984D01*
X99597Y172383D01*
X99197Y171583D01*
X99597Y170783D01*
X98797Y171184D01*
X97997Y170783D01*
Y166945D02*
X98397Y167745D01*
X97997Y168545D01*
X98797Y168145D01*
X99597Y168545D01*
X99197Y167745D01*
X99597Y166945D01*
X98797Y167345D01*
X97997Y166945D01*
Y163008D02*
X98397Y163808D01*
X97997Y164608D01*
X98797Y164208D01*
X99597Y164608D01*
X99197Y163808D01*
X99597Y163008D01*
X98797Y163408D01*
X97997Y163008D01*
Y158972D02*
X98397Y159772D01*
X97997Y160572D01*
X98797Y160172D01*
X99597Y160572D01*
X99197Y159772D01*
X99597Y158972D01*
X98797Y159372D01*
X97997Y158972D01*
Y155134D02*
X98397Y155934D01*
X97997Y156734D01*
X98797Y156334D01*
X99597Y156734D01*
X99197Y155934D01*
X99597Y155134D01*
X98797Y155534D01*
X97997Y155134D01*
Y151098D02*
X98397Y151898D01*
X97997Y152698D01*
X98797Y152298D01*
X99597Y152698D01*
X99197Y151898D01*
X99597Y151098D01*
X98797Y151498D01*
X97997Y151098D01*
Y147260D02*
X98397Y148060D01*
X97997Y148860D01*
X98797Y148460D01*
X99597Y148860D01*
X99197Y148060D01*
X99597Y147260D01*
X98797Y147660D01*
X97997Y147260D01*
Y139287D02*
X98397Y140087D01*
X97997Y140887D01*
X98797Y140487D01*
X99597Y140887D01*
X99197Y140087D01*
X99597Y139287D01*
X98797Y139687D01*
X97997Y139287D01*
Y135449D02*
X98397Y136249D01*
X97997Y137049D01*
X98797Y136649D01*
X99597Y137049D01*
X99197Y136249D01*
X99597Y135449D01*
X98797Y135849D01*
X97997Y135449D01*
Y123539D02*
X98397Y124339D01*
X97997Y125139D01*
X98797Y124739D01*
X99597Y125139D01*
X99197Y124339D01*
X99597Y123539D01*
X98797Y123939D01*
X97997Y123539D01*
X130560Y254343D02*
X130960Y255143D01*
X130560Y255943D01*
X131360Y255543D01*
X132160Y255943D01*
X131760Y255143D01*
X132160Y254343D01*
X131360Y254743D01*
X130560Y254343D01*
X126319Y289678D02*
X126719Y290478D01*
X126319Y291278D01*
X127119Y290878D01*
X127919Y291278D01*
X127519Y290478D01*
X127919Y289678D01*
X127119Y290078D01*
X126319Y289678D01*
X130166Y287119D02*
X130566Y287919D01*
X130166Y288719D01*
X130966Y288319D01*
X131766Y288719D01*
X131366Y287919D01*
X131766Y287119D01*
X130966Y287519D01*
X130166Y287119D01*
X122952Y292236D02*
X123352Y293036D01*
X122952Y293836D01*
X123752Y293436D01*
X124552Y293836D01*
X124152Y293036D01*
X124552Y292236D01*
X123752Y292636D01*
X122952Y292236D01*
X126713Y321961D02*
X127113Y322761D01*
X126713Y323561D01*
X127513Y323161D01*
X128313Y323561D01*
X127913Y322761D01*
X128313Y321961D01*
X127513Y322361D01*
X126713Y321961D01*
X130560Y319402D02*
X130960Y320202D01*
X130560Y321002D01*
X131360Y320602D01*
X132160Y321002D01*
X131760Y320202D01*
X132160Y319402D01*
X131360Y319802D01*
X130560Y319402D01*
X123346Y324520D02*
X123746Y325320D01*
X123346Y326120D01*
X124146Y325720D01*
X124946Y326120D01*
X124546Y325320D01*
X124946Y324520D01*
X124146Y324920D01*
X123346Y324520D01*
X126319Y354639D02*
X126719Y355439D01*
X126319Y356239D01*
X127119Y355839D01*
X127919Y356239D01*
X127519Y355439D01*
X127919Y354639D01*
X127119Y355039D01*
X126319Y354639D01*
X130166Y352080D02*
X130566Y352880D01*
X130166Y353679D01*
X130966Y353279D01*
X131766Y353679D01*
X131366Y352880D01*
X131766Y352080D01*
X130966Y352480D01*
X130166Y352080D01*
X122952Y357197D02*
X123352Y357997D01*
X122952Y358797D01*
X123752Y358397D01*
X124552Y358797D01*
X124152Y357997D01*
X124552Y357197D01*
X123752Y357597D01*
X122952Y357197D01*
X126221Y387709D02*
X126620Y388509D01*
X126221Y389309D01*
X127021Y388909D01*
X127821Y389309D01*
X127420Y388509D01*
X127821Y387709D01*
X127021Y388109D01*
X126221Y387709D01*
X130068Y385150D02*
X130468Y385950D01*
X130068Y386750D01*
X130868Y386350D01*
X131668Y386750D01*
X131268Y385950D01*
X131668Y385150D01*
X130868Y385550D01*
X130068Y385150D01*
X122854Y390268D02*
X123254Y391068D01*
X122854Y391868D01*
X123653Y391468D01*
X124453Y391868D01*
X124054Y391068D01*
X124453Y390268D01*
X123653Y390668D01*
X122854Y390268D01*
X126319Y419993D02*
X126719Y420793D01*
X126319Y421593D01*
X127119Y421193D01*
X127919Y421593D01*
X127519Y420793D01*
X127919Y419993D01*
X127119Y420393D01*
X126319Y419993D01*
X130166Y417434D02*
X130566Y418234D01*
X130166Y419034D01*
X130966Y418634D01*
X131766Y419034D01*
X131366Y418234D01*
X131766Y417434D01*
X130966Y417834D01*
X130166Y417434D01*
X122952Y422551D02*
X123352Y423351D01*
X122952Y424151D01*
X123752Y423751D01*
X124552Y424151D01*
X124152Y423351D01*
X124552Y422551D01*
X123752Y422951D01*
X122952Y422551D01*
X126221Y452670D02*
X126620Y453470D01*
X126221Y454270D01*
X127021Y453870D01*
X127821Y454270D01*
X127420Y453470D01*
X127821Y452670D01*
X127021Y453070D01*
X126221Y452670D01*
X130068Y450111D02*
X130468Y450911D01*
X130068Y451711D01*
X130868Y451311D01*
X131668Y451711D01*
X131268Y450911D01*
X131668Y450111D01*
X130868Y450511D01*
X130068Y450111D01*
X125827Y485741D02*
X126227Y486541D01*
X125827Y487341D01*
X126627Y486941D01*
X127427Y487341D01*
X127027Y486541D01*
X127427Y485741D01*
X126627Y486141D01*
X125827Y485741D01*
X129674Y483182D02*
X130074Y483982D01*
X129674Y484782D01*
X130474Y484382D01*
X131274Y484782D01*
X130874Y483982D01*
X131274Y483182D01*
X130474Y483582D01*
X129674Y483182D01*
X122460Y488299D02*
X122860Y489099D01*
X122460Y489899D01*
X123260Y489499D01*
X124060Y489899D01*
X123660Y489099D01*
X124060Y488299D01*
X123260Y488699D01*
X122460Y488299D01*
X125567Y518859D02*
X125967Y519659D01*
X125567Y520459D01*
X126367Y520059D01*
X127167Y520459D01*
X126767Y519659D01*
X127167Y518859D01*
X126367Y519259D01*
X125567Y518859D01*
X122200Y521417D02*
X122600Y522217D01*
X122200Y523017D01*
X123000Y522617D01*
X123800Y523017D01*
X123400Y522217D01*
X123800Y521417D01*
X123000Y521817D01*
X122200Y521417D01*
Y554048D02*
X122600Y554848D01*
X122200Y555648D01*
X123000Y555248D01*
X123800Y555648D01*
X123400Y554848D01*
X123800Y554048D01*
X123000Y554448D01*
X122200Y554048D01*
X122811Y587119D02*
X123211Y587919D01*
X122811Y588719D01*
X123611Y588319D01*
X124411Y588719D01*
X124011Y587919D01*
X124411Y587119D01*
X123611Y587519D01*
X122811Y587119D01*
X129414Y548931D02*
X129814Y549731D01*
X129414Y550531D01*
X130214Y550131D01*
X131014Y550531D01*
X130614Y549731D01*
X131014Y548931D01*
X130214Y549331D01*
X129414Y548931D01*
X125567Y551490D02*
X125967Y552290D01*
X125567Y553090D01*
X126367Y552690D01*
X127167Y553090D01*
X126767Y552290D01*
X127167Y551490D01*
X126367Y551890D01*
X125567Y551490D01*
X126354Y584560D02*
X126754Y585360D01*
X126354Y586160D01*
X127154Y585760D01*
X127954Y586160D01*
X127554Y585360D01*
X127954Y584560D01*
X127154Y584960D01*
X126354Y584560D01*
X130201Y582001D02*
X130601Y582801D01*
X130201Y583601D01*
X131001Y583201D01*
X131801Y583601D01*
X131401Y582801D01*
X131801Y582001D01*
X131001Y582401D01*
X130201Y582001D01*
D11*
X376462Y500918D02*
G03*
X376462Y500918I-800J0D01*
G01*
X386462D02*
G03*
X386462Y500918I-800J0D01*
G01*
X376462Y490918D02*
G03*
X376462Y490918I-800J0D01*
G01*
X386462D02*
G03*
X386462Y490918I-800J0D01*
G01*
X376462Y480918D02*
G03*
X376462Y480918I-800J0D01*
G01*
X386462D02*
G03*
X386462Y480918I-800J0D01*
G01*
X376462Y470918D02*
G03*
X376462Y470918I-800J0D01*
G01*
X386462D02*
G03*
X386462Y470918I-800J0D01*
G01*
X376462Y460918D02*
G03*
X376462Y460918I-800J0D01*
G01*
X386462D02*
G03*
X386462Y460918I-800J0D01*
G01*
X376462Y450918D02*
G03*
X376462Y450918I-800J0D01*
G01*
X386462D02*
G03*
X386462Y450918I-800J0D01*
G01*
X379762Y515618D02*
G03*
X379762Y515618I-800J0D01*
G01*
Y525618D02*
G03*
X379762Y525618I-800J0D01*
G01*
Y535618D02*
G03*
X379762Y535618I-800J0D01*
G01*
Y545618D02*
G03*
X379762Y545618I-800J0D01*
G01*
M02*
