G04*
G04 #@! TF.GenerationSoftware,Altium Limited,Altium Designer,18.1.9 (240)*
G04*
G04 Layer_Color=128*
%FSLAX25Y25*%
%MOIN*%
G70*
G01*
G75*
%ADD10C,0.00200*%
D10*
X413113Y456430D02*
X425613D01*
X419363Y450180D02*
Y462680D01*
X397612Y567818D02*
X410112D01*
X403862Y561568D02*
Y574068D01*
X397712Y251018D02*
X410212D01*
X403962Y244768D02*
Y257268D01*
X373891Y500918D02*
X377434D01*
X375662Y499147D02*
Y502690D01*
X383891Y500918D02*
X387434D01*
X385662Y499147D02*
Y502690D01*
X373891Y490918D02*
X377434D01*
X375662Y489147D02*
Y492690D01*
X383891Y490918D02*
X387434D01*
X385662Y489147D02*
Y492690D01*
X373891Y480918D02*
X377434D01*
X375662Y479147D02*
Y482690D01*
X383891Y480918D02*
X387434D01*
X385662Y479147D02*
Y482690D01*
X373891Y470918D02*
X377434D01*
X375662Y469147D02*
Y472690D01*
X383891Y470918D02*
X387434D01*
X385662Y469147D02*
Y472690D01*
X373891Y460918D02*
X377434D01*
X375662Y459147D02*
Y462690D01*
X383891Y460918D02*
X387434D01*
X385662Y459147D02*
Y462690D01*
X373891Y450918D02*
X377434D01*
X375662Y449147D02*
Y452690D01*
X383891Y450918D02*
X387434D01*
X385662Y449147D02*
Y452690D01*
X94850Y51900D02*
X107350D01*
X101100Y45650D02*
Y58150D01*
X95150Y767400D02*
X107650D01*
X101400Y761150D02*
Y773650D01*
X413113Y495406D02*
X425613D01*
X419363Y489156D02*
Y501656D01*
X365778Y372518D02*
X368928D01*
X367353Y370943D02*
Y374093D01*
X390187Y372518D02*
X393337D01*
X391762Y370943D02*
Y374093D01*
X376408Y391022D02*
X379557D01*
X377983Y389447D02*
Y392597D01*
X377191Y515618D02*
X380734D01*
X378962Y513847D02*
Y517390D01*
X377191Y525618D02*
X380734D01*
X378962Y523847D02*
Y527390D01*
X377191Y535618D02*
X380734D01*
X378962Y533847D02*
Y537390D01*
X377191Y545618D02*
X380734D01*
X378962Y543847D02*
Y547390D01*
X229400Y475000D02*
X230600D01*
X230000Y474400D02*
Y475600D01*
X229400Y465000D02*
X230600D01*
X230000Y464400D02*
Y465600D01*
X229400Y455000D02*
X230600D01*
X230000Y454400D02*
Y455600D01*
X224400Y475000D02*
X225600D01*
X225000Y474400D02*
Y475600D01*
X226900Y470000D02*
X228100D01*
X227500Y469400D02*
Y470600D01*
X224400Y465000D02*
X225600D01*
X225000Y464400D02*
Y465600D01*
X226900Y460000D02*
X228100D01*
X227500Y459400D02*
Y460600D01*
X224400Y455000D02*
X225600D01*
X225000Y454400D02*
Y455600D01*
X219400Y475000D02*
X220600D01*
X220000Y474400D02*
Y475600D01*
X221900Y470000D02*
X223100D01*
X222500Y469400D02*
Y470600D01*
X219400Y465000D02*
X220600D01*
X220000Y464400D02*
Y465600D01*
X221900Y460000D02*
X223100D01*
X222500Y459400D02*
Y460600D01*
X219400Y455000D02*
X220600D01*
X220000Y454400D02*
Y455600D01*
X214400Y475000D02*
X215600D01*
X215000Y474400D02*
Y475600D01*
X216900Y470000D02*
X218100D01*
X217500Y469400D02*
Y470600D01*
X214400Y465000D02*
X215600D01*
X215000Y464400D02*
Y465600D01*
X216900Y460000D02*
X218100D01*
X217500Y459400D02*
Y460600D01*
X214400Y455000D02*
X215600D01*
X215000Y454400D02*
Y455600D01*
X209400Y475000D02*
X210600D01*
X210000Y474400D02*
Y475600D01*
X211900Y470000D02*
X213100D01*
X212500Y469400D02*
Y470600D01*
X209400Y465000D02*
X210600D01*
X210000Y464400D02*
Y465600D01*
X211900Y460000D02*
X213100D01*
X212500Y459400D02*
Y460600D01*
X209400Y455000D02*
X210600D01*
X210000Y454400D02*
Y455600D01*
X204400Y475000D02*
X205600D01*
X205000Y474400D02*
Y475600D01*
X206900Y470000D02*
X208100D01*
X207500Y469400D02*
Y470600D01*
X204400Y465000D02*
X205600D01*
X205000Y464400D02*
Y465600D01*
X206900Y460000D02*
X208100D01*
X207500Y459400D02*
Y460600D01*
X204400Y455000D02*
X205600D01*
X205000Y454400D02*
Y455600D01*
X199400Y475000D02*
X200600D01*
X200000Y474400D02*
Y475600D01*
X201900Y470000D02*
X203100D01*
X202500Y469400D02*
Y470600D01*
X199400Y465000D02*
X200600D01*
X200000Y464400D02*
Y465600D01*
X201900Y460000D02*
X203100D01*
X202500Y459400D02*
Y460600D01*
X199400Y455000D02*
X200600D01*
X200000Y454400D02*
Y455600D01*
X194400Y475000D02*
X195600D01*
X195000Y474400D02*
Y475600D01*
X196900Y470000D02*
X198100D01*
X197500Y469400D02*
Y470600D01*
X194400Y465000D02*
X195600D01*
X195000Y464400D02*
Y465600D01*
X196900Y460000D02*
X198100D01*
X197500Y459400D02*
Y460600D01*
X194400Y455000D02*
X195600D01*
X195000Y454400D02*
Y455600D01*
X189400Y475000D02*
X190600D01*
X190000Y474400D02*
Y475600D01*
X191900Y470000D02*
X193100D01*
X192500Y469400D02*
Y470600D01*
X189400Y465000D02*
X190600D01*
X190000Y464400D02*
Y465600D01*
X191900Y460000D02*
X193100D01*
X192500Y459400D02*
Y460600D01*
X189400Y455000D02*
X190600D01*
X190000Y454400D02*
Y455600D01*
X184400Y475000D02*
X185600D01*
X185000Y474400D02*
Y475600D01*
X186900Y470000D02*
X188100D01*
X187500Y469400D02*
Y470600D01*
X184400Y465000D02*
X185600D01*
X185000Y464400D02*
Y465600D01*
X186900Y460000D02*
X188100D01*
X187500Y459400D02*
Y460600D01*
X184400Y455000D02*
X185600D01*
X185000Y454400D02*
Y455600D01*
X231900Y370000D02*
X233100D01*
X232500Y369400D02*
Y370600D01*
X229400Y365000D02*
X230600D01*
X230000Y364400D02*
Y365600D01*
X231900Y360000D02*
X233100D01*
X232500Y359400D02*
Y360600D01*
X229400Y355000D02*
X230600D01*
X230000Y354400D02*
Y355600D01*
X231900Y350000D02*
X233100D01*
X232500Y349400D02*
Y350600D01*
X229400Y345000D02*
X230600D01*
X230000Y344400D02*
Y345600D01*
X226900Y370000D02*
X228100D01*
X227500Y369400D02*
Y370600D01*
X224400Y365000D02*
X225600D01*
X225000Y364400D02*
Y365600D01*
X226900Y360000D02*
X228100D01*
X227500Y359400D02*
Y360600D01*
X224400Y355000D02*
X225600D01*
X225000Y354400D02*
Y355600D01*
X226900Y350000D02*
X228100D01*
X227500Y349400D02*
Y350600D01*
X224400Y345000D02*
X225600D01*
X225000Y344400D02*
Y345600D01*
X221900Y370000D02*
X223100D01*
X222500Y369400D02*
Y370600D01*
X219400Y365000D02*
X220600D01*
X220000Y364400D02*
Y365600D01*
X221900Y360000D02*
X223100D01*
X222500Y359400D02*
Y360600D01*
X219400Y355000D02*
X220600D01*
X220000Y354400D02*
Y355600D01*
X221900Y350000D02*
X223100D01*
X222500Y349400D02*
Y350600D01*
X219400Y345000D02*
X220600D01*
X220000Y344400D02*
Y345600D01*
X216900Y370000D02*
X218100D01*
X217500Y369400D02*
Y370600D01*
X214400Y365000D02*
X215600D01*
X215000Y364400D02*
Y365600D01*
X216900Y360000D02*
X218100D01*
X217500Y359400D02*
Y360600D01*
X214400Y355000D02*
X215600D01*
X215000Y354400D02*
Y355600D01*
X216900Y350000D02*
X218100D01*
X217500Y349400D02*
Y350600D01*
X214400Y345000D02*
X215600D01*
X215000Y344400D02*
Y345600D01*
X211900Y370000D02*
X213100D01*
X212500Y369400D02*
Y370600D01*
X209400Y365000D02*
X210600D01*
X210000Y364400D02*
Y365600D01*
X211900Y360000D02*
X213100D01*
X212500Y359400D02*
Y360600D01*
X209400Y355000D02*
X210600D01*
X210000Y354400D02*
Y355600D01*
X211900Y350000D02*
X213100D01*
X212500Y349400D02*
Y350600D01*
X209400Y345000D02*
X210600D01*
X210000Y344400D02*
Y345600D01*
X206900Y370000D02*
X208100D01*
X207500Y369400D02*
Y370600D01*
X204400Y365000D02*
X205600D01*
X205000Y364400D02*
Y365600D01*
X206900Y360000D02*
X208100D01*
X207500Y359400D02*
Y360600D01*
X204400Y355000D02*
X205600D01*
X205000Y354400D02*
Y355600D01*
X206900Y350000D02*
X208100D01*
X207500Y349400D02*
Y350600D01*
X204400Y345000D02*
X205600D01*
X205000Y344400D02*
Y345600D01*
X201900Y370000D02*
X203100D01*
X202500Y369400D02*
Y370600D01*
X199400Y365000D02*
X200600D01*
X200000Y364400D02*
Y365600D01*
X201900Y360000D02*
X203100D01*
X202500Y359400D02*
Y360600D01*
X199400Y355000D02*
X200600D01*
X200000Y354400D02*
Y355600D01*
X201900Y350000D02*
X203100D01*
X202500Y349400D02*
Y350600D01*
X199400Y345000D02*
X200600D01*
X200000Y344400D02*
Y345600D01*
X196900Y370000D02*
X198100D01*
X197500Y369400D02*
Y370600D01*
X194400Y365000D02*
X195600D01*
X195000Y364400D02*
Y365600D01*
X196900Y360000D02*
X198100D01*
X197500Y359400D02*
Y360600D01*
X194400Y355000D02*
X195600D01*
X195000Y354400D02*
Y355600D01*
X196900Y350000D02*
X198100D01*
X197500Y349400D02*
Y350600D01*
X194400Y345000D02*
X195600D01*
X195000Y344400D02*
Y345600D01*
X191900Y370000D02*
X193100D01*
X192500Y369400D02*
Y370600D01*
X189400Y365000D02*
X190600D01*
X190000Y364400D02*
Y365600D01*
X191900Y360000D02*
X193100D01*
X192500Y359400D02*
Y360600D01*
X189400Y355000D02*
X190600D01*
X190000Y354400D02*
Y355600D01*
X191900Y350000D02*
X193100D01*
X192500Y349400D02*
Y350600D01*
X189400Y345000D02*
X190600D01*
X190000Y344400D02*
Y345600D01*
X186900Y370000D02*
X188100D01*
X187500Y369400D02*
Y370600D01*
X184400Y365000D02*
X185600D01*
X185000Y364400D02*
Y365600D01*
X186900Y360000D02*
X188100D01*
X187500Y359400D02*
Y360600D01*
X184400Y355000D02*
X185600D01*
X185000Y354400D02*
Y355600D01*
X186900Y350000D02*
X188100D01*
X187500Y349400D02*
Y350600D01*
X184400Y345000D02*
X185600D01*
X185000Y344400D02*
Y345600D01*
X279700Y236600D02*
X280900D01*
X280300Y236000D02*
Y237200D01*
X285600Y242400D02*
X286800D01*
X286200Y241800D02*
Y243000D01*
X257000Y325965D02*
X258200D01*
X257600Y325365D02*
Y326565D01*
X270700Y251500D02*
X271900D01*
X271300Y250900D02*
Y252100D01*
X264800Y276200D02*
X266000D01*
X265400Y275600D02*
Y276800D01*
X341062Y462818D02*
X342262D01*
X341662Y462218D02*
Y463418D01*
X341939Y465118D02*
X343139D01*
X342539Y464518D02*
Y465718D01*
X213500Y552100D02*
X214700D01*
X214100Y551500D02*
Y552700D01*
X213900Y502200D02*
X215100D01*
X214500Y501600D02*
Y502800D01*
X213277Y438800D02*
X214477D01*
X213877Y438200D02*
Y439400D01*
X213900Y388858D02*
X215100D01*
X214500Y388258D02*
Y389458D01*
X213400Y325950D02*
X214600D01*
X214000Y325350D02*
Y326550D01*
X211959Y277000D02*
X213159D01*
X212559Y276400D02*
Y277600D01*
X240159Y556359D02*
X241359D01*
X240759Y555759D02*
Y556959D01*
X239200Y507563D02*
X240400D01*
X239800Y506963D02*
Y508163D01*
X240400Y500700D02*
X241600D01*
X241000Y500100D02*
Y501300D01*
X238932Y448000D02*
X240132D01*
X239532Y447400D02*
Y448600D01*
X238305Y433205D02*
X239505D01*
X238905Y432605D02*
Y433805D01*
X237100Y394231D02*
X238300D01*
X237700Y393631D02*
Y394831D01*
X239100Y386800D02*
X240300D01*
X239700Y386200D02*
Y387400D01*
X238840Y334700D02*
X240040D01*
X239440Y334100D02*
Y335300D01*
X239600Y322657D02*
X240800D01*
X240200Y322057D02*
Y323257D01*
X238300Y281763D02*
X239500D01*
X238900Y281163D02*
Y282363D01*
X238500Y274100D02*
X239700D01*
X239100Y273500D02*
Y274700D01*
X307159Y508127D02*
X308360D01*
X307759Y507527D02*
Y508727D01*
X309943Y510911D02*
X311143D01*
X310543Y510311D02*
Y511511D01*
X307948Y510122D02*
X309148D01*
X308548Y509522D02*
Y510722D01*
X310732Y512906D02*
X311932D01*
X311332Y512305D02*
Y513506D01*
X140918Y483982D02*
X142118D01*
X141518Y483382D02*
Y484582D01*
X140900Y486541D02*
X142100D01*
X141500Y485941D02*
Y487141D01*
X182700Y279100D02*
X183900D01*
X183300Y278500D02*
Y279700D01*
X182799Y322800D02*
X183999D01*
X183399Y322200D02*
Y323400D01*
X182400Y390868D02*
X183600D01*
X183000Y390268D02*
Y391468D01*
X182318Y436168D02*
X183518D01*
X182918Y435568D02*
Y436768D01*
X183259Y504700D02*
X184459D01*
X183859Y504100D02*
Y505300D01*
X182358Y549200D02*
X183558D01*
X182958Y548600D02*
Y549800D01*
X183100Y413700D02*
X184300D01*
X183700Y413100D02*
Y414300D01*
X183600Y526500D02*
X184800D01*
X184200Y525900D02*
Y527100D01*
Y300300D02*
X185400D01*
X184800Y299700D02*
Y300900D01*
X208000Y563100D02*
X209200D01*
X208600Y562500D02*
Y563700D01*
X209700Y565500D02*
X210900D01*
X210300Y564900D02*
Y566100D01*
X216300Y569200D02*
X217500D01*
X216900Y568600D02*
Y569800D01*
X168900Y496900D02*
X170100D01*
X169500Y496300D02*
Y497500D01*
X231359Y427441D02*
X232559D01*
X231959Y426841D02*
Y428041D01*
X211959Y430059D02*
X213159D01*
X212559Y429459D02*
Y430659D01*
X211959Y396059D02*
X213159D01*
X212559Y395459D02*
Y396659D01*
X231359Y399659D02*
X232559D01*
X231959Y399059D02*
Y400259D01*
X212300Y317900D02*
X213500D01*
X212900Y317300D02*
Y318500D01*
X231000Y314300D02*
X232200D01*
X231600Y313700D02*
Y314900D01*
X231000Y286800D02*
X232200D01*
X231600Y286200D02*
Y287400D01*
X212300Y283148D02*
X213500D01*
X212900Y282548D02*
Y283748D01*
X231159Y513400D02*
X232359D01*
X231759Y512800D02*
Y514000D01*
X231159Y541059D02*
X232359D01*
X231759Y540459D02*
Y541659D01*
X212259Y543459D02*
X213459D01*
X212859Y542859D02*
Y544059D01*
X212259Y510500D02*
X213459D01*
X212859Y509900D02*
Y511100D01*
X167895Y555500D02*
X169095D01*
X168495Y554900D02*
Y556100D01*
X168858Y523000D02*
X170058D01*
X169458Y522400D02*
Y523600D01*
X169506Y456869D02*
X170706D01*
X170106Y456269D02*
Y457469D01*
X169561Y423798D02*
X170761D01*
X170161Y423198D02*
Y424398D01*
X169868Y391712D02*
X171068D01*
X170468Y391112D02*
Y392312D01*
X169506Y358641D02*
X170705D01*
X170106Y358041D02*
Y359241D01*
X170293Y325964D02*
X171493D01*
X170893Y325364D02*
Y326564D01*
X169574Y293680D02*
X170774D01*
X170175Y293080D02*
Y294280D01*
X168945Y588700D02*
X170445D01*
X169695Y587950D02*
Y589450D01*
X170095Y260900D02*
X171295D01*
X170695Y260300D02*
Y261500D01*
X365362Y492318D02*
X366562D01*
X365962Y491718D02*
Y492918D01*
X362162Y494207D02*
X363362D01*
X362762Y493607D02*
Y494807D01*
X351262Y408518D02*
X352462D01*
X351862Y407918D02*
Y409118D01*
X148100Y117267D02*
X149300D01*
X148700Y116667D02*
Y117867D01*
X286962Y434018D02*
X288962D01*
X287962Y433018D02*
Y435018D01*
X264087Y412618D02*
X266087D01*
X265087Y411618D02*
Y413618D01*
X76750Y205000D02*
X78250D01*
X77500Y204250D02*
Y205750D01*
X74250Y200000D02*
X75750D01*
X75000Y199250D02*
Y200750D01*
X76750Y195000D02*
X78250D01*
X77500Y194250D02*
Y195750D01*
X74250Y190000D02*
X75750D01*
X75000Y189250D02*
Y190750D01*
X76750Y185000D02*
X78250D01*
X77500Y184250D02*
Y185750D01*
X74250Y180000D02*
X75750D01*
X75000Y179250D02*
Y180750D01*
X76750Y175000D02*
X78250D01*
X77500Y174250D02*
Y175750D01*
X74250Y170000D02*
X75750D01*
X75000Y169250D02*
Y170750D01*
X76750Y165000D02*
X78250D01*
X77500Y164250D02*
Y165750D01*
X74250Y160000D02*
X75750D01*
X75000Y159250D02*
Y160750D01*
X76750Y155000D02*
X78250D01*
X77500Y154250D02*
Y155750D01*
X74250Y150000D02*
X75750D01*
X75000Y149250D02*
Y150750D01*
X76750Y145000D02*
X78250D01*
X77500Y144250D02*
Y145750D01*
X74250Y140000D02*
X75750D01*
X75000Y139250D02*
Y140750D01*
X76750Y135000D02*
X78250D01*
X77500Y134250D02*
Y135750D01*
X74250Y130000D02*
X75750D01*
X75000Y129250D02*
Y130750D01*
X76750Y125000D02*
X78250D01*
X77500Y124250D02*
Y125750D01*
X74250Y120000D02*
X75750D01*
X75000Y119250D02*
Y120750D01*
X76750Y115000D02*
X78250D01*
X77500Y114250D02*
Y115750D01*
X74250Y110000D02*
X75750D01*
X75000Y109250D02*
Y110750D01*
X71750Y205000D02*
X73250D01*
X72500Y204250D02*
Y205750D01*
X69250Y200000D02*
X70750D01*
X70000Y199250D02*
Y200750D01*
X71750Y195000D02*
X73250D01*
X72500Y194250D02*
Y195750D01*
X69250Y190000D02*
X70750D01*
X70000Y189250D02*
Y190750D01*
X71750Y185000D02*
X73250D01*
X72500Y184250D02*
Y185750D01*
X69250Y180000D02*
X70750D01*
X70000Y179250D02*
Y180750D01*
X71750Y175000D02*
X73250D01*
X72500Y174250D02*
Y175750D01*
X69250Y170000D02*
X70750D01*
X70000Y169250D02*
Y170750D01*
X71750Y165000D02*
X73250D01*
X72500Y164250D02*
Y165750D01*
X69250Y160000D02*
X70750D01*
X70000Y159250D02*
Y160750D01*
X71750Y155000D02*
X73250D01*
X72500Y154250D02*
Y155750D01*
X69250Y150000D02*
X70750D01*
X70000Y149250D02*
Y150750D01*
X71750Y145000D02*
X73250D01*
X72500Y144250D02*
Y145750D01*
X69250Y140000D02*
X70750D01*
X70000Y139250D02*
Y140750D01*
X71750Y135000D02*
X73250D01*
X72500Y134250D02*
Y135750D01*
X69250Y130000D02*
X70750D01*
X70000Y129250D02*
Y130750D01*
X71750Y125000D02*
X73250D01*
X72500Y124250D02*
Y125750D01*
X69250Y120000D02*
X70750D01*
X70000Y119250D02*
Y120750D01*
X71750Y115000D02*
X73250D01*
X72500Y114250D02*
Y115750D01*
X69250Y110000D02*
X70750D01*
X70000Y109250D02*
Y110750D01*
X66750Y205000D02*
X68250D01*
X67500Y204250D02*
Y205750D01*
X66750Y195000D02*
X68250D01*
X67500Y194250D02*
Y195750D01*
X66750Y185000D02*
X68250D01*
X67500Y184250D02*
Y185750D01*
X66750Y175000D02*
X68250D01*
X67500Y174250D02*
Y175750D01*
X66750Y165000D02*
X68250D01*
X67500Y164250D02*
Y165750D01*
X66750Y155000D02*
X68250D01*
X67500Y154250D02*
Y155750D01*
X66750Y145000D02*
X68250D01*
X67500Y144250D02*
Y145750D01*
X66750Y135000D02*
X68250D01*
X67500Y134250D02*
Y135750D01*
X66750Y125000D02*
X68250D01*
X67500Y124250D02*
Y125750D01*
X66750Y115000D02*
X68250D01*
X67500Y114250D02*
Y115750D01*
X76750Y710000D02*
X78250D01*
X77500Y709250D02*
Y710750D01*
X74250Y705000D02*
X75750D01*
X75000Y704250D02*
Y705750D01*
X76750Y700000D02*
X78250D01*
X77500Y699250D02*
Y700750D01*
X74250Y695000D02*
X75750D01*
X75000Y694250D02*
Y695750D01*
X76750Y690000D02*
X78250D01*
X77500Y689250D02*
Y690750D01*
X74250Y685000D02*
X75750D01*
X75000Y684250D02*
Y685750D01*
X76750Y680000D02*
X78250D01*
X77500Y679250D02*
Y680750D01*
X74250Y675000D02*
X75750D01*
X75000Y674250D02*
Y675750D01*
X76750Y670000D02*
X78250D01*
X77500Y669250D02*
Y670750D01*
X74250Y665000D02*
X75750D01*
X75000Y664250D02*
Y665750D01*
X76750Y660000D02*
X78250D01*
X77500Y659250D02*
Y660750D01*
X74250Y655000D02*
X75750D01*
X75000Y654250D02*
Y655750D01*
X76750Y650000D02*
X78250D01*
X77500Y649250D02*
Y650750D01*
X74250Y645000D02*
X75750D01*
X75000Y644250D02*
Y645750D01*
X76750Y640000D02*
X78250D01*
X77500Y639250D02*
Y640750D01*
X74250Y635000D02*
X75750D01*
X75000Y634250D02*
Y635750D01*
X76750Y630000D02*
X78250D01*
X77500Y629250D02*
Y630750D01*
X74250Y625000D02*
X75750D01*
X75000Y624250D02*
Y625750D01*
X76750Y620000D02*
X78250D01*
X77500Y619250D02*
Y620750D01*
X74250Y615000D02*
X75750D01*
X75000Y614250D02*
Y615750D01*
X71750Y710000D02*
X73250D01*
X72500Y709250D02*
Y710750D01*
X69250Y705000D02*
X70750D01*
X70000Y704250D02*
Y705750D01*
X71750Y700000D02*
X73250D01*
X72500Y699250D02*
Y700750D01*
X69250Y695000D02*
X70750D01*
X70000Y694250D02*
Y695750D01*
X71750Y690000D02*
X73250D01*
X72500Y689250D02*
Y690750D01*
X69250Y685000D02*
X70750D01*
X70000Y684250D02*
Y685750D01*
X71750Y680000D02*
X73250D01*
X72500Y679250D02*
Y680750D01*
X69250Y675000D02*
X70750D01*
X70000Y674250D02*
Y675750D01*
X71750Y670000D02*
X73250D01*
X72500Y669250D02*
Y670750D01*
X69250Y665000D02*
X70750D01*
X70000Y664250D02*
Y665750D01*
X71750Y660000D02*
X73250D01*
X72500Y659250D02*
Y660750D01*
X69250Y655000D02*
X70750D01*
X70000Y654250D02*
Y655750D01*
X71750Y650000D02*
X73250D01*
X72500Y649250D02*
Y650750D01*
X69250Y645000D02*
X70750D01*
X70000Y644250D02*
Y645750D01*
X71750Y640000D02*
X73250D01*
X72500Y639250D02*
Y640750D01*
X69250Y635000D02*
X70750D01*
X70000Y634250D02*
Y635750D01*
X71750Y630000D02*
X73250D01*
X72500Y629250D02*
Y630750D01*
X69250Y625000D02*
X70750D01*
X70000Y624250D02*
Y625750D01*
X71750Y620000D02*
X73250D01*
X72500Y619250D02*
Y620750D01*
X69250Y615000D02*
X70750D01*
X70000Y614250D02*
Y615750D01*
X66750Y710000D02*
X68250D01*
X67500Y709250D02*
Y710750D01*
X66750Y700000D02*
X68250D01*
X67500Y699250D02*
Y700750D01*
X66750Y690000D02*
X68250D01*
X67500Y689250D02*
Y690750D01*
X66750Y680000D02*
X68250D01*
X67500Y679250D02*
Y680750D01*
X66750Y670000D02*
X68250D01*
X67500Y669250D02*
Y670750D01*
X66750Y660000D02*
X68250D01*
X67500Y659250D02*
Y660750D01*
X66750Y650000D02*
X68250D01*
X67500Y649250D02*
Y650750D01*
X66750Y640000D02*
X68250D01*
X67500Y639250D02*
Y640750D01*
X66750Y630000D02*
X68250D01*
X67500Y629250D02*
Y630750D01*
X66750Y620000D02*
X68250D01*
X67500Y619250D02*
Y620750D01*
X74250Y365000D02*
X75750D01*
X75000Y364250D02*
Y365750D01*
X76750Y360000D02*
X78250D01*
X77500Y359250D02*
Y360750D01*
X74250Y355000D02*
X75750D01*
X75000Y354250D02*
Y355750D01*
X76750Y350000D02*
X78250D01*
X77500Y349250D02*
Y350750D01*
X74250Y345000D02*
X75750D01*
X75000Y344250D02*
Y345750D01*
X76750Y340000D02*
X78250D01*
X77500Y339250D02*
Y340750D01*
X74250Y335000D02*
X75750D01*
X75000Y334250D02*
Y335750D01*
X76750Y330000D02*
X78250D01*
X77500Y329250D02*
Y330750D01*
X74250Y325000D02*
X75750D01*
X75000Y324250D02*
Y325750D01*
X76750Y320000D02*
X78250D01*
X77500Y319250D02*
Y320750D01*
X74250Y315000D02*
X75750D01*
X75000Y314250D02*
Y315750D01*
X76750Y310000D02*
X78250D01*
X77500Y309250D02*
Y310750D01*
X74250Y305000D02*
X75750D01*
X75000Y304250D02*
Y305750D01*
X76750Y300000D02*
X78250D01*
X77500Y299250D02*
Y300750D01*
X74250Y295000D02*
X75750D01*
X75000Y294250D02*
Y295750D01*
X76750Y290000D02*
X78250D01*
X77500Y289250D02*
Y290750D01*
X74250Y285000D02*
X75750D01*
X75000Y284250D02*
Y285750D01*
X69250Y365000D02*
X70750D01*
X70000Y364250D02*
Y365750D01*
X71750Y360000D02*
X73250D01*
X72500Y359250D02*
Y360750D01*
X69250Y355000D02*
X70750D01*
X70000Y354250D02*
Y355750D01*
X71750Y350000D02*
X73250D01*
X72500Y349250D02*
Y350750D01*
X69250Y345000D02*
X70750D01*
X70000Y344250D02*
Y345750D01*
X71750Y340000D02*
X73250D01*
X72500Y339250D02*
Y340750D01*
X69250Y335000D02*
X70750D01*
X70000Y334250D02*
Y335750D01*
X71750Y330000D02*
X73250D01*
X72500Y329250D02*
Y330750D01*
X69250Y325000D02*
X70750D01*
X70000Y324250D02*
Y325750D01*
X71750Y320000D02*
X73250D01*
X72500Y319250D02*
Y320750D01*
X69250Y315000D02*
X70750D01*
X70000Y314250D02*
Y315750D01*
X71750Y310000D02*
X73250D01*
X72500Y309250D02*
Y310750D01*
X69250Y305000D02*
X70750D01*
X70000Y304250D02*
Y305750D01*
X71750Y300000D02*
X73250D01*
X72500Y299250D02*
Y300750D01*
X69250Y295000D02*
X70750D01*
X70000Y294250D02*
Y295750D01*
X71750Y290000D02*
X73250D01*
X72500Y289250D02*
Y290750D01*
X69250Y285000D02*
X70750D01*
X70000Y284250D02*
Y285750D01*
X66750Y360000D02*
X68250D01*
X67500Y359250D02*
Y360750D01*
X66750Y350000D02*
X68250D01*
X67500Y349250D02*
Y350750D01*
X66750Y340000D02*
X68250D01*
X67500Y339250D02*
Y340750D01*
X66750Y330000D02*
X68250D01*
X67500Y329250D02*
Y330750D01*
X66750Y320000D02*
X68250D01*
X67500Y319250D02*
Y320750D01*
X66750Y310000D02*
X68250D01*
X67500Y309250D02*
Y310750D01*
X66750Y300000D02*
X68250D01*
X67500Y299250D02*
Y300750D01*
X66750Y290000D02*
X68250D01*
X67500Y289250D02*
Y290750D01*
X74250Y535000D02*
X75750D01*
X75000Y534250D02*
Y535750D01*
X74250Y525000D02*
X75750D01*
X75000Y524250D02*
Y525750D01*
X76750Y520000D02*
X78250D01*
X77500Y519250D02*
Y520750D01*
X74250Y515000D02*
X75750D01*
X75000Y514250D02*
Y515750D01*
X76750Y510000D02*
X78250D01*
X77500Y509250D02*
Y510750D01*
X74250Y505000D02*
X75750D01*
X75000Y504250D02*
Y505750D01*
X76750Y500000D02*
X78250D01*
X77500Y499250D02*
Y500750D01*
X74250Y495000D02*
X75750D01*
X75000Y494250D02*
Y495750D01*
X76750Y490000D02*
X78250D01*
X77500Y489250D02*
Y490750D01*
X74250Y485000D02*
X75750D01*
X75000Y484250D02*
Y485750D01*
X76750Y480000D02*
X78250D01*
X77500Y479250D02*
Y480750D01*
X74250Y475000D02*
X75750D01*
X75000Y474250D02*
Y475750D01*
X76750Y470000D02*
X78250D01*
X77500Y469250D02*
Y470750D01*
X74250Y465000D02*
X75750D01*
X75000Y464250D02*
Y465750D01*
X76750Y460000D02*
X78250D01*
X77500Y459250D02*
Y460750D01*
X74250Y455000D02*
X75750D01*
X75000Y454250D02*
Y455750D01*
X69250Y535000D02*
X70750D01*
X70000Y534250D02*
Y535750D01*
X71750Y530000D02*
X73250D01*
X72500Y529250D02*
Y530750D01*
X69250Y525000D02*
X70750D01*
X70000Y524250D02*
Y525750D01*
X71750Y520000D02*
X73250D01*
X72500Y519250D02*
Y520750D01*
X69250Y515000D02*
X70750D01*
X70000Y514250D02*
Y515750D01*
X71750Y510000D02*
X73250D01*
X72500Y509250D02*
Y510750D01*
X69250Y505000D02*
X70750D01*
X70000Y504250D02*
Y505750D01*
X71750Y500000D02*
X73250D01*
X72500Y499250D02*
Y500750D01*
X69250Y495000D02*
X70750D01*
X70000Y494250D02*
Y495750D01*
X71750Y490000D02*
X73250D01*
X72500Y489250D02*
Y490750D01*
X69250Y485000D02*
X70750D01*
X70000Y484250D02*
Y485750D01*
X71750Y480000D02*
X73250D01*
X72500Y479250D02*
Y480750D01*
X69250Y475000D02*
X70750D01*
X70000Y474250D02*
Y475750D01*
X71750Y470000D02*
X73250D01*
X72500Y469250D02*
Y470750D01*
X69250Y465000D02*
X70750D01*
X70000Y464250D02*
Y465750D01*
X71750Y460000D02*
X73250D01*
X72500Y459250D02*
Y460750D01*
X69250Y455000D02*
X70750D01*
X70000Y454250D02*
Y455750D01*
X66750Y530000D02*
X68250D01*
X67500Y529250D02*
Y530750D01*
X66750Y520000D02*
X68250D01*
X67500Y519250D02*
Y520750D01*
X66750Y510000D02*
X68250D01*
X67500Y509250D02*
Y510750D01*
X66750Y500000D02*
X68250D01*
X67500Y499250D02*
Y500750D01*
X66750Y490000D02*
X68250D01*
X67500Y489250D02*
Y490750D01*
X66750Y480000D02*
X68250D01*
X67500Y479250D02*
Y480750D01*
X66750Y470000D02*
X68250D01*
X67500Y469250D02*
Y470750D01*
X66750Y460000D02*
X68250D01*
X67500Y459250D02*
Y460750D01*
X318412Y449068D02*
X319612D01*
X319012Y448468D02*
Y449668D01*
X320662Y451518D02*
X321862D01*
X321262Y450918D02*
Y452118D01*
X316562Y440718D02*
X317762D01*
X317162Y440118D02*
Y441318D01*
X301212Y504468D02*
X302412D01*
X301812Y503868D02*
Y505068D01*
X307107Y491818D02*
X308307D01*
X307707Y491218D02*
Y492418D01*
X140900Y489100D02*
X142100D01*
X141500Y488500D02*
Y489700D01*
X312262Y491818D02*
X313462D01*
X312862Y491218D02*
Y492418D01*
X309662Y491918D02*
X310862D01*
X310262Y491318D02*
Y492518D01*
X292762Y494685D02*
X293962D01*
X293362Y494085D02*
Y495285D01*
X350162Y473476D02*
X351362D01*
X350762Y472875D02*
Y474076D01*
X317668Y497618D02*
X318868D01*
X318268Y497018D02*
Y498218D01*
X318052Y500018D02*
X319252D01*
X318652Y499418D02*
Y500618D01*
X318819Y504818D02*
X320020D01*
X319420Y504218D02*
Y505418D01*
X318577Y512218D02*
X319777D01*
X319177Y511618D02*
Y512818D01*
X320612Y518575D02*
X321812D01*
X321212Y517975D02*
Y519175D01*
X322462Y517271D02*
X323662D01*
X323062Y516671D02*
Y517871D01*
X318436Y502418D02*
X319636D01*
X319036Y501818D02*
Y503018D01*
X345989Y498986D02*
X347189D01*
X346589Y498386D02*
Y499586D01*
X348962Y496318D02*
X350162D01*
X349562Y495718D02*
Y496918D01*
Y494207D02*
X350762D01*
X350162Y493607D02*
Y494807D01*
X346778Y496991D02*
X347978D01*
X347378Y496391D02*
Y497591D01*
X351562Y492318D02*
X352762D01*
X352162Y491718D02*
Y492918D01*
X343994Y499775D02*
X345195D01*
X344595Y499175D02*
Y500375D01*
X240300Y101600D02*
X241500D01*
X240900Y101000D02*
Y102200D01*
X236000Y104900D02*
X237200D01*
X236600Y104300D02*
Y105500D01*
X243700Y98900D02*
X244900D01*
X244300Y98300D02*
Y99500D01*
X247000Y95900D02*
X248200D01*
X247600Y95300D02*
Y96500D01*
X236682Y131900D02*
X237882D01*
X237282Y131300D02*
Y132500D01*
X123799Y261399D02*
X124999D01*
X124399Y260799D02*
Y261999D01*
X127204Y257994D02*
X128404D01*
X127804Y257394D02*
Y258594D01*
X122800Y456000D02*
X124000D01*
X123400Y455400D02*
Y456600D01*
X275662Y440818D02*
X276862D01*
X276262Y440218D02*
Y441418D01*
X288462Y454118D02*
X289662D01*
X289062Y453518D02*
Y454718D01*
X336762Y430718D02*
X337962D01*
X337362Y430118D02*
Y431318D01*
X302612Y506068D02*
X303812D01*
X303212Y505468D02*
Y506668D01*
X321480Y471535D02*
X322679D01*
X322079Y470935D02*
Y472135D01*
X317668Y472563D02*
X318868D01*
X318268Y471963D02*
Y473163D01*
X322562Y449518D02*
X323762D01*
X323162Y448918D02*
Y450118D01*
X192300Y44200D02*
X194300D01*
X193300Y43200D02*
Y45200D01*
X156900Y230300D02*
X158900D01*
X157900Y229300D02*
Y231300D01*
X161200Y230300D02*
X163200D01*
X162200Y229300D02*
Y231300D01*
X262362Y296318D02*
X263562D01*
X262962Y295718D02*
Y296918D01*
X267162Y296418D02*
X268362D01*
X267762Y295818D02*
Y297018D01*
X267262Y300518D02*
X268462D01*
X267862Y299918D02*
Y301118D01*
X262362Y300518D02*
X263562D01*
X262962Y299918D02*
Y301118D01*
X260962Y347818D02*
X262162D01*
X261562Y347218D02*
Y348418D01*
X266262Y347818D02*
X267462D01*
X266862Y347218D02*
Y348418D01*
X266462Y351418D02*
X267662D01*
X267062Y350818D02*
Y352018D01*
X260962Y351418D02*
X262162D01*
X261562Y350818D02*
Y352018D01*
X283762Y512118D02*
X284962D01*
X284362Y511518D02*
Y512718D01*
X359862Y455318D02*
X361062D01*
X360462Y454718D02*
Y455918D01*
X366462Y423918D02*
X367662D01*
X367062Y423318D02*
Y424518D01*
X333867Y511918D02*
X335067D01*
X334467Y511318D02*
Y512518D01*
X309862Y473918D02*
X311062D01*
X310462Y473318D02*
Y474518D01*
X312762Y485078D02*
X313962D01*
X313362Y484478D02*
Y485678D01*
X313962Y482418D02*
X315162D01*
X314562Y481818D02*
Y483018D01*
X296562Y499237D02*
X297762D01*
X297162Y498637D02*
Y499837D01*
X346562Y468724D02*
X347762D01*
X347162Y468124D02*
Y469324D01*
X262200Y209000D02*
X263400D01*
X262800Y208400D02*
Y209600D01*
X262200Y106900D02*
X263400D01*
X262800Y106300D02*
Y107500D01*
X297531Y455387D02*
X298731D01*
X298131Y454787D02*
Y455987D01*
X296299Y457555D02*
X297499D01*
X296899Y456955D02*
Y458155D01*
X349962Y427818D02*
X351162D01*
X350562Y427218D02*
Y428418D01*
X192600Y774500D02*
X194600D01*
X193600Y773500D02*
Y775500D01*
X346473Y443758D02*
X347673D01*
X347073Y443158D02*
Y444358D01*
X364976Y461625D02*
X366176D01*
X365576Y461025D02*
Y462225D01*
X262300Y599000D02*
X263500D01*
X262900Y598400D02*
Y599600D01*
X262300Y700500D02*
X263500D01*
X262900Y699900D02*
Y701100D01*
X165200Y234000D02*
X166400D01*
X165800Y233400D02*
Y234600D01*
X165300Y239000D02*
X166500D01*
X165900Y238400D02*
Y239600D01*
X108800Y425400D02*
X110800D01*
X109800Y424400D02*
Y426400D01*
X93800Y576400D02*
X95800D01*
X94800Y575400D02*
Y577400D01*
X66100Y397600D02*
X68100D01*
X67100Y396600D02*
Y398600D01*
X93935Y246000D02*
X95934D01*
X94934Y245000D02*
Y247000D01*
X117383Y577100D02*
X119383D01*
X118383Y576100D02*
Y578100D01*
X117100Y246400D02*
X119100D01*
X118100Y245400D02*
Y247400D01*
X106956Y96100D02*
X108156D01*
X107556Y95500D02*
Y96700D01*
X216518Y669400D02*
X217718D01*
X217118Y668800D02*
Y670000D01*
X257862Y376506D02*
X259062D01*
X258462Y375906D02*
Y377106D01*
X216218Y177900D02*
X217418D01*
X216818Y177300D02*
Y178500D01*
X216218Y75800D02*
X217418D01*
X216818Y75200D02*
Y76400D01*
X343762Y527318D02*
X344962D01*
X344362Y526718D02*
Y527918D01*
X278052Y506449D02*
X279252D01*
X278652Y505849D02*
Y507049D01*
X129614Y517100D02*
X130814D01*
X130214Y516500D02*
Y517700D01*
X179200Y605800D02*
X180400D01*
X179800Y605200D02*
Y606400D01*
X179200Y647867D02*
X180400D01*
X179800Y647267D02*
Y648467D01*
X179200Y689933D02*
X180400D01*
X179800Y689333D02*
Y690533D01*
X179200Y732000D02*
X180400D01*
X179800Y731400D02*
Y732600D01*
X179200Y69700D02*
X180400D01*
X179800Y69100D02*
Y70300D01*
X179200Y112067D02*
X180400D01*
X179800Y111467D02*
Y112667D01*
X179200Y154433D02*
X180400D01*
X179800Y153833D02*
Y155033D01*
X179200Y196800D02*
X180400D01*
X179800Y196200D02*
Y197400D01*
X239700Y126900D02*
X240900D01*
X240300Y126300D02*
Y127500D01*
X244100Y121900D02*
X245300D01*
X244700Y121300D02*
Y122500D01*
X248200Y116900D02*
X249400D01*
X248800Y116300D02*
Y117500D01*
X236682Y234000D02*
X237882D01*
X237282Y233400D02*
Y234600D01*
X239700Y229000D02*
X240900D01*
X240300Y228400D02*
Y229600D01*
X244100Y224000D02*
X245300D01*
X244700Y223400D02*
Y224600D01*
X248200Y219000D02*
X249400D01*
X248800Y218400D02*
Y219600D01*
X236982Y624000D02*
X238182D01*
X237582Y623400D02*
Y624600D01*
X240000Y619000D02*
X241200D01*
X240600Y618400D02*
Y619600D01*
X244400Y614000D02*
X245600D01*
X245000Y613400D02*
Y614600D01*
X248500Y609000D02*
X249700D01*
X249100Y608400D02*
Y609600D01*
X236600Y725500D02*
X237800D01*
X237200Y724900D02*
Y726100D01*
X240000Y720500D02*
X241200D01*
X240600Y719900D02*
Y721100D01*
X244400Y715500D02*
X245600D01*
X245000Y714900D02*
Y716100D01*
X248500Y710500D02*
X249700D01*
X249100Y709900D02*
Y711100D01*
X98200Y632666D02*
X99400D01*
X98800Y632066D02*
Y633266D01*
X153100Y749000D02*
X154300D01*
X153700Y748400D02*
Y749600D01*
X163100Y749000D02*
X164300D01*
X163700Y748400D02*
Y749600D01*
X173100Y749000D02*
X174300D01*
X173700Y748400D02*
Y749600D01*
X168100Y737200D02*
X169300D01*
X168700Y736600D02*
Y737800D01*
X158100Y737200D02*
X159300D01*
X158700Y736600D02*
Y737800D01*
X148100Y737200D02*
X149300D01*
X148700Y736600D02*
Y737800D01*
X153100Y706933D02*
X154300D01*
X153700Y706333D02*
Y707533D01*
X163100Y706933D02*
X164300D01*
X163700Y706333D02*
Y707533D01*
X173100Y706933D02*
X174300D01*
X173700Y706333D02*
Y707533D01*
X168100Y695133D02*
X169300D01*
X168700Y694533D02*
Y695733D01*
X158100Y695133D02*
X159300D01*
X158700Y694533D02*
Y695733D01*
X148100Y695133D02*
X149300D01*
X148700Y694533D02*
Y695733D01*
X153100Y664867D02*
X154300D01*
X153700Y664267D02*
Y665467D01*
X163100Y664867D02*
X164300D01*
X163700Y664267D02*
Y665467D01*
X173100Y664867D02*
X174300D01*
X173700Y664267D02*
Y665467D01*
X168100Y653067D02*
X169300D01*
X168700Y652467D02*
Y653667D01*
X158100Y653067D02*
X159300D01*
X158700Y652467D02*
Y653667D01*
X148100Y653067D02*
X149300D01*
X148700Y652467D02*
Y653667D01*
X153100Y622800D02*
X154300D01*
X153700Y622200D02*
Y623400D01*
X163100Y622800D02*
X164300D01*
X163700Y622200D02*
Y623400D01*
X173100Y622800D02*
X174300D01*
X173700Y622200D02*
Y623400D01*
X168100Y611000D02*
X169300D01*
X168700Y610400D02*
Y611600D01*
X158100Y611000D02*
X159300D01*
X158700Y610400D02*
Y611600D01*
X148100Y611000D02*
X149300D01*
X148700Y610400D02*
Y611600D01*
X98197Y120402D02*
X99397D01*
X98797Y119802D02*
Y121002D01*
X153100Y213800D02*
X154300D01*
X153700Y213200D02*
Y214400D01*
X163100Y213800D02*
X164300D01*
X163700Y213200D02*
Y214400D01*
X173100Y213800D02*
X174300D01*
X173700Y213200D02*
Y214400D01*
X168100Y202000D02*
X169300D01*
X168700Y201400D02*
Y202600D01*
X158100Y202000D02*
X159300D01*
X158700Y201400D02*
Y202600D01*
X148100Y202000D02*
X149300D01*
X148700Y201400D02*
Y202600D01*
X153100Y171433D02*
X154300D01*
X153700Y170833D02*
Y172033D01*
X163100Y171433D02*
X164300D01*
X163700Y170833D02*
Y172033D01*
X173100Y171433D02*
X174300D01*
X173700Y170833D02*
Y172033D01*
X148100Y159633D02*
X149300D01*
X148700Y159033D02*
Y160233D01*
X158100Y159633D02*
X159300D01*
X158700Y159033D02*
Y160233D01*
X168100Y159633D02*
X169300D01*
X168700Y159033D02*
Y160233D01*
X153100Y129067D02*
X154300D01*
X153700Y128467D02*
Y129667D01*
X163100Y129067D02*
X164300D01*
X163700Y128467D02*
Y129667D01*
X173100Y129067D02*
X174300D01*
X173700Y128467D02*
Y129667D01*
X158100Y117267D02*
X159300D01*
X158700Y116667D02*
Y117867D01*
X168100Y117267D02*
X169300D01*
X168700Y116667D02*
Y117867D01*
X153100Y86700D02*
X154300D01*
X153700Y86100D02*
Y87300D01*
X163100Y86700D02*
X164300D01*
X163700Y86100D02*
Y87300D01*
X173100Y86700D02*
X174300D01*
X173700Y86100D02*
Y87300D01*
X168100Y74900D02*
X169300D01*
X168700Y74300D02*
Y75500D01*
X158100Y74900D02*
X159300D01*
X158700Y74300D02*
Y75500D01*
X148100Y74900D02*
X149300D01*
X148700Y74300D02*
Y75500D01*
X98200Y108700D02*
X99400D01*
X98800Y108100D02*
Y109300D01*
X98197Y116465D02*
X99397D01*
X98797Y115865D02*
Y117065D01*
X98197Y128178D02*
X99397D01*
X98797Y127578D02*
Y128778D01*
X98200Y628729D02*
X99400D01*
X98800Y628129D02*
Y629329D01*
X98197Y711400D02*
X99397D01*
X98797Y710800D02*
Y712000D01*
X98200Y612981D02*
X99400D01*
X98800Y612381D02*
Y613581D01*
X98200Y616918D02*
X99400D01*
X98800Y616318D02*
Y617518D01*
X98200Y620855D02*
X99400D01*
X98800Y620255D02*
Y621455D01*
X98200Y624792D02*
X99400D01*
X98800Y624192D02*
Y625392D01*
X98200Y636603D02*
X99400D01*
X98800Y636003D02*
Y637203D01*
X98200Y640540D02*
X99400D01*
X98800Y639940D02*
Y641140D01*
X98200Y644477D02*
X99400D01*
X98800Y643877D02*
Y645077D01*
X98197Y648300D02*
X99397D01*
X98797Y647700D02*
Y648900D01*
X98197Y652300D02*
X99397D01*
X98797Y651700D02*
Y652900D01*
X98200Y656288D02*
X99400D01*
X98800Y655688D02*
Y656888D01*
X98200Y660225D02*
X99400D01*
X98800Y659625D02*
Y660825D01*
X98200Y664162D02*
X99400D01*
X98800Y663562D02*
Y664762D01*
X98197Y668099D02*
X99397D01*
X98797Y667499D02*
Y668699D01*
X98197Y672000D02*
X99397D01*
X98797Y671400D02*
Y672600D01*
X98200Y675973D02*
X99400D01*
X98800Y675373D02*
Y676573D01*
X98200Y680258D02*
X99400D01*
X98800Y679658D02*
Y680858D01*
X98200Y684018D02*
X99400D01*
X98800Y683418D02*
Y684618D01*
X98200Y688091D02*
X99400D01*
X98800Y687491D02*
Y688691D01*
X98197Y691700D02*
X99397D01*
X98797Y691100D02*
Y692300D01*
X98197Y695700D02*
X99397D01*
X98797Y695100D02*
Y696300D01*
X98200Y699595D02*
X99400D01*
X98800Y698995D02*
Y700195D01*
X98200Y703532D02*
X99400D01*
X98800Y702932D02*
Y704132D01*
X98200Y707263D02*
X99400D01*
X98800Y706663D02*
Y707863D01*
X98197Y113100D02*
X99397D01*
X98797Y112500D02*
Y113700D01*
X98197Y132300D02*
X99397D01*
X98797Y131700D02*
Y132900D01*
X98100Y143300D02*
X99300D01*
X98700Y142700D02*
Y143900D01*
X98197Y187430D02*
X99397D01*
X98797Y186830D02*
Y188030D01*
X98197Y207213D02*
X99397D01*
X98797Y206613D02*
Y207813D01*
X98197Y203276D02*
X99397D01*
X98797Y202676D02*
Y203876D01*
X98098Y199241D02*
X99298D01*
X98698Y198641D02*
Y199841D01*
X98197Y195304D02*
X99397D01*
X98797Y194704D02*
Y195904D01*
X98197Y191367D02*
X99397D01*
X98797Y190767D02*
Y191967D01*
X98197Y183591D02*
X99397D01*
X98797Y182991D02*
Y184191D01*
X98197Y179556D02*
X99397D01*
X98797Y178956D02*
Y180156D01*
X98197Y175619D02*
X99397D01*
X98797Y175019D02*
Y176219D01*
X98197Y171583D02*
X99397D01*
X98797Y170984D02*
Y172184D01*
X98197Y167745D02*
X99397D01*
X98797Y167145D02*
Y168345D01*
X98197Y163808D02*
X99397D01*
X98797Y163208D02*
Y164408D01*
X98197Y159772D02*
X99397D01*
X98797Y159172D02*
Y160372D01*
X98197Y155934D02*
X99397D01*
X98797Y155334D02*
Y156534D01*
X98197Y151898D02*
X99397D01*
X98797Y151298D02*
Y152498D01*
X98197Y148060D02*
X99397D01*
X98797Y147460D02*
Y148660D01*
X98197Y140087D02*
X99397D01*
X98797Y139487D02*
Y140687D01*
X98197Y136249D02*
X99397D01*
X98797Y135649D02*
Y136849D01*
X98197Y124339D02*
X99397D01*
X98797Y123739D02*
Y124939D01*
X130760Y255143D02*
X131960D01*
X131360Y254543D02*
Y255743D01*
X126519Y290478D02*
X127719D01*
X127119Y289878D02*
Y291078D01*
X130366Y287919D02*
X131566D01*
X130966Y287319D02*
Y288519D01*
X123152Y293036D02*
X124352D01*
X123752Y292436D02*
Y293636D01*
X126913Y322761D02*
X128113D01*
X127513Y322161D02*
Y323361D01*
X130760Y320202D02*
X131960D01*
X131360Y319602D02*
Y320802D01*
X123546Y325320D02*
X124746D01*
X124146Y324720D02*
Y325920D01*
X126519Y355439D02*
X127719D01*
X127119Y354839D02*
Y356039D01*
X130366Y352880D02*
X131566D01*
X130966Y352279D02*
Y353480D01*
X123152Y357997D02*
X124352D01*
X123752Y357397D02*
Y358597D01*
X126420Y388509D02*
X127620D01*
X127021Y387909D02*
Y389109D01*
X130268Y385950D02*
X131468D01*
X130868Y385350D02*
Y386550D01*
X123054Y391068D02*
X124253D01*
X123653Y390468D02*
Y391668D01*
X126519Y420793D02*
X127719D01*
X127119Y420193D02*
Y421393D01*
X130366Y418234D02*
X131566D01*
X130966Y417634D02*
Y418834D01*
X123152Y423351D02*
X124352D01*
X123752Y422751D02*
Y423951D01*
X126420Y453470D02*
X127620D01*
X127021Y452870D02*
Y454070D01*
X130268Y450911D02*
X131468D01*
X130868Y450311D02*
Y451511D01*
X126027Y486541D02*
X127227D01*
X126627Y485941D02*
Y487141D01*
X129874Y483982D02*
X131074D01*
X130474Y483382D02*
Y484582D01*
X122660Y489099D02*
X123860D01*
X123260Y488499D02*
Y489699D01*
X125767Y519659D02*
X126967D01*
X126367Y519059D02*
Y520259D01*
X122400Y522217D02*
X123600D01*
X123000Y521617D02*
Y522817D01*
X122400Y554848D02*
X123600D01*
X123000Y554248D02*
Y555448D01*
X123011Y587919D02*
X124211D01*
X123611Y587319D02*
Y588519D01*
X129614Y549731D02*
X130814D01*
X130214Y549131D02*
Y550331D01*
X125767Y552290D02*
X126967D01*
X126367Y551690D02*
Y552890D01*
X126554Y585360D02*
X127754D01*
X127154Y584760D02*
Y585960D01*
X130401Y582801D02*
X131601D01*
X131001Y582201D02*
Y583401D01*
M02*
