M48
;Layer_Color=9474304
;FILE_FORMAT=2:5
INCH,TZ
;TYPE=PLATED
T1F00S00C0.01200
T2F00S00C0.01500
T3F00S00C0.02000
T5F00S00C0.03543
T6F00S00C0.12500
%
T01
X216818Y75800
X236600Y104900
X240900Y101600
X244300Y98900
X247600Y95900
X248800Y116900
X244700Y121900
X240300Y126900
X237282Y131900
X262800Y106900
Y209000
X216818Y177900
X173700Y171433
X163700
X153700
X148700Y159633
X158700
X168700Y159633
X179800Y154433
X173700Y129067
X163700
X153700
X148700Y117267
X158700
X168700Y117267
X179800Y112067
X173700Y86700
X163700
X153700
X148700Y74900
X158700
X168700
X179800Y69700
X107556Y96100
X98800Y108700
X98797Y113100
Y116465
Y120402
Y124339
Y128178
Y132300
Y136249
Y140087
X98700Y143300
X98797Y148060
Y151898
Y155934
Y159772
Y163808
Y167745
Y171583
Y175619
Y179556
Y183591
Y187430
Y191367
Y195304
X98698Y199241
X98797Y203276
Y207213
X148700Y202000
X158700
X168700Y202000
X179800Y196800
X173700Y213800
X163700
X153700
X165800Y234000
X165900Y239000
X170695Y260900
X183300Y279100
X184800Y300300
X170175Y293680
X170893Y325964
X183399Y322800
X185000Y345000
X190000
X195000
X200000
X205000
X210000
X207500Y350000
X202500
X197500
X192500
X187500
X190000Y355000
X195000
X200000
X205000
X210000
X207500Y360000
X202500
X197500
X192500
X187500
X190000Y365000
X195000
X200000
X205000
X210000
X185000
Y355000
X170106Y358641
X130966Y352880
X127119Y355439
X123752Y357997
X124146Y325320
X127513Y322761
X131360Y320202
X130966Y287919
X127119Y290478
X123752Y293036
X124399Y261399
X127804Y257994
X131360Y255143
X212559Y277000
X212900Y283148
X231600Y286800
X238900Y281763
X239100Y274100
X265400Y276200
X262962Y296318
Y300518
X267862
X267762Y296418
X257600Y325965
X240200Y322657
X239440Y334700
X230000Y345000
X225000
X220000
X215000
X217500Y350000
X222500
X227500
X232500
X230000Y355000
X225000
X220000
X215000
X217500Y360000
X222500
X227500
X232500
X230000Y365000
X225000
X220000
X215000
X212500Y360000
Y350000
X214000Y325950
X212900Y317900
X231600Y314300
X261562Y347818
Y351418
X267062
X266862Y347818
X271300Y251500
X280300Y236600
X286200Y242400
X237282Y234000
X240300Y229000
X244700Y224000
X248800Y219000
X258462Y376506
X239700Y386800
X237700Y394231
X231959Y399659
X212559Y396059
X214500Y388858
X212500Y370000
X217500
X222500
X227500
X232500
X231959Y427441
X238905Y433205
X239532Y448000
X230000Y455000
X225000
X220000
X215000
X217500Y460000
X222500
X227500
X230000Y465000
X225000
X220000
X215000
X217500Y470000
X222500
X227500
X230000Y475000
X225000
X220000
X215000
X212500Y470000
Y460000
X213877Y438800
X212559Y430059
X214500Y502200
X212859Y510500
X231759Y513400
X239800Y507563
X241000Y500700
X278652Y506449
X284362Y512118
X303212Y506068
X301812Y504468
X307759Y508127
X308548Y510122
X310543Y510911
X311332Y512906
X319177Y512218
X319420Y504818
X319036Y502418
X318652Y500018
X318268Y497618
X312862Y491818
X310262Y491918
X307707Y491818
X313362Y485078
X314562Y482418
X310462Y473918
X318268Y472563
X322079Y471535
X321262Y451518
X323162Y449518
X319012Y449068
X317162Y440718
X337362Y430718
X350562Y427818
X347073Y443758
X341662Y462818
X342539Y465118
X347162Y468724
X350762Y473476
X352162Y492318
X350162Y494207
X349562Y496318
X347378Y496991
X346589Y498986
X344595Y499775
X334467Y511918
X323062Y517271
X321212Y518575
X297162Y499237
X293362Y494685
X296899Y457555
X298131Y455387
X289062Y454118
X276262Y440818
X360462Y455318
X365576Y461625
X365962Y492318
X362762Y494207
X367062Y423918
X351862Y408518
X183700Y413700
X182918Y436168
X185000Y455000
X190000
X195000
X200000
X205000
X210000
X207500Y460000
X202500
X197500
X192500
X187500
X190000Y465000
X195000
X200000
X205000
X210000
X207500Y470000
X202500
X197500
X192500
X187500
X190000Y475000
X195000
X200000
X205000
X210000
X185000
Y465000
X170106Y456869
X170161Y423798
X170468Y391712
X183000Y390868
X187500Y370000
X192500
X197500
X202500
X207500
X130868Y385950
X127021Y388509
X123653Y391068
X123752Y423351
X127119Y420793
X130966Y418234
X130868Y450911
X127021Y453470
X123400Y456000
X123260Y489099
X126627Y486541
X130474Y483982
X141518
X141500Y486541
Y489100
X169500Y496900
X183859Y504700
X169458Y523000
X130214Y517100
X126367Y519659
X123000Y522217
Y554848
X126367Y552290
X130214Y549731
X131001Y582801
X127154Y585360
X123611Y587919
X148700Y611000
X158700
X168700
X179800Y605800
X173700Y622800
X163700
X153700
X148700Y653067
X158700
X168700
X179800Y647867
X173700Y664867
X163700
X153700
X98800Y664162
Y660225
Y656288
X98797Y652300
Y648300
X98800Y644477
Y640540
Y636603
Y632666
Y628729
Y624792
Y620855
Y616918
Y612981
X98797Y668099
Y672000
X98800Y675973
Y680258
X168495Y555500
X182958Y549200
X184200Y526500
X208600Y563100
X210300Y565500
X216900Y569200
X214100Y552100
X212859Y543459
X231759Y541059
X240759Y556359
X249100Y609000
X245000Y614000
X240600Y619000
X237582Y624000
X262900Y599000
X217118Y669400
X344362Y527318
X262900Y700500
X249100Y710500
X245000Y715500
X240600Y720500
X237200Y725500
X179800Y732000
X168700Y737200
X158700
X148700
X153700Y749000
X163700
X173700
Y706933
X163700
X153700
X148700Y695133
X158700
X168700
X179800Y689933
X98797Y691700
X98800Y688091
Y684018
X98797Y695700
X98800Y699595
Y703532
Y707263
X98797Y711400
T02
X70000Y110000
X75000
X77500Y115000
X72500
X67500
X70000Y120000
X75000
X77500Y125000
X72500
X67500
X70000Y130000
X75000
X77500Y135000
X72500
X67500
X70000Y140000
X75000
X77500Y145000
X72500
X67500
X70000Y150000
X75000
X77500Y155000
X72500
X67500
X70000Y160000
X75000
X77500Y165000
X72500
X67500
X70000Y170000
X75000
X77500Y175000
X72500
X67500
X70000Y180000
X75000
X77500Y185000
X72500
X67500
X70000Y190000
X75000
X77500Y195000
X72500
X67500
X70000Y200000
X75000
X77500Y205000
X72500
X67500
X70000Y285000
X75000
X77500Y290000
X72500
X67500
X70000Y295000
X75000
X77500Y300000
X72500
X67500
X70000Y305000
X75000
X77500Y310000
X72500
X67500
X70000Y315000
X75000
X77500Y320000
X72500
X67500
X70000Y325000
X75000
X77500Y330000
X72500
X67500
X70000Y335000
X75000
X77500Y340000
X72500
X67500
X70000Y345000
X75000
X77500Y350000
X72500
X67500
X70000Y355000
X75000
X77500Y360000
X72500
X67500
X70000Y365000
X75000
Y455000
X70000
X72500Y460000
X77500
X75000Y465000
X70000
X72500Y470000
X77500
X75000Y475000
X70000
X72500Y480000
X77500
X75000Y485000
X70000
X72500Y490000
X77500
X75000Y495000
X70000
X72500Y500000
X77500
X75000Y505000
X70000
X72500Y510000
X77500
X75000Y515000
X70000
X72500Y520000
X77500
X67500
Y510000
Y500000
Y490000
Y480000
Y470000
Y460000
X70000Y525000
X75000
X72500Y530000
X67500
X70000Y535000
X75000
Y615000
X70000
X72500Y620000
X77500
X75000Y625000
X70000
X72500Y630000
X77500
X75000Y635000
X70000
X72500Y640000
X77500
X75000Y645000
X70000
X72500Y650000
X77500
X75000Y655000
X70000
X72500Y660000
X77500
X75000Y665000
X70000
X72500Y670000
X77500
X75000Y675000
X70000
X72500Y680000
X77500
X67500
Y670000
Y660000
Y650000
Y640000
Y630000
Y620000
X169695Y588700
X75000Y685000
X70000
X72500Y690000
X77500
X75000Y695000
X70000
X72500Y700000
X77500
X75000Y705000
X70000
X72500Y710000
X77500
X67500
Y700000
Y690000
T03
X193300Y44200
X162200Y230300
X157900
X118100Y246400
X94934Y246000
X265087Y412618
X287962Y434018
X109800Y425400
X67100Y397600
X94800Y576400
X118383Y577100
X193600Y774500
T05
X375662Y450918
Y460918
Y470918
Y480918
Y490918
Y500918
X385662
Y490918
Y480918
Y470918
Y460918
Y450918
X378962Y515618
Y525618
Y535618
Y545618
T06
X101100Y51900
X403962Y251018
X419363Y456430
Y495406
X403862Y567818
X101400Y767400
M30
