G04*
G04 #@! TF.GenerationSoftware,Altium Limited,Altium Designer,18.1.9 (240)*
G04*
G04 Layer_Color=255*
%FSLAX25Y25*%
%MOIN*%
G70*
G01*
G75*
%ADD17R,0.03000X0.03000*%
%ADD18R,0.03000X0.03000*%
%ADD19R,0.05500X0.05000*%
G04:AMPARAMS|DCode=20|XSize=55mil|YSize=50mil|CornerRadius=0mil|HoleSize=0mil|Usage=FLASHONLY|Rotation=0.000|XOffset=0mil|YOffset=0mil|HoleType=Round|Shape=Octagon|*
%AMOCTAGOND20*
4,1,8,0.02750,-0.01250,0.02750,0.01250,0.01500,0.02500,-0.01500,0.02500,-0.02750,0.01250,-0.02750,-0.01250,-0.01500,-0.02500,0.01500,-0.02500,0.02750,-0.01250,0.0*
%
%ADD20OCTAGOND20*%

%ADD21R,0.00984X0.04724*%
%ADD22O,0.00984X0.04724*%
%ADD23R,0.05512X0.04724*%
%ADD24R,0.08268X0.02165*%
%ADD25O,0.08268X0.02165*%
%ADD26R,0.05000X0.03500*%
%ADD27R,0.03500X0.05000*%
G04:AMPARAMS|DCode=28|XSize=11.81mil|YSize=70.87mil|CornerRadius=0mil|HoleSize=0mil|Usage=FLASHONLY|Rotation=45.000|XOffset=0mil|YOffset=0mil|HoleType=Round|Shape=Round|*
%AMOVALD28*
21,1,0.05906,0.01181,0.00000,0.00000,135.0*
1,1,0.01181,0.02088,-0.02088*
1,1,0.01181,-0.02088,0.02088*
%
%ADD28OVALD28*%

G04:AMPARAMS|DCode=29|XSize=11.81mil|YSize=70.87mil|CornerRadius=0mil|HoleSize=0mil|Usage=FLASHONLY|Rotation=135.000|XOffset=0mil|YOffset=0mil|HoleType=Round|Shape=Round|*
%AMOVALD29*
21,1,0.05906,0.01181,0.00000,0.00000,225.0*
1,1,0.01181,0.02088,0.02088*
1,1,0.01181,-0.02088,-0.02088*
%
%ADD29OVALD29*%

%ADD30O,0.01772X0.06299*%
G04:AMPARAMS|DCode=31|XSize=78.74mil|YSize=59.06mil|CornerRadius=0mil|HoleSize=0mil|Usage=FLASHONLY|Rotation=45.000|XOffset=0mil|YOffset=0mil|HoleType=Round|Shape=Rectangle|*
%AMROTATEDRECTD31*
4,1,4,-0.00696,-0.04872,-0.04872,-0.00696,0.00696,0.04872,0.04872,0.00696,-0.00696,-0.04872,0.0*
%
%ADD31ROTATEDRECTD31*%

G04:AMPARAMS|DCode=32|XSize=40mil|YSize=50mil|CornerRadius=0mil|HoleSize=0mil|Usage=FLASHONLY|Rotation=225.000|XOffset=0mil|YOffset=0mil|HoleType=Round|Shape=Rectangle|*
%AMROTATEDRECTD32*
4,1,4,-0.00354,0.03182,0.03182,-0.00354,0.00354,-0.03182,-0.03182,0.00354,-0.00354,0.03182,0.0*
%
%ADD32ROTATEDRECTD32*%

G04:AMPARAMS|DCode=33|XSize=60mil|YSize=50mil|CornerRadius=0mil|HoleSize=0mil|Usage=FLASHONLY|Rotation=45.000|XOffset=0mil|YOffset=0mil|HoleType=Round|Shape=Rectangle|*
%AMROTATEDRECTD33*
4,1,4,-0.00354,-0.03889,-0.03889,-0.00354,0.00354,0.03889,0.03889,0.00354,-0.00354,-0.03889,0.0*
%
%ADD33ROTATEDRECTD33*%

G04:AMPARAMS|DCode=34|XSize=60mil|YSize=50mil|CornerRadius=0mil|HoleSize=0mil|Usage=FLASHONLY|Rotation=45.000|XOffset=0mil|YOffset=0mil|HoleType=Round|Shape=Octagon|*
%AMOCTAGOND34*
4,1,8,0.03005,0.01237,0.01237,0.03005,-0.00530,0.03005,-0.03005,0.00530,-0.03005,-0.01237,-0.01237,-0.03005,0.00530,-0.03005,0.03005,-0.00530,0.03005,0.01237,0.0*
%
%ADD34OCTAGOND34*%

%ADD35R,0.04000X0.05000*%
%ADD36R,0.03543X0.02559*%
%ADD37R,0.03543X0.01968*%
%ADD38O,0.05512X0.01181*%
%ADD39R,0.05512X0.01181*%
%ADD40R,0.04921X0.01968*%
%ADD41R,0.09843X0.07874*%
%ADD42R,0.13780X0.07874*%
G04:AMPARAMS|DCode=43|XSize=40mil|YSize=50mil|CornerRadius=0mil|HoleSize=0mil|Usage=FLASHONLY|Rotation=315.000|XOffset=0mil|YOffset=0mil|HoleType=Round|Shape=Rectangle|*
%AMROTATEDRECTD43*
4,1,4,-0.03182,-0.00354,0.00354,0.03182,0.03182,0.00354,-0.00354,-0.03182,-0.03182,-0.00354,0.0*
%
%ADD43ROTATEDRECTD43*%

%ADD44R,0.06000X0.05000*%
G04:AMPARAMS|DCode=45|XSize=60mil|YSize=50mil|CornerRadius=0mil|HoleSize=0mil|Usage=FLASHONLY|Rotation=0.000|XOffset=0mil|YOffset=0mil|HoleType=Round|Shape=Octagon|*
%AMOCTAGOND45*
4,1,8,0.03000,-0.01250,0.03000,0.01250,0.01750,0.02500,-0.01750,0.02500,-0.03000,0.01250,-0.03000,-0.01250,-0.01750,-0.02500,0.01750,-0.02500,0.03000,-0.01250,0.0*
%
%ADD45OCTAGOND45*%

%ADD46R,0.03543X0.08268*%
%ADD47R,0.12598X0.08268*%
G04:AMPARAMS|DCode=48|XSize=94.49mil|YSize=86.61mil|CornerRadius=0mil|HoleSize=0mil|Usage=FLASHONLY|Rotation=225.000|XOffset=0mil|YOffset=0mil|HoleType=Round|Shape=Rectangle|*
%AMROTATEDRECTD48*
4,1,4,0.00278,0.06403,0.06403,0.00278,-0.00278,-0.06403,-0.06403,-0.00278,0.00278,0.06403,0.0*
%
%ADD48ROTATEDRECTD48*%

%ADD108C,0.20000*%
%ADD109R,0.06299X0.06299*%
%ADD110C,0.06299*%
%ADD111R,0.07874X0.15748*%
%ADD112R,0.15748X0.07874*%
%ADD113R,0.06693X0.06693*%
%ADD114C,0.06693*%
D17*
X189341Y498700D02*
D03*
X194459D02*
D03*
X194519Y504700D02*
D03*
X189401D02*
D03*
X188901Y517500D02*
D03*
X194019D02*
D03*
X188901Y523600D02*
D03*
X194019D02*
D03*
Y535800D02*
D03*
X188901D02*
D03*
X194019Y529800D02*
D03*
X188901D02*
D03*
X188500Y549200D02*
D03*
X193618D02*
D03*
X193719Y555300D02*
D03*
X188601D02*
D03*
X193659Y390868D02*
D03*
X188541D02*
D03*
Y384868D02*
D03*
X193659D02*
D03*
X188600Y404667D02*
D03*
X193718D02*
D03*
X188600Y410667D02*
D03*
X193718D02*
D03*
X193819Y422668D02*
D03*
X188701D02*
D03*
X193719Y416668D02*
D03*
X188601D02*
D03*
X188459Y436168D02*
D03*
X193578D02*
D03*
X193519Y442268D02*
D03*
X188401D02*
D03*
X188841Y273100D02*
D03*
X193959D02*
D03*
X193959Y279100D02*
D03*
X188841D02*
D03*
X189141Y291400D02*
D03*
X194259D02*
D03*
Y309500D02*
D03*
X189141D02*
D03*
X194259Y303441D02*
D03*
X189141D02*
D03*
X194159Y328800D02*
D03*
X189041D02*
D03*
X188941Y322800D02*
D03*
X194059D02*
D03*
X189141Y297400D02*
D03*
X194259D02*
D03*
D18*
X234659Y551241D02*
D03*
Y556359D02*
D03*
X228259Y556300D02*
D03*
Y551182D02*
D03*
X234759Y497841D02*
D03*
Y502959D02*
D03*
X228359Y497882D02*
D03*
Y503000D02*
D03*
X234459Y437809D02*
D03*
Y442927D02*
D03*
X228060Y442927D02*
D03*
Y437808D02*
D03*
X234559Y384209D02*
D03*
Y389327D02*
D03*
X228159Y384209D02*
D03*
Y389327D02*
D03*
X234500Y324641D02*
D03*
Y329759D02*
D03*
X228200Y329759D02*
D03*
Y324641D02*
D03*
X234000Y271841D02*
D03*
Y276959D02*
D03*
X227800Y271841D02*
D03*
Y276959D02*
D03*
D19*
X206309Y499000D02*
D03*
X219809Y507400D02*
D03*
X206159Y555200D02*
D03*
X219509Y546800D02*
D03*
X206009Y385368D02*
D03*
X219509Y393868D02*
D03*
X205809Y441968D02*
D03*
X219209Y433468D02*
D03*
X206150Y328687D02*
D03*
X219550Y320400D02*
D03*
X205850Y272900D02*
D03*
X219450Y281100D02*
D03*
D20*
X219809Y499000D02*
D03*
X206309Y507400D02*
D03*
X219659Y555200D02*
D03*
X206009Y546800D02*
D03*
X219509Y385368D02*
D03*
X206009Y393868D02*
D03*
X219309Y441968D02*
D03*
X205709Y433468D02*
D03*
X219650Y328687D02*
D03*
X206050Y320400D02*
D03*
X219350Y272900D02*
D03*
X205950Y281100D02*
D03*
D21*
X205182Y515386D02*
D03*
X204882Y402153D02*
D03*
X205223Y288986D02*
D03*
D22*
X207741Y515386D02*
D03*
X210300D02*
D03*
X212859D02*
D03*
X215418D02*
D03*
X217977D02*
D03*
X220536D02*
D03*
Y538614D02*
D03*
X217977D02*
D03*
X215418D02*
D03*
X212859D02*
D03*
X210300D02*
D03*
X207741D02*
D03*
X205182D02*
D03*
X207441Y402153D02*
D03*
X210000D02*
D03*
X212559D02*
D03*
X215118D02*
D03*
X217677D02*
D03*
X220236D02*
D03*
Y425382D02*
D03*
X217677D02*
D03*
X215118D02*
D03*
X212559D02*
D03*
X210000D02*
D03*
X207441D02*
D03*
X204882D02*
D03*
X207782Y288986D02*
D03*
X210341D02*
D03*
X212900D02*
D03*
X215459D02*
D03*
X218018D02*
D03*
X220577D02*
D03*
Y312214D02*
D03*
X218018D02*
D03*
X215459D02*
D03*
X212900D02*
D03*
X210341D02*
D03*
X207782D02*
D03*
X205223D02*
D03*
D23*
X231759Y534093D02*
D03*
Y520707D02*
D03*
X231959Y420061D02*
D03*
Y406675D02*
D03*
X231600Y306993D02*
D03*
Y293607D02*
D03*
X275737Y344164D02*
D03*
Y330779D02*
D03*
X276426Y294186D02*
D03*
Y280800D02*
D03*
X275426Y388745D02*
D03*
Y375359D02*
D03*
X322670Y294355D02*
D03*
Y280970D02*
D03*
X322867Y342879D02*
D03*
Y329493D02*
D03*
X322572Y390025D02*
D03*
Y376639D02*
D03*
D24*
X216818Y136900D02*
D03*
X217118Y629000D02*
D03*
Y730500D02*
D03*
X216818Y239000D02*
D03*
D25*
Y131900D02*
D03*
Y126900D02*
D03*
Y121900D02*
D03*
Y116900D02*
D03*
Y111900D02*
D03*
Y106900D02*
D03*
Y101900D02*
D03*
Y96900D02*
D03*
Y91900D02*
D03*
X256582Y116900D02*
D03*
Y111900D02*
D03*
Y106900D02*
D03*
Y101900D02*
D03*
Y96900D02*
D03*
Y91900D02*
D03*
Y86900D02*
D03*
Y81900D02*
D03*
X216818D02*
D03*
Y86900D02*
D03*
X256582Y136900D02*
D03*
Y131900D02*
D03*
Y126900D02*
D03*
Y121900D02*
D03*
X217118Y624000D02*
D03*
Y619000D02*
D03*
Y614000D02*
D03*
Y609000D02*
D03*
Y604000D02*
D03*
Y599000D02*
D03*
Y594000D02*
D03*
Y589000D02*
D03*
Y584000D02*
D03*
X256882Y609000D02*
D03*
Y604000D02*
D03*
Y599000D02*
D03*
Y594000D02*
D03*
Y589000D02*
D03*
Y584000D02*
D03*
Y579000D02*
D03*
Y574000D02*
D03*
X217118D02*
D03*
Y579000D02*
D03*
X256882Y629000D02*
D03*
Y624000D02*
D03*
Y619000D02*
D03*
Y614000D02*
D03*
X217118Y725500D02*
D03*
Y720500D02*
D03*
Y715500D02*
D03*
Y710500D02*
D03*
Y705500D02*
D03*
Y700500D02*
D03*
Y695500D02*
D03*
Y690500D02*
D03*
Y685500D02*
D03*
X256882Y710500D02*
D03*
Y705500D02*
D03*
Y700500D02*
D03*
Y695500D02*
D03*
Y690500D02*
D03*
Y685500D02*
D03*
Y680500D02*
D03*
Y675500D02*
D03*
X217118D02*
D03*
Y680500D02*
D03*
X256882Y730500D02*
D03*
Y725500D02*
D03*
Y720500D02*
D03*
Y715500D02*
D03*
X256582Y224000D02*
D03*
Y229000D02*
D03*
Y234000D02*
D03*
Y239000D02*
D03*
X216818Y189000D02*
D03*
Y184000D02*
D03*
X256582D02*
D03*
Y189000D02*
D03*
Y194000D02*
D03*
Y199000D02*
D03*
Y204000D02*
D03*
Y209000D02*
D03*
Y214000D02*
D03*
Y219000D02*
D03*
X216818Y194000D02*
D03*
Y199000D02*
D03*
Y204000D02*
D03*
Y209000D02*
D03*
Y214000D02*
D03*
Y219000D02*
D03*
Y224000D02*
D03*
Y229000D02*
D03*
Y234000D02*
D03*
D26*
X169463Y509660D02*
D03*
X169463Y517140D02*
D03*
X170110Y451009D02*
D03*
Y443529D02*
D03*
X170166Y417939D02*
D03*
X170166Y410458D02*
D03*
X170110Y352781D02*
D03*
Y345301D02*
D03*
X170472Y385852D02*
D03*
Y378372D02*
D03*
X170897Y320104D02*
D03*
Y312624D02*
D03*
X170179Y287821D02*
D03*
Y280341D02*
D03*
X170700Y255041D02*
D03*
Y247560D02*
D03*
X169700Y582840D02*
D03*
X169700Y575360D02*
D03*
X169323Y483884D02*
D03*
X169323Y476403D02*
D03*
X168500Y549641D02*
D03*
X168500Y542160D02*
D03*
X264737Y333102D02*
D03*
Y340582D02*
D03*
X265362Y281778D02*
D03*
Y289259D02*
D03*
X263812Y381856D02*
D03*
Y389336D02*
D03*
X335367Y281167D02*
D03*
Y288647D02*
D03*
X336351Y332544D02*
D03*
Y340025D02*
D03*
X337729Y382545D02*
D03*
Y390025D02*
D03*
D27*
X362522Y294618D02*
D03*
X370003D02*
D03*
X110706Y576400D02*
D03*
X103226Y576400D02*
D03*
X110840Y246000D02*
D03*
X103360Y246000D02*
D03*
X107600Y103500D02*
D03*
X115080Y103500D02*
D03*
X106966Y197485D02*
D03*
X114446D02*
D03*
X118383Y614989D02*
D03*
X110903D02*
D03*
X118383Y622863D02*
D03*
X110903D02*
D03*
X114446Y205359D02*
D03*
X106966D02*
D03*
X370003Y306919D02*
D03*
X362522D02*
D03*
X370003Y319118D02*
D03*
X362522D02*
D03*
X362522Y331718D02*
D03*
X370002D02*
D03*
D28*
X332580Y463819D02*
D03*
X296111Y489152D02*
D03*
X297503Y490544D02*
D03*
X298895Y491936D02*
D03*
X300287Y493328D02*
D03*
X301679Y494720D02*
D03*
X303071Y496112D02*
D03*
X304463Y497504D02*
D03*
X305855Y498896D02*
D03*
X311422Y504464D02*
D03*
X312814Y505856D02*
D03*
X314206Y507248D02*
D03*
X315598Y508640D02*
D03*
X316990Y510032D02*
D03*
X347891Y479130D02*
D03*
X346499Y477739D02*
D03*
X345107Y476346D02*
D03*
X343715Y474955D02*
D03*
X342323Y473563D02*
D03*
X340932Y472171D02*
D03*
X339540Y470779D02*
D03*
X338148Y469387D02*
D03*
X336756Y467995D02*
D03*
X335364Y466603D02*
D03*
X333972Y465211D02*
D03*
X331188Y462427D02*
D03*
X329796Y461035D02*
D03*
X328404Y459643D02*
D03*
X327012Y458251D02*
D03*
D29*
Y510032D02*
D03*
X328404Y508640D02*
D03*
X329796Y507248D02*
D03*
X331188Y505856D02*
D03*
X332580Y504464D02*
D03*
X333972Y503072D02*
D03*
X335364Y501680D02*
D03*
X336756Y500288D02*
D03*
X338148Y498896D02*
D03*
X339540Y497504D02*
D03*
X340932Y496112D02*
D03*
X342323Y494720D02*
D03*
X343715Y493328D02*
D03*
X345107Y491936D02*
D03*
X346499Y490544D02*
D03*
X347891Y489152D02*
D03*
X316919Y458181D02*
D03*
X315528Y459573D02*
D03*
X314136Y460964D02*
D03*
X312744Y462356D02*
D03*
X311352Y463748D02*
D03*
X305784Y469316D02*
D03*
X304392Y470708D02*
D03*
X303000Y472100D02*
D03*
X301608Y473492D02*
D03*
X300216Y474884D02*
D03*
X298824Y476276D02*
D03*
X297432Y477668D02*
D03*
X296040Y479060D02*
D03*
D30*
X168700Y134267D02*
D03*
X163700D02*
D03*
X158700D02*
D03*
X153700D02*
D03*
X148700D02*
D03*
X143700D02*
D03*
X173700D02*
D03*
X173700Y112067D02*
D03*
X168700Y112067D02*
D03*
X163700Y112067D02*
D03*
X158700D02*
D03*
X153700D02*
D03*
X148700D02*
D03*
X143700D02*
D03*
X143700Y69700D02*
D03*
X148700D02*
D03*
X153700D02*
D03*
X158700D02*
D03*
X163700D02*
D03*
X168700D02*
D03*
X173700D02*
D03*
X173700Y91900D02*
D03*
X143700D02*
D03*
X148700D02*
D03*
X153700D02*
D03*
X158700D02*
D03*
X163700D02*
D03*
X168700D02*
D03*
X143700Y732000D02*
D03*
X148700D02*
D03*
X153700D02*
D03*
X158700D02*
D03*
X163700D02*
D03*
X168700D02*
D03*
X173700D02*
D03*
X173700Y754200D02*
D03*
X143700D02*
D03*
X148700D02*
D03*
X153700D02*
D03*
X158700D02*
D03*
X163700D02*
D03*
X168700D02*
D03*
X143700Y689933D02*
D03*
X148700D02*
D03*
X153700D02*
D03*
X158700D02*
D03*
X163700D02*
D03*
X168700D02*
D03*
X173700D02*
D03*
X173700Y712133D02*
D03*
X143700D02*
D03*
X148700D02*
D03*
X153700D02*
D03*
X158700D02*
D03*
X163700D02*
D03*
X168700D02*
D03*
X143700Y647867D02*
D03*
X148700D02*
D03*
X153700D02*
D03*
X158700D02*
D03*
X163700D02*
D03*
X168700D02*
D03*
X173700D02*
D03*
X173700Y670067D02*
D03*
X143700D02*
D03*
X148700D02*
D03*
X153700D02*
D03*
X158700D02*
D03*
X163700D02*
D03*
X168700D02*
D03*
X143700Y605800D02*
D03*
X148700D02*
D03*
X153700D02*
D03*
X158700D02*
D03*
X163700D02*
D03*
X168700D02*
D03*
X173700D02*
D03*
X173700Y628000D02*
D03*
X143700D02*
D03*
X148700D02*
D03*
X153700D02*
D03*
X158700D02*
D03*
X163700D02*
D03*
X168700D02*
D03*
X143700Y196800D02*
D03*
X148700D02*
D03*
X153700D02*
D03*
X158700D02*
D03*
X163700D02*
D03*
X168700Y196800D02*
D03*
X173700Y196800D02*
D03*
X173700Y219000D02*
D03*
X143700D02*
D03*
X148700D02*
D03*
X153700D02*
D03*
X158700D02*
D03*
X163700D02*
D03*
X168700D02*
D03*
X143700Y154433D02*
D03*
X148700D02*
D03*
X153700D02*
D03*
X158700D02*
D03*
X163700D02*
D03*
X168700Y154433D02*
D03*
X173700Y154433D02*
D03*
X173700Y176633D02*
D03*
X143700D02*
D03*
X148700D02*
D03*
X153700D02*
D03*
X158700D02*
D03*
X163700D02*
D03*
X168700D02*
D03*
D31*
X372822Y429478D02*
D03*
X350794Y407339D02*
D03*
D32*
X382973Y420829D02*
D03*
X376962Y414818D02*
D03*
X345462Y422718D02*
D03*
X339452Y416708D02*
D03*
X329973Y423929D02*
D03*
X323962Y417918D02*
D03*
X267562Y445125D02*
D03*
X273573Y451135D02*
D03*
X260362Y452118D02*
D03*
X266373Y458129D02*
D03*
X334452Y517408D02*
D03*
X340462Y523418D02*
D03*
D33*
X309591Y403947D02*
D03*
X325016Y402579D02*
D03*
D34*
X316662Y411018D02*
D03*
X332087Y409650D02*
D03*
D35*
X152394Y234868D02*
D03*
X143894D02*
D03*
X152000Y562427D02*
D03*
X143500D02*
D03*
X151776Y529750D02*
D03*
X143276D02*
D03*
X151500Y497073D02*
D03*
X143000D02*
D03*
X151894Y463608D02*
D03*
X143394D02*
D03*
X152394Y430537D02*
D03*
X143894D02*
D03*
X152449Y398253D02*
D03*
X143949D02*
D03*
X152000Y365576D02*
D03*
X143500D02*
D03*
X152394Y332588D02*
D03*
X143894D02*
D03*
X152626Y300222D02*
D03*
X144126D02*
D03*
X152000Y267939D02*
D03*
X143500D02*
D03*
D36*
X112675Y695640D02*
D03*
Y685562D02*
D03*
X118974D02*
D03*
Y695640D02*
D03*
X112675Y681489D02*
D03*
X112675Y671410D02*
D03*
X118974D02*
D03*
Y681489D02*
D03*
X112675Y667337D02*
D03*
Y657258D02*
D03*
X118974Y657258D02*
D03*
Y667337D02*
D03*
X112675Y653185D02*
D03*
Y643106D02*
D03*
X118974Y643106D02*
D03*
Y653185D02*
D03*
X112675Y639033D02*
D03*
Y628955D02*
D03*
X118974Y628955D02*
D03*
Y639033D02*
D03*
X118974Y709792D02*
D03*
Y699713D02*
D03*
X112675D02*
D03*
Y709792D02*
D03*
X108850Y134808D02*
D03*
Y124729D02*
D03*
X115149D02*
D03*
Y134808D02*
D03*
X108850Y148981D02*
D03*
Y138902D02*
D03*
X115149Y138902D02*
D03*
Y148981D02*
D03*
X108850Y163154D02*
D03*
Y153076D02*
D03*
X115149Y153076D02*
D03*
Y163154D02*
D03*
X108850Y177328D02*
D03*
Y167249D02*
D03*
X115149D02*
D03*
Y177328D02*
D03*
X108850Y191501D02*
D03*
Y181422D02*
D03*
X115149D02*
D03*
Y191501D02*
D03*
X108850Y120635D02*
D03*
Y110556D02*
D03*
X115149D02*
D03*
Y120635D02*
D03*
D37*
X112675Y692176D02*
D03*
Y689026D02*
D03*
X118974D02*
D03*
Y692176D02*
D03*
X112675Y678024D02*
D03*
Y674874D02*
D03*
X118974Y674874D02*
D03*
Y678024D02*
D03*
X112675Y663872D02*
D03*
Y660723D02*
D03*
X118974Y660723D02*
D03*
X118974Y663872D02*
D03*
X112675Y649721D02*
D03*
Y646571D02*
D03*
X118974Y646571D02*
D03*
X118974Y649721D02*
D03*
X112675Y635569D02*
D03*
Y632419D02*
D03*
X118974D02*
D03*
Y635569D02*
D03*
X118974Y706327D02*
D03*
Y703178D02*
D03*
X112675D02*
D03*
Y706327D02*
D03*
X108850Y131343D02*
D03*
Y128194D02*
D03*
X115149Y128194D02*
D03*
X115149Y131343D02*
D03*
X108850Y145517D02*
D03*
Y142367D02*
D03*
X115149D02*
D03*
Y145517D02*
D03*
X108850Y159690D02*
D03*
Y156540D02*
D03*
X115149D02*
D03*
Y159690D02*
D03*
X108850Y173863D02*
D03*
Y170713D02*
D03*
X115149D02*
D03*
Y173863D02*
D03*
X108850Y188036D02*
D03*
Y184887D02*
D03*
X115149D02*
D03*
Y188036D02*
D03*
X108850Y117170D02*
D03*
Y114021D02*
D03*
X115149D02*
D03*
Y117170D02*
D03*
D38*
X136731Y242446D02*
D03*
Y245005D02*
D03*
Y247565D02*
D03*
Y250124D02*
D03*
Y252683D02*
D03*
Y255242D02*
D03*
Y257801D02*
D03*
Y260360D02*
D03*
X160353D02*
D03*
Y257801D02*
D03*
Y255242D02*
D03*
Y252683D02*
D03*
Y250124D02*
D03*
Y247565D02*
D03*
Y245005D02*
D03*
X136337Y275124D02*
D03*
Y277683D02*
D03*
Y280242D02*
D03*
Y282801D02*
D03*
Y285360D02*
D03*
Y287919D02*
D03*
Y290478D02*
D03*
Y293037D02*
D03*
X159959D02*
D03*
Y290478D02*
D03*
Y287919D02*
D03*
Y285360D02*
D03*
Y282801D02*
D03*
Y280242D02*
D03*
Y277683D02*
D03*
X136662Y307407D02*
D03*
Y309966D02*
D03*
Y312525D02*
D03*
Y315084D02*
D03*
Y317643D02*
D03*
Y320202D02*
D03*
Y322761D02*
D03*
Y325321D02*
D03*
X160284D02*
D03*
Y322761D02*
D03*
Y320202D02*
D03*
Y317643D02*
D03*
Y315084D02*
D03*
Y312525D02*
D03*
Y309966D02*
D03*
X136236Y373155D02*
D03*
Y375714D02*
D03*
Y378273D02*
D03*
Y380832D02*
D03*
Y383391D02*
D03*
Y385950D02*
D03*
Y388509D02*
D03*
Y391069D02*
D03*
X159858D02*
D03*
Y388509D02*
D03*
Y385950D02*
D03*
Y383391D02*
D03*
Y380832D02*
D03*
Y378273D02*
D03*
Y375714D02*
D03*
X136268Y340084D02*
D03*
Y342643D02*
D03*
Y345202D02*
D03*
Y347761D02*
D03*
Y350321D02*
D03*
Y352880D02*
D03*
Y355439D02*
D03*
Y357998D02*
D03*
X159890D02*
D03*
Y355439D02*
D03*
Y352880D02*
D03*
Y350321D02*
D03*
Y347761D02*
D03*
Y345202D02*
D03*
Y342643D02*
D03*
X136323Y405439D02*
D03*
Y407998D02*
D03*
Y410557D02*
D03*
Y413116D02*
D03*
Y415675D02*
D03*
Y418234D02*
D03*
Y420793D02*
D03*
Y423352D02*
D03*
X159945D02*
D03*
Y420793D02*
D03*
Y418234D02*
D03*
Y415675D02*
D03*
Y413116D02*
D03*
Y410557D02*
D03*
Y407998D02*
D03*
X136268Y438116D02*
D03*
Y440675D02*
D03*
Y443234D02*
D03*
Y445793D02*
D03*
Y448352D02*
D03*
Y450911D02*
D03*
Y453470D02*
D03*
Y456029D02*
D03*
X159890D02*
D03*
Y453470D02*
D03*
Y450911D02*
D03*
Y448352D02*
D03*
Y445793D02*
D03*
Y443234D02*
D03*
Y440675D02*
D03*
X136268Y570006D02*
D03*
Y572565D02*
D03*
Y575124D02*
D03*
Y577683D02*
D03*
Y580242D02*
D03*
Y582801D02*
D03*
Y585360D02*
D03*
Y587919D02*
D03*
X159890D02*
D03*
Y585360D02*
D03*
Y582801D02*
D03*
Y580242D02*
D03*
Y577683D02*
D03*
Y575124D02*
D03*
Y572565D02*
D03*
X135480Y536935D02*
D03*
Y539494D02*
D03*
Y542053D02*
D03*
Y544612D02*
D03*
Y547171D02*
D03*
Y549730D02*
D03*
Y552289D02*
D03*
Y554848D02*
D03*
X159102D02*
D03*
Y552289D02*
D03*
Y549730D02*
D03*
Y547171D02*
D03*
Y544612D02*
D03*
Y542053D02*
D03*
Y539494D02*
D03*
X135536Y504257D02*
D03*
Y506816D02*
D03*
Y509376D02*
D03*
Y511935D02*
D03*
Y514494D02*
D03*
Y517053D02*
D03*
Y519612D02*
D03*
Y522171D02*
D03*
X159158D02*
D03*
Y519612D02*
D03*
Y517053D02*
D03*
Y514494D02*
D03*
Y511935D02*
D03*
Y509376D02*
D03*
Y506816D02*
D03*
X135843Y471187D02*
D03*
Y473746D02*
D03*
Y476305D02*
D03*
Y478864D02*
D03*
Y481423D02*
D03*
Y483982D02*
D03*
Y486541D02*
D03*
Y489100D02*
D03*
X159465D02*
D03*
Y486541D02*
D03*
Y483982D02*
D03*
Y481423D02*
D03*
Y478864D02*
D03*
Y476305D02*
D03*
Y473746D02*
D03*
D39*
X160353Y242446D02*
D03*
X159959Y275124D02*
D03*
X160284Y307407D02*
D03*
X159858Y373155D02*
D03*
X159890Y340084D02*
D03*
X159945Y405439D02*
D03*
X159890Y438116D02*
D03*
Y570006D02*
D03*
X159102Y536935D02*
D03*
X159158Y504257D02*
D03*
X159465Y471187D02*
D03*
D40*
X83836Y284635D02*
D03*
Y296446D02*
D03*
Y300383D02*
D03*
Y304320D02*
D03*
Y308257D02*
D03*
Y324005D02*
D03*
Y327942D02*
D03*
Y320068D02*
D03*
Y316131D02*
D03*
Y331879D02*
D03*
Y335816D02*
D03*
Y339753D02*
D03*
Y343690D02*
D03*
Y347627D02*
D03*
Y351564D02*
D03*
Y355501D02*
D03*
Y359438D02*
D03*
Y363375D02*
D03*
Y367312D02*
D03*
Y312194D02*
D03*
Y292509D02*
D03*
Y288572D02*
D03*
Y452745D02*
D03*
Y464556D02*
D03*
Y468493D02*
D03*
Y472430D02*
D03*
Y476367D02*
D03*
Y492115D02*
D03*
Y496052D02*
D03*
Y488178D02*
D03*
Y484241D02*
D03*
Y499989D02*
D03*
Y503926D02*
D03*
Y507863D02*
D03*
Y511800D02*
D03*
Y515737D02*
D03*
Y519674D02*
D03*
Y523611D02*
D03*
Y527548D02*
D03*
Y531485D02*
D03*
Y535422D02*
D03*
Y480304D02*
D03*
Y460619D02*
D03*
Y456682D02*
D03*
Y612981D02*
D03*
Y616918D02*
D03*
Y624792D02*
D03*
Y632666D02*
D03*
Y636603D02*
D03*
Y656288D02*
D03*
Y711406D02*
D03*
Y707469D02*
D03*
Y703532D02*
D03*
Y699595D02*
D03*
Y695658D02*
D03*
Y691721D02*
D03*
Y687784D02*
D03*
Y683847D02*
D03*
Y679910D02*
D03*
Y675973D02*
D03*
Y660225D02*
D03*
Y664162D02*
D03*
Y672036D02*
D03*
Y668099D02*
D03*
Y652351D02*
D03*
Y648414D02*
D03*
Y644477D02*
D03*
Y640540D02*
D03*
Y628729D02*
D03*
Y620855D02*
D03*
X83935Y108690D02*
D03*
Y112627D02*
D03*
Y120501D02*
D03*
Y128375D02*
D03*
Y132312D02*
D03*
Y151997D02*
D03*
Y207115D02*
D03*
Y203178D02*
D03*
Y199241D02*
D03*
Y195304D02*
D03*
Y191367D02*
D03*
Y187430D02*
D03*
Y183493D02*
D03*
Y179556D02*
D03*
Y175619D02*
D03*
Y171682D02*
D03*
Y155934D02*
D03*
Y159871D02*
D03*
Y167745D02*
D03*
Y163808D02*
D03*
Y148060D02*
D03*
Y144123D02*
D03*
Y140186D02*
D03*
Y136249D02*
D03*
Y124438D02*
D03*
Y116564D02*
D03*
D41*
X73698Y276013D02*
D03*
Y375934D02*
D03*
Y444123D02*
D03*
Y544044D02*
D03*
Y720028D02*
D03*
Y604359D02*
D03*
X73797Y215737D02*
D03*
Y100068D02*
D03*
D42*
X351962Y355060D02*
D03*
Y372777D02*
D03*
D43*
X290962Y442718D02*
D03*
X296973Y436708D02*
D03*
X310173Y449908D02*
D03*
X304162Y455918D02*
D03*
X303573Y443508D02*
D03*
X297562Y449518D02*
D03*
X282552Y502549D02*
D03*
X288562Y496538D02*
D03*
X361676Y465525D02*
D03*
X355665Y471535D02*
D03*
X343173Y447658D02*
D03*
X337162Y453669D02*
D03*
X290173Y468608D02*
D03*
X284162Y474618D02*
D03*
D44*
X381462Y294918D02*
D03*
Y307218D02*
D03*
Y319518D02*
D03*
Y331818D02*
D03*
D45*
X391462Y294918D02*
D03*
Y307218D02*
D03*
Y319518D02*
D03*
Y331818D02*
D03*
D46*
X290871Y279773D02*
D03*
X299926D02*
D03*
X308981D02*
D03*
X290871Y323637D02*
D03*
X299926D02*
D03*
X308981D02*
D03*
X290871Y367501D02*
D03*
X299926D02*
D03*
X308981D02*
D03*
D47*
X299926Y302214D02*
D03*
Y346078D02*
D03*
Y389942D02*
D03*
D48*
X283434Y457555D02*
D03*
X273690Y467299D02*
D03*
D108*
X419363Y456430D02*
D03*
X403862Y567818D02*
D03*
X403962Y251018D02*
D03*
X101100Y51900D02*
D03*
X101400Y767400D02*
D03*
X419363Y495406D02*
D03*
D109*
X375662Y500918D02*
D03*
D110*
X385662D02*
D03*
X375662Y490918D02*
D03*
X385662D02*
D03*
X375662Y480918D02*
D03*
X385662D02*
D03*
X375662Y470918D02*
D03*
X385662D02*
D03*
X375662Y460918D02*
D03*
X385662D02*
D03*
X375662Y450918D02*
D03*
X385662D02*
D03*
D111*
X367353Y372518D02*
D03*
X391762D02*
D03*
D112*
X377983Y391022D02*
D03*
D113*
X378962Y515618D02*
D03*
D114*
Y525618D02*
D03*
Y535618D02*
D03*
Y545618D02*
D03*
M02*
