G04*
G04 #@! TF.GenerationSoftware,Altium Limited,Altium Designer,18.1.9 (240)*
G04*
G04 Layer_Color=16711935*
%FSLAX25Y25*%
%MOIN*%
G70*
G01*
G75*
%ADD62O,0.02559X0.07087*%
G04:AMPARAMS|DCode=64|XSize=48mil|YSize=58mil|CornerRadius=0mil|HoleSize=0mil|Usage=FLASHONLY|Rotation=225.000|XOffset=0mil|YOffset=0mil|HoleType=Round|Shape=Rectangle|*
%AMROTATEDRECTD64*
4,1,4,-0.00354,0.03748,0.03748,-0.00354,0.00354,-0.03748,-0.03748,0.00354,-0.00354,0.03748,0.0*
%
%ADD64ROTATEDRECTD64*%

G04:AMPARAMS|DCode=75|XSize=48mil|YSize=58mil|CornerRadius=0mil|HoleSize=0mil|Usage=FLASHONLY|Rotation=315.000|XOffset=0mil|YOffset=0mil|HoleType=Round|Shape=Rectangle|*
%AMROTATEDRECTD75*
4,1,4,-0.03748,-0.00354,0.00354,0.03748,0.03748,0.00354,-0.00354,-0.03748,-0.03748,-0.00354,0.0*
%
%ADD75ROTATEDRECTD75*%

%ADD81C,0.20800*%
%ADD82R,0.07099X0.07099*%
%ADD83C,0.07099*%
%ADD84R,0.08674X0.16548*%
%ADD85R,0.16548X0.08674*%
%ADD86R,0.07493X0.07493*%
%ADD87C,0.07493*%
%ADD88C,0.02800*%
%ADD120R,0.07690X0.09461*%
D62*
X106100Y397600D02*
D03*
X101100D02*
D03*
X96100D02*
D03*
X91100D02*
D03*
X86100D02*
D03*
X81100D02*
D03*
X76100D02*
D03*
X76100Y419800D02*
D03*
X106100D02*
D03*
X101100D02*
D03*
X96100D02*
D03*
X91100D02*
D03*
X86100D02*
D03*
X81100D02*
D03*
D64*
X352252Y409108D02*
D03*
X358262Y415118D02*
D03*
D75*
X350052Y465729D02*
D03*
X356062Y459718D02*
D03*
X288262Y508218D02*
D03*
X294273Y502208D02*
D03*
D81*
X419363Y456430D02*
D03*
X403862Y567818D02*
D03*
X403962Y251018D02*
D03*
X101100Y51900D02*
D03*
X101400Y767400D02*
D03*
X419363Y495406D02*
D03*
D82*
X375662Y500918D02*
D03*
D83*
X385662D02*
D03*
X375662Y490918D02*
D03*
X385662D02*
D03*
X375662Y480918D02*
D03*
X385662D02*
D03*
X375662Y470918D02*
D03*
X385662D02*
D03*
X375662Y460918D02*
D03*
X385662D02*
D03*
X375662Y450918D02*
D03*
X385662D02*
D03*
D84*
X367353Y372518D02*
D03*
X391762D02*
D03*
D85*
X377983Y391022D02*
D03*
D86*
X378962Y515618D02*
D03*
D87*
Y525618D02*
D03*
Y535618D02*
D03*
Y545618D02*
D03*
D88*
X77500Y205000D02*
D03*
X75000Y200000D02*
D03*
X77500Y195000D02*
D03*
X75000Y190000D02*
D03*
X77500Y185000D02*
D03*
X75000Y180000D02*
D03*
X77500Y175000D02*
D03*
X75000Y170000D02*
D03*
X77500Y165000D02*
D03*
X75000Y160000D02*
D03*
X77500Y155000D02*
D03*
X75000Y150000D02*
D03*
X77500Y145000D02*
D03*
X75000Y140000D02*
D03*
X77500Y135000D02*
D03*
X75000Y130000D02*
D03*
X77500Y125000D02*
D03*
X75000Y120000D02*
D03*
X77500Y115000D02*
D03*
X75000Y110000D02*
D03*
X72500Y205000D02*
D03*
X70000Y200000D02*
D03*
X72500Y195000D02*
D03*
X70000Y190000D02*
D03*
X72500Y185000D02*
D03*
X70000Y180000D02*
D03*
X72500Y175000D02*
D03*
X70000Y170000D02*
D03*
X72500Y165000D02*
D03*
X70000Y160000D02*
D03*
X72500Y155000D02*
D03*
X70000Y150000D02*
D03*
X72500Y145000D02*
D03*
X70000Y140000D02*
D03*
X72500Y135000D02*
D03*
X70000Y130000D02*
D03*
X72500Y125000D02*
D03*
X70000Y120000D02*
D03*
X72500Y115000D02*
D03*
X70000Y110000D02*
D03*
X67500Y205000D02*
D03*
Y195000D02*
D03*
Y185000D02*
D03*
Y175000D02*
D03*
Y165000D02*
D03*
Y155000D02*
D03*
Y145000D02*
D03*
Y135000D02*
D03*
Y125000D02*
D03*
Y115000D02*
D03*
X77500Y710000D02*
D03*
X75000Y705000D02*
D03*
X77500Y700000D02*
D03*
X75000Y695000D02*
D03*
X77500Y690000D02*
D03*
X75000Y685000D02*
D03*
X77500Y680000D02*
D03*
X75000Y675000D02*
D03*
X77500Y670000D02*
D03*
X75000Y665000D02*
D03*
X77500Y660000D02*
D03*
X75000Y655000D02*
D03*
X77500Y650000D02*
D03*
X75000Y645000D02*
D03*
X77500Y640000D02*
D03*
X75000Y635000D02*
D03*
X77500Y630000D02*
D03*
X75000Y625000D02*
D03*
X77500Y620000D02*
D03*
X75000Y615000D02*
D03*
X72500Y710000D02*
D03*
X70000Y705000D02*
D03*
X72500Y700000D02*
D03*
X70000Y695000D02*
D03*
X72500Y690000D02*
D03*
X70000Y685000D02*
D03*
X72500Y680000D02*
D03*
X70000Y675000D02*
D03*
X72500Y670000D02*
D03*
X70000Y665000D02*
D03*
X72500Y660000D02*
D03*
X70000Y655000D02*
D03*
X72500Y650000D02*
D03*
X70000Y645000D02*
D03*
X72500Y640000D02*
D03*
X70000Y635000D02*
D03*
X72500Y630000D02*
D03*
X70000Y625000D02*
D03*
X72500Y620000D02*
D03*
X70000Y615000D02*
D03*
X67500Y710000D02*
D03*
Y700000D02*
D03*
Y690000D02*
D03*
Y680000D02*
D03*
Y670000D02*
D03*
Y660000D02*
D03*
Y650000D02*
D03*
Y640000D02*
D03*
Y630000D02*
D03*
Y620000D02*
D03*
X75000Y365000D02*
D03*
X77500Y360000D02*
D03*
X75000Y355000D02*
D03*
X77500Y350000D02*
D03*
X75000Y345000D02*
D03*
X77500Y340000D02*
D03*
X75000Y335000D02*
D03*
X77500Y330000D02*
D03*
X75000Y325000D02*
D03*
X77500Y320000D02*
D03*
X75000Y315000D02*
D03*
X77500Y310000D02*
D03*
X75000Y305000D02*
D03*
X77500Y300000D02*
D03*
X75000Y295000D02*
D03*
X77500Y290000D02*
D03*
X75000Y285000D02*
D03*
X70000Y365000D02*
D03*
X72500Y360000D02*
D03*
X70000Y355000D02*
D03*
X72500Y350000D02*
D03*
X70000Y345000D02*
D03*
X72500Y340000D02*
D03*
X70000Y335000D02*
D03*
X72500Y330000D02*
D03*
X70000Y325000D02*
D03*
X72500Y320000D02*
D03*
X70000Y315000D02*
D03*
X72500Y310000D02*
D03*
X70000Y305000D02*
D03*
X72500Y300000D02*
D03*
X70000Y295000D02*
D03*
X72500Y290000D02*
D03*
X70000Y285000D02*
D03*
X67500Y360000D02*
D03*
Y350000D02*
D03*
Y340000D02*
D03*
Y330000D02*
D03*
Y320000D02*
D03*
Y310000D02*
D03*
Y300000D02*
D03*
Y290000D02*
D03*
X75000Y535000D02*
D03*
Y525000D02*
D03*
X77500Y520000D02*
D03*
X75000Y515000D02*
D03*
X77500Y510000D02*
D03*
X75000Y505000D02*
D03*
X77500Y500000D02*
D03*
X75000Y495000D02*
D03*
X77500Y490000D02*
D03*
X75000Y485000D02*
D03*
X77500Y480000D02*
D03*
X75000Y475000D02*
D03*
X77500Y470000D02*
D03*
X75000Y465000D02*
D03*
X77500Y460000D02*
D03*
X75000Y455000D02*
D03*
X70000Y535000D02*
D03*
X72500Y530000D02*
D03*
X70000Y525000D02*
D03*
X72500Y520000D02*
D03*
X70000Y515000D02*
D03*
X72500Y510000D02*
D03*
X70000Y505000D02*
D03*
X72500Y500000D02*
D03*
X70000Y495000D02*
D03*
X72500Y490000D02*
D03*
X70000Y485000D02*
D03*
X72500Y480000D02*
D03*
X70000Y475000D02*
D03*
X72500Y470000D02*
D03*
X70000Y465000D02*
D03*
X72500Y460000D02*
D03*
X70000Y455000D02*
D03*
X67500Y530000D02*
D03*
Y520000D02*
D03*
Y510000D02*
D03*
Y500000D02*
D03*
Y490000D02*
D03*
Y480000D02*
D03*
Y470000D02*
D03*
Y460000D02*
D03*
D120*
X380062Y361463D02*
D03*
Y379573D02*
D03*
M02*
